#N canvas 881 347 970 523 10;
#X declare -path extras;
#X declare -path extras/state_manager;
#X declare -path extras/osclearn;
#X declare -lib pdcontainer;
#X declare -lib pdcontainer;
#X declare -lib pdcontainer;
#X declare -lib pdcontainer;
#X declare -lib pdcontainer;
#X declare -lib pdcontainer;
#X declare -lib pdcontainer;
#X declare -path extras/state_manager;
#X declare -lib pdcontainer;
#X declare -lib pdcontainer;
#X declare -lib pdcontainer;
#X declare -lib pdcontainer;
#X declare -lib pdcontainer;
#X declare -lib pdcontainer;
#X declare -lib pdcontainer;
#X declare -lib pdcontainer;
#X declare -lib pdcontainer;
#X declare -path extras/state_manager;
#X declare -lib pdcontainer;
#X declare -lib pdcontainer;
#X declare -lib pdcontainer;
#X declare -lib pdcontainer;
#X declare -lib pdcontainer;
#X declare -lib pdcontainer;
#X declare -lib pdcontainer;
#X declare -lib pdcontainer;
#X declare -lib pdcontainer;
#X declare -path extras/state_manager;
#X declare -lib pdcontainer;
#X declare -lib pdcontainer;
#X declare -lib pdcontainer;
#X declare -lib pdcontainer;
#X declare -lib pdcontainer;
#X declare -lib pdcontainer;
#X declare -lib pdcontainer;
#X declare -lib pdcontainer;
#X declare -lib pdcontainer;
#X declare -path extras/state_manager;
#X declare -lib pdcontainer;
#X declare -lib pdcontainer;
#X declare -lib pdcontainer;
#X declare -lib pdcontainer;
#X declare -lib pdcontainer;
#X declare -lib pdcontainer;
#X declare -lib pdcontainer;
#X declare -lib pdcontainer;
#X declare -lib pdcontainer;
#X declare -path extras/state_manager;
#X declare -lib pdcontainer;
#X declare -lib pdcontainer;
#X declare -lib pdcontainer;
#X declare -lib pdcontainer;
#X declare -lib pdcontainer;
#X declare -lib pdcontainer;
#X declare -lib pdcontainer;
#X declare -lib pdcontainer;
#X declare -lib pdcontainer;
#X declare -path extras/state_manager;
#X declare -lib pdcontainer;
#X declare -lib pdcontainer;
#X declare -lib pdcontainer;
#X declare -lib pdcontainer;
#X declare -lib pdcontainer;
#X declare -lib pdcontainer;
#X declare -lib pdcontainer;
#X declare -lib pdcontainer;
#X declare -lib pdcontainer;
#X declare -path extras/state_manager;
#X declare -lib pdcontainer;
#X declare -lib pdcontainer;
#X declare -lib pdcontainer;
#X declare -lib pdcontainer;
#X declare -lib pdcontainer;
#X declare -lib pdcontainer;
#X declare -lib pdcontainer;
#X declare -lib pdcontainer;
#X declare -lib pdcontainer;
#X declare -path extras/state_manager;
#X declare -lib pdcontainer;
#X declare -lib pdcontainer;
#X declare -lib pdcontainer;
#X declare -lib pdcontainer;
#X declare -lib pdcontainer;
#X declare -lib pdcontainer;
#X declare -lib pdcontainer;
#X declare -lib pdcontainer;
#X declare -lib pdcontainer;
#X declare -path extras/state_manager;
#X declare -lib pdcontainer;
#X declare -lib pdcontainer;
#X declare -lib pdcontainer;
#X declare -lib pdcontainer;
#X declare -lib pdcontainer;
#X declare -lib pdcontainer;
#X declare -lib pdcontainer;
#X declare -lib pdcontainer;
#X declare -lib pdcontainer;
#X declare -path extras/state_manager;
#X declare -lib pdcontainer;
#X declare -lib pdcontainer;
#X declare -lib pdcontainer;
#X declare -lib pdcontainer;
#X declare -lib pdcontainer;
#X declare -lib pdcontainer;
#X declare -lib pdcontainer;
#X declare -lib pdcontainer;
#X declare -lib pdcontainer;
#X declare -path extras/state_manager;
#X declare -lib pdcontainer;
#X declare -lib pdcontainer;
#X declare -lib pdcontainer;
#X declare -lib pdcontainer;
#X declare -lib pdcontainer;
#X declare -lib pdcontainer;
#X declare -lib pdcontainer;
#X declare -lib pdcontainer;
#X declare -lib pdcontainer;
#X declare -path extras/state_manager;
#X declare -lib pdcontainer;
#X declare -lib pdcontainer;
#X declare -lib pdcontainer;
#X declare -lib pdcontainer;
#X declare -lib pdcontainer;
#X declare -lib pdcontainer;
#X declare -lib pdcontainer;
#X declare -lib pdcontainer;
#X declare -lib pdcontainer;
#X declare -path extras/state_manager;
#X declare -lib pdcontainer;
#X declare -lib pdcontainer;
#X declare -lib pdcontainer;
#X declare -lib pdcontainer;
#X declare -lib pdcontainer;
#X declare -lib pdcontainer;
#X declare -lib pdcontainer;
#X declare -lib pdcontainer;
#X declare -lib pdcontainer;
#X declare -path extras/state_manager;
#X declare -lib pdcontainer;
#X declare -lib pdcontainer;
#X declare -lib pdcontainer;
#X declare -lib pdcontainer;
#X declare -lib pdcontainer;
#X declare -lib pdcontainer;
#X declare -lib pdcontainer;
#X declare -lib pdcontainer;
#X declare -lib pdcontainer;
#X declare -path extras/state_manager;
#X declare -lib pdcontainer;
#X declare -lib pdcontainer;
#X declare -lib pdcontainer;
#X declare -lib pdcontainer;
#X declare -lib pdcontainer;
#X declare -lib pdcontainer;
#X declare -lib pdcontainer;
#X declare -lib pdcontainer;
#X declare -lib pdcontainer;
#X declare -lib pdcontainer;
#X declare -lib pdcontainer;
#X declare -lib pdcontainer;
#X declare -lib pdcontainer;
#X declare -lib pdcontainer -lib tof;
#X msg -155 315 setP \$1 \$2;
#X obj -76 -64 r titze;
#X obj 144 -121 path extras;
#X obj -155 346 s titze;
#X obj 50 326 PRINT;
#X obj -158 -64 ode_fx titze;
#X obj -71 -94 r~ titze_input;
#X obj 144 -101 path extras/state_manager;
#X obj 144 -81 path extras/osclearn;
#X obj -155 180 ode_multihslider titze/f titze/e titze/k titze/P titze/a
titze/b titze/tau;
#X obj -155 46 ode_multihslider titze/osc/freq titze/osc/amp titze/noise/amp
titze/noise/fc titze/delay/time titze/delay/amp titze/input titze/output
;
#X obj -157 -94 r~ ode_titze.0;
#X obj -79 8 s~ ode_titze.0;
#X obj 9 7 s~ ode_titze.1;
#X obj 8 -15 *~;
#X obj 100 -13 line;
#X obj 186 -13 r /titze/output/value;
#X msg 134 -13 \$1 100;
#X obj 397 -33 ode_gem_scope titze;
#X obj 565 69 gem.control;
#X obj 400 -81 output~;
#X obj 399 -140 r~ ode_titze.0;
#X obj 485 -141 r~ ode_titze.1;
#X obj 99 8 s~ ode_titze.2;
#X obj -72 -118 s~ titze_input;
#X obj -271 -6 snaps~;
#X obj -272 25 snaps~;
#X obj 346 113 state_manager;
#X msg 347 93 ../../presets/titze;
#X obj 399 -113 clip~ -1 1;
#X obj 468 -104 clip~ -1 1;
#X obj -76 -37 ode_rk4~ ode_libs/linux64 titze;
#X obj 345 71 loadbang;
#X obj 347 277 s /titze/P/value;
#X obj 347 225 snaps~;
#X obj 347 180 osc~;
#X obj 347 201 +~ 1;
#X obj 388 181 nbx 5 14 -1e+37 1e+37 0 0 empty empty empty 0 -8 0 10
-262144 -1 -1 0 256;
#X obj 347 249 maxlib/scale 0 2 0 5000;
#X obj -68 303 metrum;
#X obj -75 -15 *~;
#X msg -72 329 setX 20 20;
#X obj -270 -37 snaps~;
#X connect 0 0 3 0;
#X connect 1 0 31 0;
#X connect 5 0 31 0;
#X connect 5 0 42 0;
#X connect 6 0 5 1;
#X connect 9 0 0 0;
#X connect 9 0 4 0;
#X connect 11 0 5 0;
#X connect 14 0 13 0;
#X connect 14 0 26 0;
#X connect 15 0 14 1;
#X connect 15 0 40 1;
#X connect 16 0 17 0;
#X connect 17 0 15 0;
#X connect 21 0 29 0;
#X connect 22 0 30 0;
#X connect 28 0 27 0;
#X connect 29 0 20 0;
#X connect 29 0 20 1;
#X connect 31 0 40 0;
#X connect 31 1 14 0;
#X connect 32 0 28 0;
#X connect 34 0 38 0;
#X connect 35 0 36 0;
#X connect 36 0 34 0;
#X connect 37 0 35 0;
#X connect 39 0 41 0;
#X connect 40 0 12 0;
#X connect 40 0 25 0;
#X connect 41 0 3 0;
