#N canvas 436 452 791 415 10;
#X declare -lib iemmatrix;
#X declare -path extras;
#X obj 99 80 r~ hr_out_0;
#X obj 130 104 r~ hr_out_1;
#X obj 165 128 r~ hr_out_2;
#X obj 197 79 r~ lorenz_out_0;
#X obj 229 103 r~ lorenz_out_1;
#X obj 262 130 r~ lorenz_out_2;
#X obj 270 209 s~ lorenz_input;
#X obj 97 211 s~ hr_input;
#X obj -76 2 bng 15 250 50 0 empty empty empty 17 7 0 10 -262144 -1
-1;
#X obj 378 179 snaps~;
#X obj 7 82 r ode_mtx_ij;
#X obj -80 68 r ode_mtx_v;
#X obj 11 -131 import iemmatrix;
#X obj -111 183 mtx_print;
#X obj 98 173 mtx_mul~ 2 7 100 ............;
#X obj 373 143 adc~;
#X obj 587 -125 path extras;
#X obj 587 -89 ode_ij 2 7;
#X obj -80 26 mtx_zeros 2 7;
#X obj -80 108 mtx_element 2 7;
#X connect 0 0 14 1;
#X connect 1 0 14 2;
#X connect 2 0 14 3;
#X connect 3 0 14 4;
#X connect 4 0 14 5;
#X connect 5 0 14 6;
#X connect 8 0 18 0;
#X connect 10 0 19 1;
#X connect 11 0 19 0;
#X connect 14 0 7 0;
#X connect 14 1 6 0;
#X connect 14 1 9 0;
#X connect 15 0 14 7;
#X connect 18 0 19 0;
#X connect 19 0 13 0;
#X connect 19 0 14 0;
