#N canvas 1274 521 499 433 10;
#X declare -path extras/osclearn;
#X declare -lib mrpeach;
#X obj 58 273 udpsend;
#X obj 43 42 path extras/osclearn;
#X obj 43 64 osclearn_receiver;
#X msg 53 217 /1/label2 hola;
#X obj 56 245 packOSC;
#X msg 168 221 connect 192.168.1.44 54321;
#X obj 45 104 r unpacked_osc;
#X obj 42 131 PRINT;
#X connect 3 0 4 0;
#X connect 4 0 0 0;
#X connect 5 0 0 0;
#X connect 6 0 7 0;
