#N canvas 788 537 505 518 10;
#X declare -path extras/osclearn;
#X declare -lib mrpeach;
#X obj 45 246 udpsend;
#X obj 43 42 path extras/osclearn;
#X obj 43 64 osclearn_receiver;
#X obj 45 221 packOSC;
#X msg 168 221 connect 192.168.1.44 54321;
#X obj 44 104 r unpacked_osc;
#X obj 44 129 PRINT;
#X obj 44 301 r unpacked_osc;
#X obj 44 323 routeOSC /hopf/osc/type/togg;
#X obj 44 345 s /hopf/osc/type/togg;
#X obj 45 197 r osc_display;
#X obj 168 199 loadbang;
#X obj 252 298 r unpacked_osc;
#X obj 252 325 routeOSC /odematrix;
#X obj 252 354 unpack s f;
#X obj 252 459 s;
#X obj 252 407 t b s;
#X obj 252 433 f;
#X obj 252 381 makesymbol /odematrix%s;
#X connect 3 0 0 0;
#X connect 4 0 0 0;
#X connect 5 0 6 0;
#X connect 7 0 8 0;
#X connect 8 0 9 0;
#X connect 10 0 3 0;
#X connect 11 0 4 0;
#X connect 12 0 13 0;
#X connect 13 0 14 0;
#X connect 14 0 18 0;
#X connect 14 1 17 1;
#X connect 16 0 17 0;
#X connect 16 1 15 1;
#X connect 17 0 15 0;
#X connect 18 0 16 0;
