#N canvas 1307 740 486 255 10;
#X declare -path extras/osclearn;
#X declare -lib mrpeach;
#X obj 59 195 udpsend;
#X obj 43 42 path extras/osclearn;
#X obj 43 64 osclearn_receiver;
#X msg 169 143 connect 192.168.1.42 54321;
#X msg 54 139 /1/label2 hola;
#X obj 57 167 packOSC;
#X connect 3 0 0 0;
#X connect 4 0 5 0;
#X connect 5 0 0 0;
