#N canvas 627 220 619 522 10;
#X declare -path extras/osclearn;
#X declare -lib mrpeach;
#X obj 45 246 udpsend;
#X obj 43 42 path extras/osclearn;
#X obj 45 221 packOSC;
#X obj 44 104 r unpacked_osc;
#X obj 44 129 PRINT;
#X obj 44 301 r unpacked_osc;
#X obj 44 323 routeOSC /hopf/osc/type/togg;
#X obj 44 345 s /hopf/osc/type/togg;
#X obj 123 217 loadbang;
#X obj 252 298 r unpacked_osc;
#X obj 252 325 routeOSC /odematrix;
#X obj 252 354 unpack s f;
#X obj 252 459 s;
#X obj 252 407 t b s;
#X obj 252 433 f;
#X obj 252 381 makesymbol /odematrix%s;
#X obj 410 226 r unpacked_osc;
#X obj 410 461 s;
#X obj 410 409 t b s;
#X obj 410 435 f;
#X obj 410 353 matrix_get_channel_in_name;
#X obj 410 383 makesymbol /channel/%s/level;
#X obj 410 253 routeOSC /mixer/faders;
#X obj 410 281 unpack s f;
#X obj 410 309 s2l /;
#X obj 410 331 - 1;
#X obj 45 177 r osc_touch;
#X obj 43 64 osclearn_receiver;
#X obj 123 197 bng 15 250 50 0 empty empty empty 17 7 0 10 -262144
-1 -1;
#X msg 123 238 disconnect \, connect 192.168.43.1 54321;
#X connect 2 0 0 0;
#X connect 3 0 4 0;
#X connect 5 0 6 0;
#X connect 6 0 7 0;
#X connect 8 0 29 0;
#X connect 9 0 10 0;
#X connect 10 0 11 0;
#X connect 11 0 15 0;
#X connect 11 1 14 1;
#X connect 13 0 14 0;
#X connect 13 1 12 1;
#X connect 14 0 12 0;
#X connect 15 0 13 0;
#X connect 16 0 22 0;
#X connect 18 0 19 0;
#X connect 18 1 17 1;
#X connect 19 0 17 0;
#X connect 20 0 21 0;
#X connect 21 0 18 0;
#X connect 22 0 23 0;
#X connect 23 0 24 0;
#X connect 23 1 19 1;
#X connect 24 0 25 0;
#X connect 25 0 20 0;
#X connect 26 0 2 0;
#X connect 28 0 8 0;
#X connect 29 0 0 0;
