#N canvas 829 231 465 307 10;
#X declare -lib iemmatrix;
#X declare -path extras;
#X declare -path extras/state_manager;
#X declare -lib pdcontainer -lib tof;
#X declare -path extras/osclearn;
#X declare -lib mrpeach;
#X obj 10 -439 import iemmatrix;
#X obj 10 -417 path extras;
#X obj 10 -396 path extras/state_manager;
#X obj 185 -444 gem.control;
#X obj 9 -374 matrix20x20;
#X obj 87 -373 bng 15 250 50 0 empty empty empty 17 7 0 10 -262144
-1 -1;
#X obj 9 -352 matrix_containers 20;
#X obj 8 -212 state_manager_byname;
#X obj 8 -239 r preset;
#X msg 12 -76 \; preset time 5000 \, name lorenz0 \, load \, time 0
;
#X msg 11 -111 \; preset time 4000 \, name lorenz1 \, load \, time
0;
#X msg 11 -38 \; preset name lorenz0;
#X msg 11 -5 \; preset name lorenz1;
#X msg 11 29 \; preset name lorenz3;
#X msg 12 178 \; preset name hopf0;
#X msg 139 150 \; preset name hopf2;
#X msg 113 -373 print;
#X msg 225 24 \; preset name hopf_lorenz0;
#X obj 301 -352 s gem_scope_color;
#X obj 301 -379 hsv2rgb;
#X obj 301 -404 hotpack f f f;
#X obj 301 -425 nbx 5 14 0 1 0 1 empty empty empty 0 -8 0 10 -262144
-1 -1 0.96 256;
#X obj 333 -445 nbx 5 14 0 1 0 1 empty empty empty 0 -8 0 10 -262144
-1 -1 0.79 256;
#X obj 367 -423 nbx 5 14 0 1 0 1 empty empty empty 0 -8 0 10 -262144
-1 -1 0.8 256;
#X obj 304 -261 hsv2rgb;
#X obj 304 -286 hotpack f f f;
#X obj 304 -307 nbx 5 14 0 1 0 1 empty empty empty 0 -8 0 10 -262144
-1 -1 0.27 256;
#X obj 336 -327 nbx 5 14 0 1 0 1 empty empty empty 0 -8 0 10 -262144
-1 -1 0.25 256;
#X obj 370 -305 nbx 5 14 0 1 0 1 empty empty empty 0 -8 0 10 -262144
-1 -1 0.18 256;
#X obj 304 -221 s gem_win;
#X msg 304 -241 color \$1 \$2 \$3;
#X msg 12 68 \; preset time 1000 \, name hopf0 \, load \, time 0;
#X msg 12 103 \; preset time 1000 \, name hopf1 \, load \, time 0;
#X obj 10 -158 loadbang;
#X msg 10 -134 \; preset dir ../../presets;
#X msg 220 -12 \; preset name hopf_ruidito;
#X obj 9 -332 ode_osc_central;
#X obj 269 -187 tgl 18 0 THIS_IS_HERE_TO_GET_RID_OF_THE_OUTLET \$0-dsp-toggle
dsp 2 9 1 9 -262144 -195568 -33289 0 1;
#N canvas 364 387 482 356 dsp 0;
#X obj 11 7 inlet;
#X obj 92 226 select 0 1;
#X msg 125 248 6;
#X obj 92 57 route dsp;
#X obj 206 138 loadbang;
#X msg 11 220 dsp \$1;
#X msg 206 278 set \$1;
#X obj 206 174 value GLOBAL_PDDP_DSP;
#X msg 109 278 color \$1 20 12;
#X obj 180 309 send \$0-dsp-toggle;
#X obj 92 115 change;
#X msg 92 247 0;
#X obj 92 36 receive pd;
#X obj 11 245 send pd;
#X connect 0 0 5 0;
#X connect 0 0 10 0;
#X connect 1 0 11 0;
#X connect 1 1 2 0;
#X connect 2 0 8 0;
#X connect 3 0 10 0;
#X connect 4 0 7 0;
#X connect 5 0 13 0;
#X connect 6 0 9 0;
#X connect 7 0 6 0;
#X connect 7 0 1 0;
#X connect 8 0 9 0;
#X connect 10 0 6 0;
#X connect 10 0 1 0;
#X connect 10 0 7 0;
#X connect 11 0 8 0;
#X connect 12 0 3 0;
#X restore 269 -165 pd dsp logic;
#X obj 318 -104 clock;
#X connect 5 0 6 0;
#X connect 8 0 7 0;
#X connect 16 0 6 0;
#X connect 19 0 18 0;
#X connect 20 0 19 0;
#X connect 21 0 20 0;
#X connect 22 0 20 1;
#X connect 23 0 20 2;
#X connect 24 0 30 0;
#X connect 25 0 24 0;
#X connect 26 0 25 0;
#X connect 27 0 25 1;
#X connect 28 0 25 2;
#X connect 30 0 29 0;
#X connect 33 0 34 0;
#X connect 37 0 38 0;
