#N canvas 998 511 791 415 10;
#X obj 99 80 r~ hr_out_0;
#X obj 130 104 r~ hr_out_1;
#X obj 165 128 r~ hr_out_2;
#X obj 197 79 r~ lorenz_out_0;
#X obj 229 103 r~ lorenz_out_1;
#X obj 262 130 r~ lorenz_out_2;
#X obj 206 213 s~ lorenz_input;
#X obj 95 211 s~ hr_input;
#X obj 427 20 knob 32 32 0 1 0 0 empty empty empty 0 -8 0 8 -262144
-1 -1 0 1;
#X obj 467 140 knob 32 32 0 1 0 0 empty empty empty 0 -8 0 8 -262144
-1 -1 0 1;
#X obj 427 60 knob 32 32 0 1 0 0 empty empty empty 0 -8 0 8 -262144
-1 -1 0 1;
#X obj 467 180 knob 32 32 0 1 0 0 empty empty empty 0 -8 0 8 -262144
-1 -1 0 1;
#X obj 427 100 knob 32 32 0 1 0 0 empty empty empty 0 -8 0 8 -262144
-1 -1 0 1;
#X obj 467 220 knob 32 32 0 1 0 0 empty empty empty 0 -8 0 8 -262144
-1 -1 0 1;
#X obj 9 19 mtx_element 2 6;
#X obj -20 96 mtx_print;
#X obj 3 -78 bng 15 250 50 0 empty empty empty 17 7 0 10 -262144 -1
-1;
#X obj -1 -54 mtx_zeros 2 6;
#X obj 98 173 mtx_*~ 2 6 100 ............;
#X obj 309 211 snaps~;
#X obj 277 -105 pack f 2 1;
#X obj 277 -126 nbx 5 14 -1e+37 1e+37 0 1 empty empty empty 0 -8 0
10 -262144 -1 -1 51.42 256;
#X obj 277 -81 unpack f f f;
#X obj 301 -53 pack f f;
#X obj 301 -30 s ode_mtx_ij;
#X obj 96 -6 r ode_mtx_ij;
#X obj 222 -29 s ode_mtx_v;
#X obj 16 -20 r ode_mtx_v;
#X obj 439 -132 nbx 5 14 -1e+37 1e+37 0 1 empty empty empty 0 -8 0
10 -262144 -1 -1 -0.22 256;
#X obj 439 -87 unpack f f f;
#X obj 463 -59 pack f f;
#X obj 463 -36 s ode_mtx_ij;
#X obj 384 -35 s ode_mtx_v;
#X obj 439 -111 pack f 1 4;
#X connect 0 0 18 1;
#X connect 1 0 18 2;
#X connect 2 0 18 3;
#X connect 3 0 18 4;
#X connect 4 0 18 5;
#X connect 5 0 18 6;
#X connect 14 0 15 0;
#X connect 14 0 18 0;
#X connect 16 0 17 0;
#X connect 17 0 14 0;
#X connect 18 0 7 0;
#X connect 18 1 6 0;
#X connect 18 1 19 0;
#X connect 20 0 22 0;
#X connect 21 0 20 0;
#X connect 22 0 26 0;
#X connect 22 1 23 0;
#X connect 22 2 23 1;
#X connect 23 0 24 0;
#X connect 25 0 14 1;
#X connect 27 0 14 0;
#X connect 28 0 33 0;
#X connect 29 0 32 0;
#X connect 29 1 30 0;
#X connect 29 2 30 1;
#X connect 30 0 31 0;
#X connect 33 0 29 0;
