#N canvas 203 196 474 518 10;
#X declare -path extras;
#X declare -path extras/state_manager;
#X declare -path extras/osclearn;
#X declare -lib pdcontainer;
#X declare -lib pdcontainer;
#X declare -lib pdcontainer;
#X declare -lib pdcontainer;
#X declare -lib pdcontainer;
#X declare -lib pdcontainer;
#X declare -lib pdcontainer;
#X declare -path extras/state_manager;
#X declare -lib pdcontainer;
#X declare -lib pdcontainer;
#X declare -lib pdcontainer;
#X declare -lib pdcontainer;
#X declare -lib pdcontainer;
#X declare -lib pdcontainer;
#X declare -lib pdcontainer;
#X declare -lib pdcontainer;
#X declare -lib pdcontainer;
#X declare -path extras/state_manager;
#X declare -lib pdcontainer;
#X declare -lib pdcontainer;
#X declare -lib pdcontainer;
#X declare -lib pdcontainer;
#X declare -lib pdcontainer;
#X declare -lib pdcontainer;
#X declare -lib pdcontainer;
#X declare -lib pdcontainer;
#X declare -lib pdcontainer;
#X declare -path extras/state_manager;
#X declare -lib pdcontainer;
#X declare -lib pdcontainer;
#X declare -lib pdcontainer;
#X declare -lib pdcontainer;
#X declare -lib pdcontainer;
#X declare -lib pdcontainer;
#X declare -lib pdcontainer;
#X declare -lib pdcontainer;
#X declare -lib pdcontainer;
#X declare -path extras/state_manager;
#X declare -lib pdcontainer;
#X declare -lib pdcontainer;
#X declare -lib pdcontainer;
#X declare -lib pdcontainer;
#X declare -lib pdcontainer;
#X declare -lib pdcontainer;
#X declare -lib pdcontainer;
#X declare -lib pdcontainer;
#X declare -lib pdcontainer;
#X declare -path extras/state_manager;
#X declare -lib pdcontainer;
#X declare -lib pdcontainer;
#X declare -lib pdcontainer;
#X declare -lib pdcontainer;
#X declare -lib pdcontainer;
#X declare -lib pdcontainer;
#X declare -lib pdcontainer;
#X declare -lib pdcontainer;
#X declare -lib pdcontainer;
#X declare -path extras/state_manager;
#X declare -lib pdcontainer;
#X declare -lib pdcontainer;
#X declare -lib pdcontainer;
#X declare -lib pdcontainer;
#X declare -lib pdcontainer;
#X declare -lib pdcontainer;
#X declare -lib pdcontainer;
#X declare -lib pdcontainer;
#X declare -lib pdcontainer;
#X declare -path extras/state_manager;
#X declare -lib pdcontainer;
#X declare -lib pdcontainer;
#X declare -lib pdcontainer;
#X declare -lib pdcontainer;
#X declare -lib pdcontainer;
#X declare -lib pdcontainer;
#X declare -lib pdcontainer;
#X declare -lib pdcontainer;
#X declare -lib pdcontainer;
#X declare -path extras/state_manager;
#X declare -lib pdcontainer;
#X declare -lib pdcontainer;
#X declare -lib pdcontainer;
#X declare -lib pdcontainer;
#X declare -lib pdcontainer;
#X declare -lib pdcontainer;
#X declare -lib pdcontainer;
#X declare -lib pdcontainer;
#X declare -lib pdcontainer;
#X declare -path extras/state_manager;
#X declare -lib pdcontainer;
#X declare -lib pdcontainer;
#X declare -lib pdcontainer;
#X declare -lib pdcontainer;
#X declare -lib pdcontainer;
#X declare -lib pdcontainer;
#X declare -lib pdcontainer;
#X declare -lib pdcontainer;
#X declare -lib pdcontainer;
#X declare -path extras/state_manager;
#X declare -lib pdcontainer;
#X declare -lib pdcontainer;
#X declare -lib pdcontainer;
#X declare -lib pdcontainer;
#X declare -lib pdcontainer;
#X declare -lib pdcontainer;
#X declare -lib pdcontainer;
#X declare -lib pdcontainer;
#X declare -lib pdcontainer;
#X declare -path extras/state_manager;
#X declare -lib pdcontainer;
#X declare -lib pdcontainer;
#X declare -lib pdcontainer;
#X declare -lib pdcontainer;
#X declare -lib pdcontainer;
#X declare -lib pdcontainer;
#X declare -lib pdcontainer;
#X declare -lib pdcontainer;
#X declare -lib pdcontainer;
#X declare -lib pdcontainer;
#X declare -lib pdcontainer;
#X declare -lib pdcontainer;
#X declare -lib pdcontainer;
#X declare -path extras/linux64;
#X msg -155 255 setP \$1 \$2;
#X obj 144 -83 path extras;
#X obj -155 277 s lorenz;
#X obj -5 256 PRINT;
#X obj -155 -54 ode_fx lorenz;
#X obj 144 -63 path extras/state_manager;
#X obj 144 -43 path extras/osclearn;
#X obj -155 195 ode_multihslider lorenz/r lorenz/b lorenz/tau;
#X obj -155 46 ode_multihslider lorenz/osc/freq lorenz/osc/amp lorenz/noise/amp
lorenz/noise/fc lorenz/delay/time lorenz/delay/amp lorenz/input lorenz/output
;
#X obj 161 352 switch~;
#X obj 161 333 tgl 15 1 empty empty empty 17 7 0 10 -262144 -1 -1 1
1;
#X obj -154 -84 r~ lorenz_delayed;
#X obj -154 -24 throw~ lorenz_in_0;
#X obj -152 309 ode_gem_scope lorenz;
#X obj -38 -84 matrix_output lorenz_input;
#X obj 144 -23 path extras/linux64;
#X msg -84 255 setX 0 1 0;
#X obj -154 6 ode_matrix_node 1 3 lorenz ode_rk4~ ../ode_libs/linux64
lorenz;
#X connect 0 0 2 0;
#X connect 4 0 12 0;
#X connect 7 0 0 0;
#X connect 7 0 3 0;
#X connect 10 0 9 0;
#X connect 11 0 4 0;
#X connect 14 0 4 1;
#X connect 16 0 2 0;
