#N canvas 859 207 454 484 10;
#X declare -lib iemmatrix;
#X declare -path extras;
#X declare -path extras/state_manager;
#X declare -lib pdcontainer -lib tof;
#X obj 89 -91 loadbang;
#X msg 89 -67 dir ../../presets;
#X obj 128 127 import iemmatrix;
#X obj 128 149 path extras;
#X obj 128 171 path extras/state_manager;
#X obj 12 20 gem.control;
#X obj 129 28 catch~ ode_master_L;
#X obj 197 53 catch~ ode_master_R;
#X obj 128 192 matrix20x20;
#X obj 128 82 output_clip~;
#X obj 206 193 bng 15 250 50 0 empty empty empty 17 7 0 10 -262144
-1 -1;
#X obj 128 213 matrix_containers 20;
#X obj 12 -36 state_manager_byname;
#X obj 16 -67 r preset;
#X msg -4 -221 \; preset time 1000 \, name hopf0 \, load;
#X msg -3 -194 \; preset time 1000 \, name hopf1 \, load;
#X msg -3 -362 \; preset time 5000 \, name lorenz0 \, load \, time
0;
#X msg -6 -336 \; preset time 4000 \, name lorenz1 \, load \, time
0;
#X msg 1 -309 \; preset name lorenz0;
#X msg -4 -288 \; preset name lorenz1;
#X msg -3 -266 \; preset name lorenz3;
#X msg -2 -152 \; preset name hopf1;
#X msg 2 -130 \; preset name hopf0;
#X msg 125 -143 \; preset name hopf2;
#X connect 0 0 1 0;
#X connect 1 0 12 0;
#X connect 6 0 9 0;
#X connect 7 0 9 1;
#X connect 10 0 11 0;
#X connect 13 0 12 0;
