#N canvas 661 126 394 658 10;
#X declare -path extras;
#X declare -path extras/state_manager;
#X declare -lib pdcontainer;
#X declare -lib pdcontainer;
#X declare -lib pdcontainer;
#X declare -lib pdcontainer;
#X declare -lib pdcontainer;
#X declare -lib pdcontainer;
#X declare -lib pdcontainer;
#X declare -lib pdcontainer;
#X declare -lib pdcontainer;
#X declare -lib pdcontainer;
#X declare -lib pdcontainer;
#X declare -lib pdcontainer;
#X declare -lib pdcontainer;
#X declare -lib pdcontainer;
#X declare -lib pdcontainer;
#X declare -lib pdcontainer;
#X declare -lib pdcontainer;
#X declare -lib pdcontainer;
#X declare -lib pdcontainer;
#X declare -lib pdcontainer;
#X declare -lib pdcontainer;
#X declare -lib pdcontainer;
#X declare -lib pdcontainer;
#X declare -lib pdcontainer;
#X declare -lib sfruit;
#X declare -lib pdcontainer;
#X declare -lib sfruit;
#X declare -lib pdcontainer;
#X declare -lib sfruit;
#X declare -lib pdcontainer;
#X declare -lib sfruit;
#X declare -lib pdcontainer;
#X declare -lib sfruit;
#X declare -lib pdcontainer;
#X declare -lib sfruit;
#X declare -lib pdcontainer;
#X declare -lib sfruit;
#X declare -lib pdcontainer;
#X declare -lib sfruit;
#X declare -lib pdcontainer;
#X declare -lib sfruit;
#X declare -lib pdcontainer;
#X declare -lib sfruit;
#X declare -lib pdcontainer;
#X declare -lib sfruit;
#X declare -lib pdcontainer;
#X declare -lib sfruit;
#X declare -lib pdcontainer;
#X declare -lib sfruit;
#X declare -lib pdcontainer;
#X declare -lib sfruit;
#X declare -lib pdcontainer;
#X declare -lib sfruit;
#X declare -lib pdcontainer;
#X declare -lib sfruit;
#X declare -lib pdcontainer;
#X declare -lib sfruit;
#X declare -lib pdcontainer;
#X declare -lib sfruit;
#X declare -lib pdcontainer;
#X declare -lib sfruit;
#X declare -lib pdcontainer;
#X declare -lib sfruit;
#X declare -lib pdcontainer;
#X declare -lib sfruit;
#X declare -lib pdcontainer;
#X declare -lib sfruit;
#X declare -lib pdcontainer;
#X declare -lib sfruit;
#X declare -lib pdcontainer;
#X declare -lib sfruit;
#X declare -lib pdcontainer;
#X declare -lib sfruit;
#X declare -lib pdcontainer;
#X declare -lib sfruit;
#X declare -lib pdcontainer;
#X declare -lib sfruit;
#X declare -lib pdcontainer;
#X declare -lib sfruit;
#X declare -lib pdcontainer;
#X declare -lib sfruit;
#X declare -lib pdcontainer;
#X declare -lib sfruit;
#X declare -lib pdcontainer;
#X obj -40 -117 path extras;
#X obj -40 -92 path extras/state_manager;
#X obj -27 -69 s idiot_bang;
#X obj -39 -68 bng 15 250 50 0 empty empty empty 17 7 0 10 -262144
-1 -1;
#X obj -39 -33 bng 15 250 50 0 empty empty empty 17 7 0 10 -262144
-1 -1;
#X obj 12 -18 matrix_faders;
#X obj -39 225 matrix_knobs;
#X obj 135 -56 matrix_input adc;
#X obj 134 -121 adc~;
#X obj 135 -91 *~ 100;
#X obj 254 -134 catch~ ode_master_L;
#X obj 322 -109 catch~ ode_master_R;
#X obj 253 -80 output_clip~;
#X connect 3 0 2 0;
#X connect 4 0 5 0;
#X connect 4 0 6 0;
#X connect 8 0 9 0;
#X connect 9 0 7 0;
#X connect 10 0 12 0;
#X connect 11 0 12 1;
