#N canvas 178 599 784 455 10;
#X declare -path extras;
#X declare -lib pdcontainer;
#X declare -lib pdcontainer;
#X declare -lib pdcontainer;
#X declare -lib pdcontainer;
#X declare -lib pdcontainer;
#X declare -lib pdcontainer;
#X declare -lib pdcontainer;
#X declare -path extras/state_manager;
#X declare -lib pdcontainer;
#X declare -lib pdcontainer;
#X declare -lib pdcontainer;
#X declare -lib pdcontainer;
#X declare -lib pdcontainer;
#X declare -lib pdcontainer;
#X declare -lib pdcontainer;
#X declare -lib pdcontainer;
#X declare -lib pdcontainer;
#X declare -path extras/state_manager;
#X declare -lib pdcontainer;
#X declare -lib pdcontainer;
#X declare -lib pdcontainer;
#X declare -lib pdcontainer;
#X declare -lib pdcontainer;
#X declare -lib pdcontainer;
#X declare -lib pdcontainer;
#X declare -lib pdcontainer;
#X declare -lib pdcontainer;
#X declare -path extras/state_manager;
#X declare -lib pdcontainer;
#X declare -lib pdcontainer;
#X declare -lib pdcontainer;
#X declare -lib pdcontainer;
#X declare -lib pdcontainer;
#X declare -lib pdcontainer;
#X declare -lib pdcontainer;
#X declare -lib pdcontainer;
#X declare -lib pdcontainer;
#X declare -path extras/state_manager;
#X declare -lib pdcontainer;
#X declare -lib pdcontainer;
#X declare -lib pdcontainer;
#X declare -lib pdcontainer;
#X declare -lib pdcontainer;
#X declare -lib pdcontainer;
#X declare -lib pdcontainer;
#X declare -lib pdcontainer;
#X declare -lib pdcontainer;
#X declare -path extras/state_manager;
#X declare -lib pdcontainer;
#X declare -lib pdcontainer;
#X declare -lib pdcontainer;
#X declare -lib pdcontainer;
#X declare -lib pdcontainer;
#X declare -lib pdcontainer;
#X declare -lib pdcontainer;
#X declare -lib pdcontainer;
#X declare -lib pdcontainer;
#X declare -path extras/state_manager;
#X declare -lib pdcontainer;
#X declare -lib pdcontainer;
#X declare -lib pdcontainer;
#X declare -lib pdcontainer;
#X declare -lib pdcontainer;
#X declare -lib pdcontainer;
#X declare -lib pdcontainer;
#X declare -lib pdcontainer;
#X declare -lib pdcontainer;
#X declare -path extras/state_manager;
#X declare -lib pdcontainer;
#X declare -lib pdcontainer;
#X declare -lib pdcontainer;
#X declare -lib pdcontainer;
#X declare -lib pdcontainer;
#X declare -lib pdcontainer;
#X declare -lib pdcontainer;
#X declare -lib pdcontainer;
#X declare -lib pdcontainer;
#X declare -path extras/state_manager;
#X declare -lib pdcontainer;
#X declare -lib pdcontainer;
#X declare -lib pdcontainer;
#X declare -lib pdcontainer;
#X declare -lib pdcontainer;
#X declare -lib pdcontainer;
#X declare -lib pdcontainer;
#X declare -lib pdcontainer;
#X declare -lib pdcontainer;
#X declare -path extras/state_manager;
#X declare -lib pdcontainer;
#X declare -lib pdcontainer;
#X declare -lib pdcontainer;
#X declare -lib pdcontainer;
#X declare -lib pdcontainer;
#X declare -lib pdcontainer;
#X declare -lib pdcontainer;
#X declare -lib pdcontainer;
#X declare -lib pdcontainer;
#X declare -path extras/state_manager;
#X declare -lib pdcontainer;
#X declare -lib pdcontainer;
#X declare -lib pdcontainer;
#X declare -lib pdcontainer;
#X declare -lib pdcontainer;
#X declare -lib pdcontainer;
#X declare -lib pdcontainer;
#X declare -lib pdcontainer;
#X declare -lib pdcontainer;
#X declare -path extras/state_manager;
#X declare -lib pdcontainer;
#X declare -lib pdcontainer;
#X declare -path extras/osclearn;
#X declare -path extras/state_manager;
#X msg -155 293 setP \$1 \$2;
#X obj -76 -61 r lorenz;
#X obj 169 -93 path extras;
#X obj -155 315 s lorenz;
#X obj -6 294 PRINT;
#X obj -155 46 ode_multihslider lorenz/osc/freq lorenz/osc/amp lorenz/noise/amp
lorenz/noise/fc lorenz/delay/time lorenz/delay/amp lorenz/input lorenz/output
;
#X obj -175 -67 ode_fx lorenz;
#X obj -155 195 ode_multihslider lorenz/r lorenz/b lorenz/tau;
#X msg -82 294 setX 1 1 1;
#X obj -73 -96 r~ lorenz_input;
#X obj -76 -37 ode_rk4~ ode_libs/linux64 lorenz;
#X obj 169 -53 path extras/osclearn;
#X obj -77 8 s~ ode_lorenz.0;
#X obj 17 9 s~ ode_lorenz.1;
#X obj 113 9 s~ ode_lorenz.2;
#X obj 169 -73 path extras/state_manager;
#X obj -174 -97 r~ ode_lorenz.0;
#X obj -76 -13 *~;
#X obj 17 -13 *~;
#X obj 112 -14 *~;
#X obj 143 -14 line;
#X obj 218 -14 r /lorenz/output/value;
#X msg 175 -14 \$1 100;
#X obj -168 -6 switch~;
#X obj -167 -25 tgl 15 1 empty empty empty 17 7 0 10 -262144 -1 -1
0 1;
#X connect 0 0 3 0;
#X connect 1 0 10 0;
#X connect 6 0 10 0;
#X connect 7 0 0 0;
#X connect 7 0 4 0;
#X connect 8 0 3 0;
#X connect 9 0 6 1;
#X connect 10 0 17 0;
#X connect 10 1 18 0;
#X connect 10 2 19 0;
#X connect 16 0 6 0;
#X connect 17 0 12 0;
#X connect 18 0 13 0;
#X connect 19 0 14 0;
#X connect 20 0 19 1;
#X connect 20 0 18 1;
#X connect 20 0 17 1;
#X connect 21 0 22 0;
#X connect 22 0 20 0;
#X connect 24 0 23 0;
