#N canvas 707 337 1053 549 10;
#X declare -path extras;
#X obj 461 77 state_manager;
#X msg -155 367 setP \$1 \$2;
#X obj 207 -30 output~;
#X obj 462 -41 gem.scope;
#X obj -76 -73 r hr;
#X obj 461 353 path extras;
#X obj -155 389 s hr;
#X obj -30 -72 sig~;
#X obj 7 -72 nbx 5 14 -1e+37 1e+37 0 1 empty empty empty 0 -8 0 10
-262144 -1 -1 5 256;
#X obj -5 368 PRINT;
#X msg -84 367 setX 0 0 1;
#X msg 461 35 /home/miles/Copy/Osciladores_no_lineales/ode_synth_v3/presets
;
#X obj -155 46 ode_multihslider hr/osc/freq hr/osc/amp hr/noise/amp
hr/noise/fc hr/delay/time hr/delay/amp hr/input;
#X obj -155 195 ode_multihslider hr/a hr/b hr/c hr/d hr/r hr/s hr/xr
hr/tau;
#X obj -77 -12 s~ hr_out_0;
#X obj 9 -13 s~ hr_out_1;
#X obj 92 -13 s~ hr_out_2;
#X obj 206 -70 r~ hr_out_0;
#X obj 288 -69 r~ hr_out_2;
#X obj 461 -71 r~ hr_out_0;
#X obj 562 -70 r~ hr_out_1;
#X obj 664 -70 r~ hr_out_2;
#X obj -157 -94 r~ hr_out_0;
#X obj -76 -37 ode_rk4~ ode_libs hr;
#X obj -158 -64 ode_fx hr;
#X obj -77 -97 r~ hr_input;
#X obj 461 130 gem.control;
#X connect 1 0 6 0;
#X connect 4 0 23 0;
#X connect 7 0 23 0;
#X connect 8 0 7 0;
#X connect 10 0 6 0;
#X connect 11 0 0 0;
#X connect 13 0 1 0;
#X connect 13 0 9 0;
#X connect 17 0 2 0;
#X connect 18 0 2 1;
#X connect 19 0 3 0;
#X connect 20 0 3 1;
#X connect 21 0 3 2;
#X connect 22 0 24 0;
#X connect 23 0 14 0;
#X connect 23 1 15 0;
#X connect 23 2 16 0;
#X connect 24 0 23 0;
#X connect 25 0 24 1;
