#N canvas 826 225 1022 521 10;
#X declare -lib pdcontainer -lib tof;
#X declare -path extras;
#X declare -lib pdcontainer;
#X declare -lib pdcontainer;
#X declare -lib pdcontainer;
#X declare -lib pdcontainer;
#X declare -lib pdcontainer;
#X declare -lib pdcontainer;
#X declare -lib pdcontainer;
#X declare -lib pdcontainer;
#X declare -lib pdcontainer;
#X declare -lib pdcontainer;
#X declare -lib pdcontainer;
#X declare -lib pdcontainer;
#X declare -lib pdcontainer;
#X declare -lib pdcontainer;
#X declare -lib pdcontainer;
#X declare -lib pdcontainer;
#X declare -lib pdcontainer;
#X declare -lib pdcontainer;
#X declare -lib pdcontainer;
#X declare -lib pdcontainer;
#X declare -lib pdcontainer;
#X declare -lib pdcontainer;
#X declare -lib pdcontainer;
#X declare -lib pdcontainer;
#X declare -lib pdcontainer;
#X declare -lib pdcontainer;
#X declare -lib pdcontainer;
#X declare -lib pdcontainer;
#X declare -lib pdcontainer;
#X declare -lib pdcontainer;
#X declare -lib pdcontainer;
#X declare -lib pdcontainer;
#X declare -lib pdcontainer;
#X declare -lib pdcontainer;
#X declare -lib pdcontainer;
#X declare -lib pdcontainer;
#X declare -lib pdcontainer;
#X declare -lib pdcontainer;
#X declare -lib pdcontainer;
#X declare -lib pdcontainer;
#X declare -lib pdcontainer;
#X declare -lib pdcontainer;
#X declare -lib pdcontainer;
#X declare -lib pdcontainer;
#X declare -lib pdcontainer;
#X declare -lib pdcontainer;
#X declare -lib pdcontainer;
#X declare -lib pdcontainer;
#X declare -lib pdcontainer;
#X declare -lib pdcontainer;
#X declare -lib pdcontainer;
#X declare -lib pdcontainer;
#X declare -lib pdcontainer;
#X declare -lib pdcontainer;
#X declare -lib pdcontainer;
#X declare -lib pdcontainer;
#X declare -lib pdcontainer;
#X declare -lib pdcontainer;
#X declare -lib pdcontainer;
#X declare -lib pdcontainer;
#X declare -lib pdcontainer;
#X declare -lib pdcontainer;
#X declare -lib pdcontainer;
#X declare -lib pdcontainer;
#X declare -lib pdcontainer;
#X declare -lib pdcontainer;
#X declare -lib pdcontainer;
#X declare -lib pdcontainer;
#X declare -lib pdcontainer;
#X declare -lib pdcontainer;
#X obj 461 77 state_manager;
#X obj 461 130 control_gem;
#X msg -155 293 setP \$1 \$2;
#X obj 207 -30 output~;
#X obj 462 -41 gem.scope;
#X obj -50 -62 r lorenz;
#X obj 461 353 path extras;
#X obj -155 315 s lorenz;
#X obj -5 294 PRINT;
#X obj -77 -12 s~ lorenz_out_0;
#X obj 9 -12 s~ lorenz_out_1;
#X obj 92 -12 s~ lorenz_out_2;
#X obj 201 -67 r~ lorenz_out_0;
#X obj 301 -67 r~ lorenz_out_2;
#X obj 461 -71 r~ lorenz_out_0;
#X obj 562 -70 r~ lorenz_out_1;
#X obj 664 -70 r~ lorenz_out_2;
#X msg 461 35 /home/miles/Copy/Osciladores_no_lineales/ode_synth_v3/presets
;
#X obj -155 46 ode_multihslider lorenz/osc/freq lorenz/osc/amp lorenz/noise/amp
lorenz/noise/fc lorenz/delay/time lorenz/delay/amp lorenz/input;
#X obj -175 -67 ode_fx lorenz;
#X obj -174 -97 r~ lorenz_out_0;
#X obj -155 195 ode_multihslider lorenz/r lorenz/b lorenz/tau;
#X obj -76 -37 ode_rk4~ ode_libs lorenz;
#X msg -82 294 setX 1 1 1;
#X obj -51 258 metro 1000;
#X obj 24 260 tgl 15 0 empty empty empty 17 7 0 10 -262144 -1 -1 0
1;
#X obj -73 -96 r~ lorenz_input;
#X obj 12 -71 snaps~;
#X connect 2 0 7 0;
#X connect 5 0 22 0;
#X connect 12 0 3 0;
#X connect 13 0 3 1;
#X connect 14 0 4 0;
#X connect 15 0 4 1;
#X connect 16 0 4 2;
#X connect 17 0 0 0;
#X connect 19 0 22 0;
#X connect 20 0 19 0;
#X connect 21 0 2 0;
#X connect 21 0 8 0;
#X connect 22 0 9 0;
#X connect 22 1 10 0;
#X connect 22 2 11 0;
#X connect 23 0 7 0;
#X connect 24 0 23 0;
#X connect 25 0 24 0;
#X connect 26 0 19 1;
#X connect 26 0 27 0;
