#N canvas 884 175 656 307 10;
#X declare -lib pdcontainer -lib tof;
#X declare -lib iemmatrix;
#X declare -path extras;
#X declare -path extras/state_manager;
#X declare -lib sfruit;
#X declare -lib pdcontainer;
#X declare -lib sfruit;
#X declare -lib pdcontainer;
#X declare -lib sfruit;
#X declare -lib pdcontainer;
#X declare -lib sfruit;
#X declare -lib pdcontainer;
#X declare -lib sfruit;
#X declare -lib pdcontainer;
#X declare -lib sfruit;
#X declare -lib pdcontainer;
#X declare -lib sfruit;
#X declare -lib pdcontainer;
#X declare -lib sfruit;
#X declare -lib pdcontainer;
#X declare -lib sfruit;
#X declare -lib pdcontainer;
#X declare -lib sfruit;
#X declare -lib pdcontainer;
#X declare -lib sfruit;
#X declare -lib pdcontainer;
#X declare -lib sfruit;
#X declare -lib pdcontainer;
#X declare -lib sfruit;
#X declare -lib pdcontainer;
#X declare -lib sfruit;
#X declare -lib pdcontainer;
#X declare -lib sfruit;
#X declare -lib pdcontainer;
#X declare -lib sfruit;
#X declare -lib pdcontainer;
#X declare -lib sfruit;
#X declare -lib pdcontainer;
#X declare -lib sfruit;
#X declare -lib pdcontainer;
#X declare -lib sfruit;
#X declare -lib pdcontainer;
#X declare -lib sfruit;
#X declare -lib pdcontainer;
#X declare -lib sfruit;
#X declare -lib pdcontainer;
#X declare -lib sfruit;
#X declare -lib pdcontainer;
#X declare -lib sfruit;
#X declare -lib pdcontainer;
#X declare -lib sfruit;
#X declare -lib pdcontainer;
#X declare -lib sfruit;
#X declare -lib pdcontainer;
#X declare -lib sfruit;
#X declare -lib pdcontainer;
#X declare -lib sfruit;
#X declare -lib pdcontainer;
#X declare -lib sfruit;
#X declare -lib pdcontainer;
#X declare -lib sfruit;
#X declare -lib pdcontainer;
#X declare -lib sfruit;
#X declare -lib pdcontainer;
#X declare -lib sfruit;
#X declare -lib pdcontainer;
#X declare -lib sfruit;
#X declare -lib pdcontainer;
#X declare -lib sfruit;
#X declare -lib pdcontainer;
#X declare -lib sfruit;
#X declare -lib pdcontainer;
#X declare -lib sfruit;
#X declare -lib pdcontainer;
#X declare -lib sfruit;
#X declare -lib pdcontainer;
#X declare -lib sfruit;
#X declare -lib pdcontainer;
#X declare -lib sfruit;
#X declare -lib pdcontainer;
#X declare -lib sfruit;
#X declare -lib pdcontainer;
#X declare -lib sfruit;
#X declare -lib pdcontainer;
#X declare -lib sfruit;
#X declare -lib pdcontainer;
#X declare -lib sfruit;
#X declare -lib pdcontainer;
#X declare -lib sfruit;
#X declare -lib pdcontainer;
#X declare -lib sfruit;
#X declare -lib pdcontainer;
#X declare -lib sfruit;
#X declare -lib pdcontainer;
#X declare -lib sfruit;
#X declare -lib pdcontainer;
#X declare -lib sfruit;
#X declare -lib pdcontainer;
#X declare -lib sfruit;
#X declare -lib pdcontainer;
#X declare -lib sfruit;
#X declare -lib pdcontainer;
#X declare -lib sfruit;
#X declare -lib pdcontainer;
#X declare -lib sfruit;
#X declare -lib pdcontainer;
#X declare -lib sfruit;
#X declare -lib pdcontainer;
#X declare -lib sfruit;
#X declare -lib pdcontainer;
#X declare -lib sfruit;
#X declare -lib pdcontainer;
#X declare -lib sfruit;
#X declare -lib pdcontainer;
#X declare -lib sfruit;
#X declare -lib pdcontainer;
#X declare -lib sfruit;
#X declare -lib pdcontainer;
#X declare -lib sfruit;
#X declare -lib pdcontainer;
#X declare -lib sfruit;
#X declare -lib pdcontainer;
#X declare -lib sfruit;
#X declare -lib pdcontainer;
#X declare -lib sfruit;
#X declare -lib pdcontainer;
#X declare -lib sfruit;
#X declare -lib pdcontainer;
#X declare -lib sfruit;
#X declare -lib pdcontainer;
#X declare -lib sfruit;
#X declare -lib pdcontainer;
#X declare -lib sfruit;
#X declare -lib pdcontainer;
#X declare -lib sfruit;
#X declare -lib pdcontainer;
#X declare -lib sfruit;
#X declare -lib pdcontainer;
#X declare -lib sfruit;
#X declare -lib pdcontainer;
#X declare -lib sfruit;
#X declare -lib pdcontainer;
#X declare -lib sfruit;
#X declare -lib pdcontainer;
#X declare -lib sfruit;
#X declare -lib pdcontainer;
#X declare -lib sfruit;
#X declare -lib pdcontainer;
#X declare -lib sfruit;
#X declare -lib pdcontainer;
#X declare -lib sfruit;
#X declare -lib pdcontainer;
#X declare -lib sfruit;
#X declare -lib pdcontainer;
#X declare -lib sfruit;
#X declare -lib pdcontainer;
#X declare -lib sfruit;
#X declare -lib pdcontainer;
#X declare -lib sfruit;
#X declare -lib pdcontainer;
#X declare -lib sfruit;
#X declare -lib pdcontainer;
#X declare -lib sfruit;
#X declare -lib pdcontainer;
#X declare -lib sfruit;
#X declare -lib pdcontainer;
#X declare -lib sfruit;
#X declare -lib pdcontainer;
#X declare -lib sfruit;
#X declare -lib pdcontainer;
#X declare -lib sfruit;
#X declare -lib pdcontainer;
#X declare -lib sfruit;
#X declare -lib pdcontainer;
#X declare -lib sfruit;
#X declare -lib pdcontainer;
#X declare -lib sfruit;
#X declare -lib pdcontainer;
#X declare -lib sfruit;
#X declare -lib pdcontainer;
#X declare -lib sfruit;
#X declare -lib pdcontainer;
#X declare -lib sfruit;
#X declare -lib pdcontainer;
#X obj 12 -87 loadbang;
#X obj 142 -97 s state_line_time;
#X obj 142 -117 nbx 5 14 -1e+37 1e+37 0 0 empty empty empty 0 -8 0
10 -262144 -1 -1 0 256;
#X obj 12 -36 state_manager_byname;
#X msg 12 -63 dir ../../presets;
#X obj 426 -149 import iemmatrix;
#X obj 426 -127 path extras;
#X obj 425 -106 path extras/state_manager;
#N canvas 960 265 450 300 autoconstructors 0;
#N canvas 1309 313 580 249 pool 0;
#X obj 0 0 ode_ij_noname 1 1;
#X obj 42 0 ode_ij_noname 1 2;
#X obj 84 0 ode_ij_noname 1 3;
#X obj 126 0 ode_ij_noname 1 4;
#X obj 168 0 ode_ij_noname 1 5;
#X obj 210 0 ode_ij_noname 1 6;
#X obj 252 0 ode_ij_noname 1 7;
#X obj 294 0 ode_ij_noname 1 8;
#X obj 336 0 ode_ij_noname 1 9;
#X obj 0 42 ode_ij_noname 2 1;
#X obj 42 42 ode_ij_noname 2 2;
#X obj 84 42 ode_ij_noname 2 3;
#X obj 126 42 ode_ij_noname 2 4;
#X obj 168 42 ode_ij_noname 2 5;
#X obj 210 42 ode_ij_noname 2 6;
#X obj 252 42 ode_ij_noname 2 7;
#X obj 294 42 ode_ij_noname 2 8;
#X obj 336 42 ode_ij_noname 2 9;
#X obj 0 84 ode_ij_noname 3 1;
#X obj 42 84 ode_ij_noname 3 2;
#X obj 84 84 ode_ij_noname 3 3;
#X obj 126 84 ode_ij_noname 3 4;
#X obj 168 84 ode_ij_noname 3 5;
#X obj 210 84 ode_ij_noname 3 6;
#X obj 252 84 ode_ij_noname 3 7;
#X obj 294 84 ode_ij_noname 3 8;
#X obj 336 84 ode_ij_noname 3 9;
#X obj 0 126 ode_ij_noname 4 1;
#X obj 42 126 ode_ij_noname 4 2;
#X obj 84 126 ode_ij_noname 4 3;
#X obj 126 126 ode_ij_noname 4 4;
#X obj 168 126 ode_ij_noname 4 5;
#X obj 210 126 ode_ij_noname 4 6;
#X obj 252 126 ode_ij_noname 4 7;
#X obj 294 126 ode_ij_noname 4 8;
#X obj 336 126 ode_ij_noname 4 9;
#X obj 0 168 ode_ij_noname 5 1;
#X obj 42 168 ode_ij_noname 5 2;
#X obj 84 168 ode_ij_noname 5 3;
#X obj 126 168 ode_ij_noname 5 4;
#X obj 168 168 ode_ij_noname 5 5;
#X obj 210 168 ode_ij_noname 5 6;
#X obj 252 168 ode_ij_noname 5 7;
#X obj 294 168 ode_ij_noname 5 8;
#X obj 336 168 ode_ij_noname 5 9;
#X obj 0 210 ode_ij_noname 6 1;
#X obj 42 210 ode_ij_noname 6 2;
#X obj 84 210 ode_ij_noname 6 3;
#X obj 126 210 ode_ij_noname 6 4;
#X obj 168 210 ode_ij_noname 6 5;
#X obj 210 210 ode_ij_noname 6 6;
#X obj 252 210 ode_ij_noname 6 7;
#X obj 294 210 ode_ij_noname 6 8;
#X obj 336 210 ode_ij_noname 6 9;
#X obj 0 252 ode_ij_noname 7 1;
#X obj 42 252 ode_ij_noname 7 2;
#X obj 84 252 ode_ij_noname 7 3;
#X obj 126 252 ode_ij_noname 7 4;
#X obj 168 252 ode_ij_noname 7 5;
#X obj 210 252 ode_ij_noname 7 6;
#X obj 252 252 ode_ij_noname 7 7;
#X obj 294 252 ode_ij_noname 7 8;
#X obj 336 252 ode_ij_noname 7 9;
#X obj 0 294 ode_ij_noname 8 1;
#X obj 42 294 ode_ij_noname 8 2;
#X obj 84 294 ode_ij_noname 8 3;
#X obj 126 294 ode_ij_noname 8 4;
#X obj 168 294 ode_ij_noname 8 5;
#X obj 210 294 ode_ij_noname 8 6;
#X obj 252 294 ode_ij_noname 8 7;
#X obj 294 294 ode_ij_noname 8 8;
#X obj 336 294 ode_ij_noname 8 9;
#X obj 0 336 ode_ij_noname 9 1;
#X obj 42 336 ode_ij_noname 9 2;
#X obj 84 336 ode_ij_noname 9 3;
#X obj 126 336 ode_ij_noname 9 4;
#X obj 168 336 ode_ij_noname 9 5;
#X obj 210 336 ode_ij_noname 9 6;
#X obj 252 336 ode_ij_noname 9 7;
#X obj 294 336 ode_ij_noname 9 8;
#X obj 336 336 ode_ij_noname 9 9;
#X obj 0 378 ode_ij_noname 10 1;
#X obj 42 378 ode_ij_noname 10 2;
#X obj 84 378 ode_ij_noname 10 3;
#X obj 126 378 ode_ij_noname 10 4;
#X obj 168 378 ode_ij_noname 10 5;
#X obj 210 378 ode_ij_noname 10 6;
#X obj 252 378 ode_ij_noname 10 7;
#X obj 294 378 ode_ij_noname 10 8;
#X obj 336 378 ode_ij_noname 10 9;
#X coords 0 249 1 248 60 60 0;
#X restore 33 -210 pd pool;
#N canvas 1176 491 507 402 pool2 0;
#X restore 34 -127 pd pool2;
#X msg 33 -260 clear \, start 1 \, step 42 42 \, bang;
#X msg 34 -185 clear \, step 42 0 \, list hr.0 hr.1 hr.2 lorenz.0 lorenz.1
lorenz.2 hopf.0 hopf.1 adc \, bang;
#X obj 34 -149 autoconstructor_labels 3 ode_channel pool2;
#X obj 33 -237 autoconstructor_mtx_ij 10 9 ode_ij_noname pool;
#X connect 2 0 5 0;
#X connect 3 0 4 0;
#X restore 426 -171 pd autoconstructors;
#X obj 288 -173 gem.control;
#X obj 13 -241 catch~ ode_master_L;
#X obj 70 -216 catch~ ode_master_R;
#X obj 423 -71 matrix20x20;
#X obj 424 -48 matrix_containers 20;
#X msg 136 -64 name pepepe;
#X msg 217 -45 name 0;
#X msg 86 33 name todos;
#X obj 12 -137 output_clip~;
#X connect 0 0 4 0;
#X connect 2 0 1 0;
#X connect 4 0 3 0;
#X connect 10 0 17 0;
#X connect 11 0 17 1;
#X connect 14 0 3 0;
#X connect 15 0 3 0;
#X connect 16 0 3 0;
