#N canvas 900 486 972 454 10;
#X declare -path extras;
#X declare -path extras/state_manager;
#X declare -path extras/osclearn;
#X declare -lib pdcontainer;
#X declare -lib pdcontainer;
#X declare -lib pdcontainer;
#X declare -lib pdcontainer;
#X declare -lib pdcontainer;
#X declare -lib pdcontainer;
#X declare -lib pdcontainer;
#X declare -path extras/state_manager;
#X declare -lib pdcontainer;
#X declare -lib pdcontainer;
#X declare -lib pdcontainer;
#X declare -lib pdcontainer;
#X declare -lib pdcontainer;
#X declare -lib pdcontainer;
#X declare -lib pdcontainer;
#X declare -lib pdcontainer;
#X declare -lib pdcontainer;
#X declare -path extras/state_manager;
#X declare -lib pdcontainer;
#X declare -lib pdcontainer;
#X declare -lib pdcontainer;
#X declare -lib pdcontainer;
#X declare -lib pdcontainer;
#X declare -lib pdcontainer;
#X declare -lib pdcontainer;
#X declare -lib pdcontainer;
#X declare -lib pdcontainer;
#X declare -path extras/state_manager;
#X declare -lib pdcontainer;
#X declare -lib pdcontainer;
#X declare -lib pdcontainer;
#X declare -lib pdcontainer;
#X declare -lib pdcontainer;
#X declare -lib pdcontainer;
#X declare -lib pdcontainer;
#X declare -lib pdcontainer;
#X declare -lib pdcontainer;
#X declare -path extras/state_manager;
#X declare -lib pdcontainer;
#X declare -lib pdcontainer;
#X declare -lib pdcontainer;
#X declare -lib pdcontainer;
#X declare -lib pdcontainer;
#X declare -lib pdcontainer;
#X declare -lib pdcontainer;
#X declare -lib pdcontainer;
#X declare -lib pdcontainer;
#X declare -path extras/state_manager;
#X declare -lib pdcontainer;
#X declare -lib pdcontainer;
#X declare -lib pdcontainer;
#X declare -lib pdcontainer;
#X declare -lib pdcontainer;
#X declare -lib pdcontainer;
#X declare -lib pdcontainer;
#X declare -lib pdcontainer;
#X declare -lib pdcontainer;
#X declare -path extras/state_manager;
#X declare -lib pdcontainer;
#X declare -lib pdcontainer;
#X declare -lib pdcontainer;
#X declare -lib pdcontainer;
#X declare -lib pdcontainer;
#X declare -lib pdcontainer;
#X declare -lib pdcontainer;
#X declare -lib pdcontainer;
#X declare -lib pdcontainer;
#X declare -path extras/state_manager;
#X declare -lib pdcontainer;
#X declare -lib pdcontainer;
#X declare -lib pdcontainer;
#X declare -lib pdcontainer;
#X declare -lib pdcontainer;
#X declare -lib pdcontainer;
#X declare -lib pdcontainer;
#X declare -lib pdcontainer;
#X declare -lib pdcontainer;
#X declare -path extras/state_manager;
#X declare -lib pdcontainer;
#X declare -lib pdcontainer;
#X declare -lib pdcontainer;
#X declare -lib pdcontainer;
#X declare -lib pdcontainer;
#X declare -lib pdcontainer;
#X declare -lib pdcontainer;
#X declare -lib pdcontainer;
#X declare -lib pdcontainer;
#X declare -path extras/state_manager;
#X declare -lib pdcontainer;
#X declare -lib pdcontainer;
#X declare -lib pdcontainer;
#X declare -lib pdcontainer;
#X declare -lib pdcontainer;
#X declare -lib pdcontainer;
#X declare -lib pdcontainer;
#X declare -lib pdcontainer;
#X declare -lib pdcontainer;
#X declare -path extras/state_manager;
#X declare -lib pdcontainer;
#X declare -lib pdcontainer;
#X declare -lib pdcontainer;
#X declare -lib pdcontainer;
#X declare -lib pdcontainer;
#X declare -lib pdcontainer;
#X declare -lib pdcontainer;
#X declare -lib pdcontainer;
#X declare -lib pdcontainer;
#X declare -path extras/state_manager;
#X declare -lib pdcontainer;
#X declare -lib pdcontainer;
#X declare -lib pdcontainer;
#X declare -lib pdcontainer;
#X declare -lib pdcontainer;
#X declare -lib pdcontainer;
#X declare -lib pdcontainer;
#X declare -lib pdcontainer;
#X declare -lib pdcontainer;
#X declare -lib pdcontainer;
#X declare -lib pdcontainer;
#X declare -lib pdcontainer;
#X declare -lib pdcontainer;
#X declare -lib pdcontainer -lib tof;
#X msg -155 255 setP \$1 \$2;
#X obj -76 -62 r sitt;
#X obj 144 -121 path extras;
#X obj -155 277 s sitt;
#X obj -5 256 PRINT;
#X obj -158 -64 ode_fx sitt;
#X obj -71 -94 r~ sitt_input;
#X obj -76 -37 ode_rk4~ ode_libs/linux64 sitt;
#X obj 144 -101 path extras/state_manager;
#X obj 144 -81 path extras/osclearn;
#X obj -155 195 ode_multihslider sitt/a sitt/b sitt/g;
#X obj -155 46 ode_multihslider sitt/osc/freq sitt/osc/amp sitt/noise/amp
sitt/noise/fc sitt/delay/time sitt/delay/amp sitt/input sitt/output
;
#X msg -84 255 setX 0 1;
#X obj -157 -94 r~ ode_sitt.0;
#X obj -77 8 s~ ode_sitt.0;
#X obj 9 7 s~ ode_sitt.1;
#X obj -76 -15 *~;
#X obj 8 -15 *~;
#X obj 100 -13 line;
#X obj 186 -13 r /sitt/output/value;
#X msg 134 -13 \$1 100;
#X obj 397 -33 ode_gem_scope sitt;
#X obj 565 69 gem.control;
#X obj 400 -81 output~;
#X obj 399 -140 r~ ode_sitt.0;
#X obj 485 -141 r~ ode_sitt.1;
#X obj 99 8 s~ ode_sitt.2;
#X obj -72 -118 s~ sitt_input;
#X obj -270 -2 snaps~;
#X obj -272 25 snaps~;
#X obj 346 113 state_manager;
#X msg 347 93 ../../presets/sitt;
#X obj 399 -113 clip~ -1 1;
#X obj 468 -104 clip~ -1 1;
#X connect 0 0 3 0;
#X connect 1 0 7 0;
#X connect 5 0 7 0;
#X connect 6 0 5 1;
#X connect 7 0 16 0;
#X connect 7 1 17 0;
#X connect 10 0 0 0;
#X connect 10 0 4 0;
#X connect 12 0 3 0;
#X connect 13 0 5 0;
#X connect 16 0 14 0;
#X connect 16 0 28 0;
#X connect 17 0 15 0;
#X connect 17 0 29 0;
#X connect 18 0 17 1;
#X connect 19 0 20 0;
#X connect 20 0 18 0;
#X connect 24 0 32 0;
#X connect 25 0 33 0;
#X connect 31 0 30 0;
#X connect 32 0 23 0;
#X connect 33 0 23 1;
