#N canvas 290 752 1750 970 10;
#X declare -lib pdcontainer -lib tof;
#X declare -lib pdcontainer;
#X declare -lib pdcontainer;
#X declare -lib pdcontainer;
#X declare -lib pdcontainer;
#X declare -lib pdcontainer;
#X declare -lib pdcontainer;
#X declare -lib pdcontainer;
#X declare -lib pdcontainer;
#X declare -lib pdcontainer;
#X declare -lib pdcontainer;
#X declare -lib pdcontainer;
#X declare -lib pdcontainer;
#X declare -lib pdcontainer;
#X declare -lib pdcontainer;
#X declare -lib pdcontainer;
#X declare -lib pdcontainer;
#X declare -lib pdcontainer;
#X declare -lib pdcontainer;
#X declare -lib pdcontainer;
#X declare -lib pdcontainer;
#X declare -lib pdcontainer;
#X declare -lib pdcontainer;
#X declare -lib pdcontainer;
#X declare -lib pdcontainer;
#X obj 29 78 ode_rk4~ ode_libs hopf;
#X obj 1461 -24 state_manager;
#X obj 295 -75 multislider ep omega;
#X obj 1687 -21 control_gem;
#X msg 295 172 setP \$1 \$2;
#X obj 29 22 r hopf;
#X obj 295 194 s hopf;
#X msg 365 172 setX 1 1;
#X obj 449 -78 extras/ode_fx hopf;
#X obj 29 52 catch~ hopf_in_0;
#X obj 157 51 catch~ hopf_in_1;
#X obj 28 103 s~ hopf_out_0;
#X obj 158 102 s~ hopf_out_1;
#X obj 878 4 r~ hopf_out_0;
#X obj 978 4 r~ hopf_out_1;
#X obj 1114 21 r~ hopf_out_0;
#X obj 1214 21 r~ hopf_out_1;
#X obj 1113 60 output~;
#X obj -15 383 ode_rk4~ ode_libs Lorenz;
#X obj 83 408 s~ Lorenz_out_1;
#X obj -16 408 s~ Lorenz_out_0;
#X obj -15 358 catch~ Lorenz_in_0;
#X obj -15 327 r Lorenz;
#X obj 454 231 extras/ode_fx Lorenz;
#X msg 295 480 setP \$1 \$2;
#X obj 295 502 s Lorenz;
#X obj 295 232 multislider r b tau;
#X obj 866 266 gem.scope;
#X obj 866 236 r~ Lorenz_out_0;
#X obj 967 236 r~ Lorenz_out_1;
#X obj 187 408 s~ Lorenz_out_2;
#X obj 1069 235 r~ Lorenz_out_2;
#X msg 365 480 setX 1 1 1;
#X obj 1112 268 r~ Lorenz_out_1;
#X obj 1211 268 r~ Lorenz_out_2;
#X obj 1113 308 output~;
#X obj 878 34 gem.scope;
#X obj -1 581 ode_rk4~ ode_libs bogdanovtakens;
#X obj -1 555 catch~ bogdanovtakens_in_0;
#X obj -2 606 s~ bogdanovtakens_out_0;
#X obj 152 606 s~ bogdanovtakens_out_1;
#X obj 302 555 multislider bt_a bt_c bt_tau;
#X msg 1461 -61 /home/miles/Copy/Osciladores_no_lineales/ode_synth_v3/presets
;
#X obj 852 654 gem.scope;
#X obj 841 594 r~ bogdanovtakens_out_0;
#X obj 995 594 r~ bogdanovtakens_out_1;
#X obj 1113 788 output~;
#X obj 1110 713 r~ bogdanovtakens_out_0;
#X obj 1264 713 r~ bogdanovtakens_out_1;
#X msg 302 804 setP \$1 \$2;
#X obj -1 525 r bogdanovtakens;
#X obj 302 866 s bogdanovtakens;
#X obj 450 556 extras/ode_fx bogdanovtakens;
#X obj 434 828 metrum 200 1;
#X obj 433 881 pack f f;
#X msg 433 905 setX \$1 \$2;
#X obj 433 860 nbx 5 14 -1e+37 1e+37 0 0 empty empty empty 0 -8 0 10
-262144 -1 -1 0 256;
#X obj 495 861 nbx 5 14 -1e+37 1e+37 0 0 empty empty empty 0 -8 0 10
-262144 -1 -1 0 256;
#X obj 433 931 s bogdanovtakens;
#X connect 0 0 11 0;
#X connect 0 1 12 0;
#X connect 2 0 4 0;
#X connect 4 0 6 0;
#X connect 5 0 0 0;
#X connect 7 0 6 0;
#X connect 9 0 0 0;
#X connect 10 0 0 1;
#X connect 13 0 36 0;
#X connect 14 0 36 1;
#X connect 15 0 17 0;
#X connect 16 0 17 1;
#X connect 18 0 20 0;
#X connect 18 1 19 0;
#X connect 18 2 30 0;
#X connect 21 0 18 0;
#X connect 22 0 18 0;
#X connect 24 0 25 0;
#X connect 26 0 24 0;
#X connect 28 0 27 0;
#X connect 29 0 27 1;
#X connect 31 0 27 2;
#X connect 32 0 25 0;
#X connect 33 0 35 0;
#X connect 34 0 35 1;
#X connect 37 0 39 0;
#X connect 37 1 40 0;
#X connect 38 0 37 0;
#X connect 41 0 49 0;
#X connect 42 0 1 0;
#X connect 44 0 43 0;
#X connect 45 0 43 1;
#X connect 47 0 46 0;
#X connect 48 0 46 1;
#X connect 49 0 51 0;
#X connect 50 0 37 0;
#X connect 53 0 54 0;
#X connect 54 0 55 0;
#X connect 55 0 58 0;
#X connect 56 0 54 0;
#X connect 57 0 54 1;
