#N canvas 262 94 800 533 10;
#X obj -3 6 tgl 15 1 empty empty Hopf 17 7 0 10 -262144 -1 -1 1 1;
#X obj 143 5 switch~;
#X obj 0 448 nbx 5 14 -1e+37 1e+37 0 1 empty empty empty 0 -8 0 10 -262144 -1 -1 0 256;
#X obj 232 541 nbx 5 14 -1e+37 1e+37 0 1 empty empty empty 0 -8 0 10 -262144 -1 -1 0.1 256;
#X obj 0 404 nbx 5 14 -1e+37 1e+37 0 1 empty empty empty 0 -8 0 10 -262144 -1 -1 0 256;
#X obj 0 495 nbx 5 14 -1e+37 1e+37 0 1 empty empty empty 0 -8 0 10 -262144 -1 -1 0 256;
#X obj 231 448 nbx 5 14 -1e+37 1e+37 0 1 empty empty empty 0 -8 0 10 -262144 -1 -1 0 256;
#X obj 232 404 nbx 5 14 -1e+37 1e+37 0 1 empty empty empty 0 -8 0 10 -262144 -1 -1 0 256;
#X obj 233 495 nbx 5 14 -1e+37 1e+37 0 1 empty empty empty 0 -8 0 10 -262144 -1 -1 0 256;
#X obj 2 422 s gem_scope_shift_x_Hopf\$1;
#X obj 3 513 s gem_scope_shift_z_Hopf\$1;
#X obj 1 466 s gem_scope_shift_x_Hopf\$1;
#X obj 232 422 s gem_scope_size_x_Hopf\$1;
#X obj 231 465 s gem_scope_size_y_Hopf\$1;
#X obj 233 513 s gem_scope_size_z_Hopf\$1;
#X obj 232 559 s gem_scope_scale_Hopf\$1;
#X obj 0 872 ode_rk4~ . Hopf;
#X obj 0 771 r Hopf\$1_set;
#X obj 0 817 r setP_Hopf\$1;
#X msg 0 839 setP \$1 \$2;
#X msg 0 795 setX \$1 \$2;
#X obj 4 260 bng 15 250 50 0 empty empty Set 17 7 0 10 -262144 -1 -1;
#X obj 0 334 f;
#X obj 0 356 pack f f ;
#X obj 0 378 s Hopf\$1_set;
#X obj 5 280 nbx 3 14 -1e+37 1e+37 0 1 empty empty empty 0 -8 0 10 -262144 -1 -1 0 256;
#X obj 5 295 nbx 3 14 -1e+37 1e+37 0 1 empty empty empty 0 -8 0 10 -262144 -1 -1 0 256;
#X obj 0 598 inlet~ in_0;
#X obj 0 620 throw~ Hopf\$1_in_0;
#X obj 0 736 catch~ Hopf\$1_in_0;
#X obj 0 644 ode_ctl_mapper Hopf\$1_param_0;
#X obj 0 667 r Hopf\$1_param_0_mapped;
#X msg 0 690 0 \$1;
#X obj 0 710 s setP_Hopf\$1;
#X obj 230 644 ode_ctl_mapper Hopf\$1_param_1;
#X obj 230 667 r Hopf\$1_param_1_mapped;
#X msg 230 690 1 \$1;
#X obj 230 710 s setP_Hopf\$1;
#X obj 0 893 s~ Hopf\$1_out_0;
#X obj 0 923 throw~ gem_Hopf\$1_out_0;
#X obj 0 962 r~ Hopf\$1_out_0;
#X obj 0 994 outlet~ out_0;
#X obj 230 893 s~ Hopf\$1_out_1;
#X obj 230 923 throw~ gem_Hopf\$1_out_1;
#X obj 230 962 r~ Hopf\$1_out_1;
#X obj 230 994 outlet~ out_1;
#X obj 0 540 oscilloscope3 Hopf\$1;
#X text 0 20 w;
#X obj 0 41 nbx 4 14 -1e+37 1e+37 0 1 Hopf\$1_param_0_max empty empty 0 -8 0 8 -262144 -1 -1 28 256;
#X obj 0 56 nbx 4 14 -1e+37 1e+37 0 1 Hopf\$1_param_0_min empty empty 0 -8 0 8 -262144 -1 -1 0 256;
#X obj 0 74 vsl 38 115 0 1 0 1 Hopf\$1_param_0 ctl_Hopf\$1_param_0 empty 0 -9 0 10 -262144 -1 -1 10843 1;
#X obj 0 196 tgl 38 1 Hopf\$1_param_0_togg ctl_Hopf\$1_param_0_togg empty 17 7 0 10 -262144 -1 -1 1 1;
#X obj 0 238 hradio 18 1 1 2 fader_Hopf\$1_param_0 empty empty 0 -8 0 10 -262144 -1 -1 0;
#X text 42 20 e;
#X obj 42 41 nbx 4 14 -1e+37 1e+37 0 1 Hopf\$1_param_1_max empty empty 0 -8 0 8 -262144 -1 -1 28 256;
#X obj 42 56 nbx 4 14 -1e+37 1e+37 0 1 Hopf\$1_param_1_min empty empty 0 -8 0 8 -262144 -1 -1 0 256;
#X obj 42 74 vsl 38 115 0 1 0 1 Hopf\$1_param_1 ctl_Hopf\$1_param_1 empty 0 -9 0 10 -262144 -1 -1 10843 1;
#X obj 42 196 tgl 38 1 Hopf\$1_param_1_togg ctl_Hopf\$1_param_1_togg empty 17 7 0 10 -262144 -1 -1 1 1;
#X obj 42 238 hradio 18 1 1 2 fader_Hopf\$1_param_1 empty empty 0 -8 0 10 -262144 -1 -1 0;
#X coords 0 -1 1 1 104 330 2 -5 0;
#X connect 0 0 1 0;
#X connect 2 0 11 0;
#X connect 3 0 15 0;
#X connect 4 0 9 0;
#X connect 5 0 10 0;
#X connect 6 0 13 0;
#X connect 7 0 12 0;
#X connect 8 0 14 0;
#X connect 17 0 20 0;
#X connect 18 0 19 0;
#X connect 19 0 16 0;
#X connect 20 0 16 0;
#X connect 21 0 22 0;
#X connect 22 0 23 0;
#X connect 23 0 24 0;
#X connect 28 0 29 0;
#X connect 30 0 16 0;
#X connect 32 0 33 0;
#X connect 33 0 34 0;
#X connect 36 0 37 0;
#X connect 37 0 38 0;
#X connect 16 0 39 0;
#X connect 16 0 40 0;
#X connect 41 0 42 0;
#X connect 25 0 22 1;
#X connect 16 1 43 0;
#X connect 16 1 44 0;
#X connect 45 0 46 0;
#X connect 25 0 22 1;
#X connect 26 0 23 1;
