#N canvas 262 94 800 533 10;
#X obj -3 6 tgl 15 1 empty empty Hr 17 7 0 10 -262144 -1 -1 1 1;
#X obj 143 5 switch~;
#X obj 0 448 nbx 5 14 -1e+37 1e+37 0 1 empty empty empty 0 -8 0 10 -262144 -1 -1 0 256;
#X obj 232 541 nbx 5 14 -1e+37 1e+37 0 1 empty empty empty 0 -8 0 10 -262144 -1 -1 0.1 256;
#X obj 0 404 nbx 5 14 -1e+37 1e+37 0 1 empty empty empty 0 -8 0 10 -262144 -1 -1 0 256;
#X obj 0 495 nbx 5 14 -1e+37 1e+37 0 1 empty empty empty 0 -8 0 10 -262144 -1 -1 0 256;
#X obj 231 448 nbx 5 14 -1e+37 1e+37 0 1 empty empty empty 0 -8 0 10 -262144 -1 -1 0 256;
#X obj 232 404 nbx 5 14 -1e+37 1e+37 0 1 empty empty empty 0 -8 0 10 -262144 -1 -1 0 256;
#X obj 233 495 nbx 5 14 -1e+37 1e+37 0 1 empty empty empty 0 -8 0 10 -262144 -1 -1 0 256;
#X obj 2 422 s gem_scope_shift_x_Hr\$1;
#X obj 3 513 s gem_scope_shift_z_Hr\$1;
#X obj 1 466 s gem_scope_shift_x_Hr\$1;
#X obj 232 422 s gem_scope_size_x_Hr\$1;
#X obj 231 465 s gem_scope_size_y_Hr\$1;
#X obj 233 513 s gem_scope_size_z_Hr\$1;
#X obj 232 559 s gem_scope_scale_Hr\$1;
#X obj 0 872 ode_rk4~ . Hr;
#X obj 0 771 r Hr\$1_set;
#X obj 0 817 r setP_Hr\$1;
#X msg 0 839 setP \$1 \$2;
#X msg 0 795 setX \$1 \$2 \$3;
#X obj 4 260 bng 15 250 50 0 empty empty Set 17 7 0 10 -262144 -1 -1;
#X obj 0 334 f;
#X obj 0 356 pack f f f ;
#X obj 0 378 s Hr\$1_set;
#X obj 5 280 nbx 3 14 -1e+37 1e+37 0 1 empty empty empty 0 -8 0 10 -262144 -1 -1 0 256;
#X obj 5 295 nbx 3 14 -1e+37 1e+37 0 1 empty empty empty 0 -8 0 10 -262144 -1 -1 0 256;
#X obj 5 310 nbx 3 14 -1e+37 1e+37 0 1 empty empty empty 0 -8 0 10 -262144 -1 -1 0 256;
#X obj 0 598 inlet~ in_0;
#X obj 0 620 throw~ Hr\$1_in_0;
#X obj 0 736 catch~ Hr\$1_in_0;
#X obj 0 644 ode_ctl_mapper Hr\$1_param_0;
#X obj 0 667 r Hr\$1_param_0_mapped;
#X msg 0 690 0 \$1;
#X obj 0 710 s setP_Hr\$1;
#X obj 230 644 ode_ctl_mapper Hr\$1_param_1;
#X obj 230 667 r Hr\$1_param_1_mapped;
#X msg 230 690 1 \$1;
#X obj 230 710 s setP_Hr\$1;
#X obj 460 644 ode_ctl_mapper Hr\$1_param_2;
#X obj 460 667 r Hr\$1_param_2_mapped;
#X msg 460 690 2 \$1;
#X obj 460 710 s setP_Hr\$1;
#X obj 690 644 ode_ctl_mapper Hr\$1_param_3;
#X obj 690 667 r Hr\$1_param_3_mapped;
#X msg 690 690 3 \$1;
#X obj 690 710 s setP_Hr\$1;
#X obj 920 644 ode_ctl_mapper Hr\$1_param_4;
#X obj 920 667 r Hr\$1_param_4_mapped;
#X msg 920 690 4 \$1;
#X obj 920 710 s setP_Hr\$1;
#X obj 1150 644 ode_ctl_mapper Hr\$1_param_5;
#X obj 1150 667 r Hr\$1_param_5_mapped;
#X msg 1150 690 5 \$1;
#X obj 1150 710 s setP_Hr\$1;
#X obj 1380 644 ode_ctl_mapper Hr\$1_param_6;
#X obj 1380 667 r Hr\$1_param_6_mapped;
#X msg 1380 690 6 \$1;
#X obj 1380 710 s setP_Hr\$1;
#X obj 1610 644 ode_ctl_mapper Hr\$1_param_7;
#X obj 1610 667 r Hr\$1_param_7_mapped;
#X msg 1610 690 7 \$1;
#X obj 1610 710 s setP_Hr\$1;
#X obj 0 893 s~ Hr\$1_out_0;
#X obj 0 923 throw~ gem_Hr\$1_out_0;
#X obj 0 962 r~ Hr\$1_out_0;
#X obj 0 994 outlet~ out_0;
#X obj 230 893 s~ Hr\$1_out_1;
#X obj 230 923 throw~ gem_Hr\$1_out_1;
#X obj 230 962 r~ Hr\$1_out_1;
#X obj 230 994 outlet~ out_1;
#X obj 460 893 s~ Hr\$1_out_2;
#X obj 460 923 throw~ gem_Hr\$1_out_2;
#X obj 460 962 r~ Hr\$1_out_2;
#X obj 460 994 outlet~ out_2;
#X obj 0 540 oscilloscope3 Hr\$1;
#X text 0 20 a;
#X obj 0 41 nbx 4 14 -1e+37 1e+37 0 1 Hr\$1_param_0_max empty empty 0 -8 0 8 -262144 -1 -1 28 256;
#X obj 0 56 nbx 4 14 -1e+37 1e+37 0 1 Hr\$1_param_0_min empty empty 0 -8 0 8 -262144 -1 -1 0 256;
#X obj 0 74 vsl 38 115 0 1 0 1 Hr\$1_param_0 ctl_Hr\$1_param_0 empty 0 -9 0 10 -262144 -1 -1 10843 1;
#X obj 0 196 tgl 38 1 Hr\$1_param_0_togg ctl_Hr\$1_param_0_togg empty 17 7 0 10 -262144 -1 -1 1 1;
#X obj 0 238 hradio 18 1 1 2 fader_Hr\$1_param_0 empty empty 0 -8 0 10 -262144 -1 -1 0;
#X text 42 20 b;
#X obj 42 41 nbx 4 14 -1e+37 1e+37 0 1 Hr\$1_param_1_max empty empty 0 -8 0 8 -262144 -1 -1 28 256;
#X obj 42 56 nbx 4 14 -1e+37 1e+37 0 1 Hr\$1_param_1_min empty empty 0 -8 0 8 -262144 -1 -1 0 256;
#X obj 42 74 vsl 38 115 0 1 0 1 Hr\$1_param_1 ctl_Hr\$1_param_1 empty 0 -9 0 10 -262144 -1 -1 10843 1;
#X obj 42 196 tgl 38 1 Hr\$1_param_1_togg ctl_Hr\$1_param_1_togg empty 17 7 0 10 -262144 -1 -1 1 1;
#X obj 42 238 hradio 18 1 1 2 fader_Hr\$1_param_1 empty empty 0 -8 0 10 -262144 -1 -1 0;
#X text 84 20 c;
#X obj 84 41 nbx 4 14 -1e+37 1e+37 0 1 Hr\$1_param_2_max empty empty 0 -8 0 8 -262144 -1 -1 28 256;
#X obj 84 56 nbx 4 14 -1e+37 1e+37 0 1 Hr\$1_param_2_min empty empty 0 -8 0 8 -262144 -1 -1 0 256;
#X obj 84 74 vsl 38 115 0 1 0 1 Hr\$1_param_2 ctl_Hr\$1_param_2 empty 0 -9 0 10 -262144 -1 -1 10843 1;
#X obj 84 196 tgl 38 1 Hr\$1_param_2_togg ctl_Hr\$1_param_2_togg empty 17 7 0 10 -262144 -1 -1 1 1;
#X obj 84 238 hradio 18 1 1 2 fader_Hr\$1_param_2 empty empty 0 -8 0 10 -262144 -1 -1 0;
#X text 126 20 d;
#X obj 126 41 nbx 4 14 -1e+37 1e+37 0 1 Hr\$1_param_3_max empty empty 0 -8 0 8 -262144 -1 -1 28 256;
#X obj 126 56 nbx 4 14 -1e+37 1e+37 0 1 Hr\$1_param_3_min empty empty 0 -8 0 8 -262144 -1 -1 0 256;
#X obj 126 74 vsl 38 115 0 1 0 1 Hr\$1_param_3 ctl_Hr\$1_param_3 empty 0 -9 0 10 -262144 -1 -1 10843 1;
#X obj 126 196 tgl 38 1 Hr\$1_param_3_togg ctl_Hr\$1_param_3_togg empty 17 7 0 10 -262144 -1 -1 1 1;
#X obj 126 238 hradio 18 1 1 2 fader_Hr\$1_param_3 empty empty 0 -8 0 10 -262144 -1 -1 0;
#X text 168 20 r;
#X obj 168 41 nbx 4 14 -1e+37 1e+37 0 1 Hr\$1_param_4_max empty empty 0 -8 0 8 -262144 -1 -1 28 256;
#X obj 168 56 nbx 4 14 -1e+37 1e+37 0 1 Hr\$1_param_4_min empty empty 0 -8 0 8 -262144 -1 -1 0 256;
#X obj 168 74 vsl 38 115 0 1 0 1 Hr\$1_param_4 ctl_Hr\$1_param_4 empty 0 -9 0 10 -262144 -1 -1 10843 1;
#X obj 168 196 tgl 38 1 Hr\$1_param_4_togg ctl_Hr\$1_param_4_togg empty 17 7 0 10 -262144 -1 -1 1 1;
#X obj 168 238 hradio 18 1 1 2 fader_Hr\$1_param_4 empty empty 0 -8 0 10 -262144 -1 -1 0;
#X text 210 20 s;
#X obj 210 41 nbx 4 14 -1e+37 1e+37 0 1 Hr\$1_param_5_max empty empty 0 -8 0 8 -262144 -1 -1 28 256;
#X obj 210 56 nbx 4 14 -1e+37 1e+37 0 1 Hr\$1_param_5_min empty empty 0 -8 0 8 -262144 -1 -1 0 256;
#X obj 210 74 vsl 38 115 0 1 0 1 Hr\$1_param_5 ctl_Hr\$1_param_5 empty 0 -9 0 10 -262144 -1 -1 10843 1;
#X obj 210 196 tgl 38 1 Hr\$1_param_5_togg ctl_Hr\$1_param_5_togg empty 17 7 0 10 -262144 -1 -1 1 1;
#X obj 210 238 hradio 18 1 1 2 fader_Hr\$1_param_5 empty empty 0 -8 0 10 -262144 -1 -1 0;
#X text 252 20 xr;
#X obj 252 41 nbx 4 14 -1e+37 1e+37 0 1 Hr\$1_param_6_max empty empty 0 -8 0 8 -262144 -1 -1 28 256;
#X obj 252 56 nbx 4 14 -1e+37 1e+37 0 1 Hr\$1_param_6_min empty empty 0 -8 0 8 -262144 -1 -1 0 256;
#X obj 252 74 vsl 38 115 0 1 0 1 Hr\$1_param_6 ctl_Hr\$1_param_6 empty 0 -9 0 10 -262144 -1 -1 10843 1;
#X obj 252 196 tgl 38 1 Hr\$1_param_6_togg ctl_Hr\$1_param_6_togg empty 17 7 0 10 -262144 -1 -1 1 1;
#X obj 252 238 hradio 18 1 1 2 fader_Hr\$1_param_6 empty empty 0 -8 0 10 -262144 -1 -1 0;
#X text 294 20 tau;
#X obj 294 41 nbx 4 14 -1e+37 1e+37 0 1 Hr\$1_param_7_max empty empty 0 -8 0 8 -262144 -1 -1 28 256;
#X obj 294 56 nbx 4 14 -1e+37 1e+37 0 1 Hr\$1_param_7_min empty empty 0 -8 0 8 -262144 -1 -1 0 256;
#X obj 294 74 vsl 38 115 0 1 0 1 Hr\$1_param_7 ctl_Hr\$1_param_7 empty 0 -9 0 10 -262144 -1 -1 10843 1;
#X obj 294 196 tgl 38 1 Hr\$1_param_7_togg ctl_Hr\$1_param_7_togg empty 17 7 0 10 -262144 -1 -1 1 1;
#X obj 294 238 hradio 18 1 1 2 fader_Hr\$1_param_7 empty empty 0 -8 0 10 -262144 -1 -1 0;
#X coords 0 -1 1 1 356 330 2 -5 0;
#X connect 0 0 1 0;
#X connect 2 0 11 0;
#X connect 3 0 15 0;
#X connect 4 0 9 0;
#X connect 5 0 10 0;
#X connect 6 0 13 0;
#X connect 7 0 12 0;
#X connect 8 0 14 0;
#X connect 17 0 20 0;
#X connect 18 0 19 0;
#X connect 19 0 16 0;
#X connect 20 0 16 0;
#X connect 21 0 22 0;
#X connect 22 0 23 0;
#X connect 23 0 24 0;
#X connect 28 0 29 0;
#X connect 30 0 16 0;
#X connect 32 0 33 0;
#X connect 33 0 34 0;
#X connect 36 0 37 0;
#X connect 37 0 38 0;
#X connect 40 0 41 0;
#X connect 41 0 42 0;
#X connect 44 0 45 0;
#X connect 45 0 46 0;
#X connect 48 0 49 0;
#X connect 49 0 50 0;
#X connect 52 0 53 0;
#X connect 53 0 54 0;
#X connect 56 0 57 0;
#X connect 57 0 58 0;
#X connect 60 0 61 0;
#X connect 61 0 62 0;
#X connect 16 0 63 0;
#X connect 16 0 64 0;
#X connect 65 0 66 0;
#X connect 25 0 22 1;
#X connect 16 1 67 0;
#X connect 16 1 68 0;
#X connect 69 0 70 0;
#X connect 25 0 22 1;
#X connect 16 2 71 0;
#X connect 16 2 72 0;
#X connect 73 0 74 0;
#X connect 25 0 22 1;
#X connect 26 0 23 1;
#X connect 27 0 23 2;
