#N canvas 497 182 855 300 10;
#X declare -lib pdcontainer;
#X declare -lib pdcontainer;
#X obj 101 102 vsl 15 80 0 127 0 0 empty empty empty 0 -9 0 10 -262144
-1 -1 0 1;
#X obj 101 203 outlet;
#X obj 101 67 inlet;
#X obj 116 102 vsl 15 80 0 127 0 0 empty empty empty 0 -9 0 10 -262144
-1 -1 0 1;
#X obj 147 68 inlet;
#X obj 146 204 outlet;
#X msg 184 172 set \$1;
#X msg 185 127 set \$1;
#X obj 407 69 inlet;
#X msg 624 212 /\$1/valor1;
#X msg 702 212 /\$1/valor2;
#X obj 624 66 loadbang;
#X msg 418 131 /\$1/valor1;
#X msg 492 131 /\$1/valor2;
#X obj 447 102 symbol;
#X obj 624 111 symbol2list;
#X obj 624 88 symbol \$2;
#X obj 624 135 length;
#X obj 447 69 r objeto2_\$1;
#X obj 296 78 r \$0_label_1;
#X obj 295 127 r \$0_label_2;
#X obj 418 154 s \$0_label_1;
#X obj 496 154 s \$0_label_2;
#X obj 624 239 s \$0_label_1;
#X obj 702 239 s \$0_label_2;
#X obj 184 151 state_io /\$1/valor2;
#X obj 624 158 sel 1;
#X obj 624 185 symbol \$2;
#X obj 185 104 state_io /\$1/valor1;
#X connect 0 0 1 0;
#X connect 0 0 28 0;
#X connect 2 0 0 0;
#X connect 3 0 5 0;
#X connect 3 0 25 0;
#X connect 4 0 3 0;
#X connect 6 0 3 0;
#X connect 7 0 0 0;
#X connect 8 0 14 0;
#X connect 9 0 23 0;
#X connect 10 0 24 0;
#X connect 11 0 16 0;
#X connect 12 0 21 0;
#X connect 13 0 22 0;
#X connect 14 0 12 0;
#X connect 14 0 13 0;
#X connect 15 0 17 0;
#X connect 16 0 15 0;
#X connect 17 0 26 0;
#X connect 18 0 14 0;
#X connect 19 0 28 1;
#X connect 20 0 25 1;
#X connect 25 0 6 0;
#X connect 26 0 27 0;
#X connect 27 0 9 0;
#X connect 27 0 10 0;
#X connect 28 0 7 0;
#X coords 0 -1 1 1 32 85 2 100 100;
