#N canvas 957 205 1053 549 10;
#X declare -lib pdcontainer -lib tof;
#X declare -path extras;
#X declare -path extras/state_manager;
#X declare -path extras/osclearn;
#X declare -lib pdcontainer;
#X declare -lib pdcontainer;
#X declare -lib pdcontainer;
#X declare -lib pdcontainer;
#X declare -lib pdcontainer;
#X declare -lib pdcontainer;
#X declare -lib pdcontainer;
#X declare -path extras/state_manager;
#X declare -lib pdcontainer;
#X declare -lib pdcontainer;
#X declare -lib pdcontainer;
#X declare -lib pdcontainer;
#X declare -lib pdcontainer;
#X declare -lib pdcontainer;
#X declare -lib pdcontainer;
#X declare -lib pdcontainer;
#X declare -lib pdcontainer;
#X declare -path extras/state_manager;
#X declare -lib pdcontainer;
#X declare -lib pdcontainer;
#X declare -lib pdcontainer;
#X declare -lib pdcontainer;
#X declare -lib pdcontainer;
#X declare -lib pdcontainer;
#X declare -lib pdcontainer;
#X declare -lib pdcontainer;
#X declare -lib pdcontainer;
#X declare -path extras/state_manager;
#X declare -lib pdcontainer;
#X declare -lib pdcontainer;
#X declare -lib pdcontainer;
#X declare -lib pdcontainer;
#X declare -lib pdcontainer;
#X declare -lib pdcontainer;
#X declare -lib pdcontainer;
#X declare -lib pdcontainer;
#X declare -lib pdcontainer;
#X declare -path extras/state_manager;
#X declare -lib pdcontainer;
#X declare -lib pdcontainer;
#X declare -lib pdcontainer;
#X declare -lib pdcontainer;
#X declare -lib pdcontainer;
#X declare -lib pdcontainer;
#X declare -lib pdcontainer;
#X declare -lib pdcontainer;
#X declare -lib pdcontainer;
#X declare -path extras/state_manager;
#X declare -lib pdcontainer;
#X declare -lib pdcontainer;
#X declare -lib pdcontainer;
#X declare -lib pdcontainer;
#X declare -lib pdcontainer;
#X declare -lib pdcontainer;
#X declare -lib pdcontainer;
#X declare -lib pdcontainer;
#X declare -lib pdcontainer;
#X declare -path extras/state_manager;
#X declare -lib pdcontainer;
#X declare -lib pdcontainer;
#X declare -lib pdcontainer;
#X declare -lib pdcontainer;
#X declare -lib pdcontainer;
#X declare -lib pdcontainer;
#X declare -lib pdcontainer;
#X declare -lib pdcontainer;
#X declare -lib pdcontainer;
#X declare -path extras/state_manager;
#X declare -lib pdcontainer;
#X declare -lib pdcontainer;
#X declare -lib pdcontainer;
#X declare -lib pdcontainer;
#X declare -lib pdcontainer;
#X declare -lib pdcontainer;
#X declare -lib pdcontainer;
#X declare -lib pdcontainer;
#X declare -lib pdcontainer;
#X declare -path extras/state_manager;
#X declare -lib pdcontainer;
#X declare -lib pdcontainer;
#X declare -lib pdcontainer;
#X declare -lib pdcontainer;
#X declare -lib pdcontainer;
#X declare -lib pdcontainer;
#X declare -lib pdcontainer;
#X declare -lib pdcontainer;
#X declare -lib pdcontainer;
#X declare -path extras/state_manager;
#X declare -lib pdcontainer;
#X declare -lib pdcontainer;
#X obj 461 77 state_manager;
#X msg -157 255 setP \$1 \$2;
#X obj 207 -30 output~;
#X obj 462 -41 gem.scope;
#X obj -76 -73 r hopf;
#X obj 461 353 path extras;
#X obj -157 277 s hopf;
#X obj -30 -72 sig~;
#X obj 7 -72 nbx 5 14 -1e+37 1e+37 0 1 empty empty empty 0 -8 0 10
-262144 -1 -1 3.32 256;
#X obj -7 256 PRINT;
#X obj -77 -12 s~ hopf_out_0;
#X obj 9 -13 s~ hopf_out_1;
#X obj 206 -70 r~ hopf_out_0;
#X obj 461 -71 r~ hopf_out_0;
#X obj 562 -70 r~ hopf_out_1;
#X obj 664 -70 r~ hopf_out_2;
#X obj -157 -94 r~ hopf_out_0;
#X obj -158 -64 ode_fx hopf;
#X obj -77 -97 r~ hopf_input;
#X obj 461 130 gem.control;
#X obj -76 -37 ode_rk4~ ode_libs/linux64 hopf;
#X obj 461 373 path extras/state_manager;
#X obj 461 393 path extras/osclearn;
#X obj -155 195 ode_multihslider hopf/eps hopf/freq;
#X obj -155 46 ode_multihslider hopf/osc/freq hopf/osc/amp hopf/noise/amp
hopf/noise/fc hopf/delay/time hopf/delay/amp hopf/input;
#X msg 461 35 ../../presets;
#X obj 295 -71 r~ hopf_out_1;
#X msg -86 255 setX 0 1;
#X connect 1 0 6 0;
#X connect 4 0 20 0;
#X connect 7 0 20 0;
#X connect 8 0 7 0;
#X connect 12 0 2 0;
#X connect 13 0 3 0;
#X connect 14 0 3 1;
#X connect 15 0 3 2;
#X connect 16 0 17 0;
#X connect 17 0 20 0;
#X connect 18 0 17 1;
#X connect 20 0 10 0;
#X connect 20 1 11 0;
#X connect 23 0 1 0;
#X connect 23 0 9 0;
#X connect 25 0 0 0;
#X connect 26 0 2 1;
#X connect 27 0 6 0;
