#N canvas 575 186 784 516 10;
#X obj 264 458 gemwin;
#X msg 330 230 border \$1;
#X obj 103 197 tgl 15 1 empty empty Border 17 7 0 10 -262144 -1 -1
0 1;
#X msg 328 428 title my_window;
#X obj 328 185 tgl 15 0 empty empty empty 0 -6 0 10 -262144 -1 -1 0
1;
#X msg 328 204 fullscreen \$1;
#X obj 333 323 tgl 15 1 empty empty empty 0 -6 0 10 -262144 -1 -1 1
1;
#X msg 333 346 menubar \$1;
#X msg 254 353 reset;
#X msg 357 322 -1;
#X msg 331 287 cursor \$1;
#X obj 331 268 tgl 15 0 empty empty empty 0 -6 0 10 -262144 -1 -1 0
1;
#X obj 331 378 tgl 15 0 empty empty empty 0 -6 0 10 -262144 -1 -1 0
1;
#X msg 331 397 topmost \$1;
#X msg 213 254 offset \$1 \$2;
#X msg 211 326 dimen \$1 \$2;
#X obj 211 302 pack f f;
#X obj 211 277 t b f;
#X obj 103 263 nbx 5 14 1 1e+37 0 1 empty empty Width 0 -8 0 8 -262144
-1 -1 1024 256;
#X obj 152 263 nbx 5 14 1 1e+37 0 1 empty empty Heigth 0 -8 0 8 -262144
-1 -1 768 256;
#X obj 100 290 cnv 15 100 20 empty empty Gem.On.Off 3 12 0 9 -195568
-66577 0;
#X obj 103 232 nbx 5 14 0 1e+37 0 1 empty empty Offset.x 0 -8 0 8 -262144
-1 -1 1360 256;
#X obj 152 232 nbx 5 14 0 1e+37 0 1 empty empty Offset.y 0 -8 0 8 -262144
-1 -1 0 256;
#X obj 213 232 pack f f;
#X obj 213 207 t b f;
#X text 1030 511 fogcolor R G B : the color of the fog;
#X obj 722 558 gemwin;
#X obj 755 180 tgl 15 1 empty empty empty 0 -6 0 10 -262144 -1 -1 0
1;
#X msg 756 198 lighting \$1;
#N canvas 804 134 562 454 color 0;
#X obj 103 100 hsl 128 15 0 1 0 1 empty empty R 12 8 1 12 -261689 -1
-1 1300 1;
#X obj 236 100 hsl 128 15 0 1 0 1 empty empty G 12 8 1 12 -225271 -1
-1 2000 1;
#X obj 370 100 hsl 128 15 0 1 0 1 empty empty B 12 8 1 12 -228992 -1
-1 0 1;
#X obj 100 379 outlet;
#X obj 132 303 list;
#X msg 132 323 set color \$1 \$2 \$3;
#X obj 152 201 t b f;
#X obj 219 201 t b f;
#X obj 100 251 pack 0 0 0;
#X obj 100 280 t b a;
#X connect 0 0 8 0;
#X connect 1 0 6 0;
#X connect 2 0 7 0;
#X connect 4 0 5 0;
#X connect 5 0 3 0;
#X connect 6 0 8 0;
#X connect 6 1 8 1;
#X connect 7 0 8 0;
#X connect 7 1 8 2;
#X connect 8 0 9 0;
#X connect 9 0 3 0;
#X connect 9 1 4 0;
#X coords 0 -1 1 1 400 13 1 100 100;
#X restore 747 124 pd color sliders;
#X msg 747 146 color 0.102362 0.15748 0;
#N canvas 889 134 566 458 color 0;
#X obj 103 100 hsl 128 15 0 1 0 1 empty empty R 12 8 1 12 -261689 -1
-1 0 1;
#X obj 236 100 hsl 128 15 0 1 0 1 empty empty G 12 8 1 12 -225271 -1
-1 0 1;
#X obj 370 100 hsl 128 15 0 1 0 1 empty empty B 12 8 1 12 -228992 -1
-1 0 1;
#X obj 100 329 outlet;
#X obj 132 253 list;
#X msg 132 273 set ambient \$1 \$2 \$3;
#X obj 233 144 t b f;
#X obj 367 144 t b f;
#X obj 100 201 pack 0 0 0;
#X obj 100 230 t b a;
#X connect 0 0 8 0;
#X connect 1 0 6 0;
#X connect 2 0 7 0;
#X connect 4 0 5 0;
#X connect 5 0 3 0;
#X connect 6 0 8 0;
#X connect 6 1 8 1;
#X connect 7 0 8 0;
#X connect 7 1 8 2;
#X connect 8 0 9 0;
#X connect 9 0 3 0;
#X connect 9 1 4 0;
#X coords 0 -1 1 1 400 13 1 100 100;
#X restore 767 229 pd color sliders;
#X msg 767 251 ambient 0 0 0;
#N canvas 889 134 566 366 color 0;
#X obj 103 100 hsl 128 15 0 1 0 1 empty empty R 12 8 1 12 -261689 -1
-1 0 1;
#X obj 236 100 hsl 128 15 0 1 0 1 empty empty G 12 8 1 12 -225271 -1
-1 0 1;
#X obj 370 100 hsl 128 15 0 1 0 1 empty empty B 12 8 1 12 -228992 -1
-1 0 1;
#X obj 100 299 outlet;
#X obj 132 223 list;
#X msg 132 242 set specular \$1 \$2 \$3;
#X obj 233 124 t b f;
#X obj 367 124 t b f;
#X obj 100 171 pack 0 0 0;
#X obj 100 199 t b a;
#X connect 0 0 8 0;
#X connect 1 0 6 0;
#X connect 2 0 7 0;
#X connect 4 0 5 0;
#X connect 5 0 3 0;
#X connect 6 0 8 0;
#X connect 6 1 8 1;
#X connect 7 0 8 0;
#X connect 7 1 8 2;
#X connect 8 0 9 0;
#X connect 9 0 3 0;
#X connect 9 1 4 0;
#X coords 0 -1 1 1 400 13 1 100 100;
#X restore 774 283 pd color sliders;
#X msg 774 305 specular 0 0 0;
#N canvas 889 134 570 462 color 0;
#X obj 103 100 hsl 128 15 0 1 0 1 empty empty R 12 8 1 12 -261689 -1
-1 12700 1;
#X obj 236 100 hsl 128 15 0 1 0 1 empty empty G 12 8 1 12 -225271 -1
-1 12700 1;
#X obj 370 100 hsl 128 15 0 1 0 1 empty empty B 12 8 1 12 -228992 -1
-1 12700 1;
#X obj 100 299 outlet;
#X obj 132 223 list;
#X msg 132 242 set fogcolor \$1 \$2 \$3;
#X obj 233 125 t b f;
#X obj 367 125 t b f;
#X obj 100 171 pack 0 0 0;
#X obj 100 200 t b a;
#X connect 0 0 8 0;
#X connect 1 0 6 0;
#X connect 2 0 7 0;
#X connect 4 0 5 0;
#X connect 5 0 3 0;
#X connect 6 0 8 0;
#X connect 6 1 8 1;
#X connect 7 0 8 0;
#X connect 7 1 8 2;
#X connect 8 0 9 0;
#X connect 9 0 3 0;
#X connect 9 1 4 0;
#X coords 0 -1 1 1 400 13 1 100 100;
#X restore 786 490 pd color sliders;
#X msg 786 512 fogcolor 1 1 1;
#X msg 791 402 fogmode 0;
#N canvas 889 134 348 479 fog 0;
#X obj 84 239 outlet;
#X obj 100 101 hradio 15 1 1 4 empty empty empty 0 -6 0 10 -262144
-1 -1 0;
#X msg 207 182 set fogmode \$1;
#X obj 84 140 trigger bang float;
#X connect 1 0 3 0;
#X connect 2 0 0 0;
#X connect 3 0 0 0;
#X connect 3 1 2 0;
#X coords 0 -1 1 1 60 13 1 100 100;
#X restore 791 380 pd fog;
#X msg 782 352 shininess 0;
#N canvas 889 134 356 487 fog 0;
#X obj 84 239 outlet;
#X obj 84 140 trigger bang float;
#X msg 207 182 set shininess \$1;
#X obj 103 101 hsl 128 15 0 1 0 1 empty empty empty -2 -6 0 10 -262144
-1 -1 0 1;
#X connect 1 0 0 0;
#X connect 1 1 2 0;
#X connect 2 0 0 0;
#X connect 3 0 1 0;
#X coords 0 -1 1 1 133 13 1 100 100;
#X restore 782 330 pd fog;
#X msg 792 452 fog 0.590551;
#N canvas 889 134 364 495 fog 0;
#X obj 84 239 outlet;
#X obj 84 140 trigger bang float;
#X obj 103 101 hsl 128 15 0 1 0 1 empty empty empty -2 -6 0 10 -262144
-1 -1 7500 1;
#X msg 207 182 set fog \$1;
#X connect 1 0 0 0;
#X connect 1 1 3 0;
#X connect 2 0 1 0;
#X connect 3 0 0 0;
#X coords 0 -1 1 1 133 13 1 100 100;
#X restore 792 430 pd fog;
#X obj 927 524 gemhead;
#X obj 927 556 world_light;
#X text 278 330 comment;
#X text 344 239 comment;
#X text 268 185 comment;
#X obj 103 177 tgl 15 0 empty empty Stop.Render 17 7 0 10 -262144 -1
-1 0 1;
#X msg 144 400 destroy;
#X obj 162 292 tgl 15 1 empty empty empty 17 7 0 10 -262144 -1 -1 1
1;
#X obj 117 378 sel 1;
#X msg 266 160 frame \$1;
#X obj 103 156 nbx 5 14 1 1e+37 0 1 empty empty Frameset 0 -8 0 8 -262144
-1 -1 24 256;
#X obj 103 125 tgl 15 1 empty empty Lighting 17 7 0 10 -262144 -1 -1
0 1;
#X obj 16 316 s gem_width;
#X obj 20 349 s gem_heigth;
#X obj 103 279 bng 10 250 50 0 empty empty empty 17 7 0 10 -262144
-1 -1;
#X msg 233 110 lighting \$1;
#X obj 103 108 bng 10 250 50 0 empty empty Reset 17 7 0 10 -262144
-1 -1;
#X obj 420 148 bng 15 250 50 0 empty empty empty 17 7 0 10 -262144
-1 -1;
#X obj 420 98 gemkeyboard;
#X obj 420 121 sel 9;
#X msg 256 76 reset \, destroy \, create;
#X msg 409 278 0;
#X msg 440 278 2;
#X msg 469 278 4;
#X text 561 276 <-- destroy gemwin between clicking these;
#X msg 530 278 8;
#X msg 500 278 5;
#X msg 452 327 destroy \, FSAA \$1 \, create \, 1;
#X msg 529 303 14;
#X msg 117 420 FSAA 8 \, create \, 1;
#X obj 683 532 r gem_win;
#X connect 1 0 0 0;
#X connect 2 0 1 0;
#X connect 3 0 0 0;
#X connect 4 0 5 0;
#X connect 5 0 0 0;
#X connect 6 0 7 0;
#X connect 7 0 0 0;
#X connect 8 0 0 0;
#X connect 9 0 7 0;
#X connect 10 0 0 0;
#X connect 11 0 10 0;
#X connect 12 0 13 0;
#X connect 13 0 0 0;
#X connect 14 0 0 0;
#X connect 15 0 0 0;
#X connect 16 0 15 0;
#X connect 17 0 16 0;
#X connect 17 1 16 1;
#X connect 18 0 16 0;
#X connect 18 0 55 0;
#X connect 19 0 17 0;
#X connect 19 0 56 0;
#X connect 21 0 23 0;
#X connect 22 0 24 0;
#X connect 23 0 14 0;
#X connect 24 0 23 0;
#X connect 24 1 23 1;
#X connect 27 0 28 0;
#X connect 28 0 26 0;
#X connect 29 0 30 0;
#X connect 30 0 26 0;
#X connect 31 0 32 0;
#X connect 32 0 26 0;
#X connect 33 0 34 0;
#X connect 34 0 26 0;
#X connect 35 0 36 0;
#X connect 36 0 26 0;
#X connect 37 0 26 0;
#X connect 38 0 37 0;
#X connect 39 0 26 0;
#X connect 40 0 39 0;
#X connect 41 0 26 0;
#X connect 42 0 41 0;
#X connect 43 0 44 0;
#X connect 48 0 0 0;
#X connect 49 0 0 0;
#X connect 50 0 51 0;
#X connect 51 0 72 0;
#X connect 51 1 49 0;
#X connect 52 0 0 0;
#X connect 53 0 52 0;
#X connect 54 0 58 0;
#X connect 57 0 18 0;
#X connect 57 0 19 0;
#X connect 58 0 0 0;
#X connect 59 0 63 0;
#X connect 60 0 50 0;
#X connect 61 0 62 0;
#X connect 62 0 60 0;
#X connect 63 0 0 0;
#X connect 64 0 70 0;
#X connect 65 0 70 0;
#X connect 66 0 70 0;
#X connect 68 0 70 0;
#X connect 69 0 70 0;
#X connect 70 0 0 0;
#X connect 71 0 70 0;
#X connect 72 0 0 0;
#X connect 73 0 26 0;
#X coords 0 -1 1 1 100 210 2 100 100;
