#N canvas 401 425 643 257 10;
#X obj 20 133 nbx 5 14 0 1e+37 0 0 empty empty empty 0 -8 0 10 -262144
-1 -1 0 256;
#X obj 205 112 nbx 5 14 -1e+37 1e+37 0 1 empty empty Min 0 -8 0 10
-262144 -1 -1 -2 256;
#X obj 263 112 nbx 5 14 -1e+37 1e+37 0 0 empty empty Max 0 -8 0 10
-262144 -1 -1 2 256;
#X obj 17 95 inlet;
#X obj 67 193 outlet;
#X obj 66 160 expr $f1*($f3-$f2)+$f2;
#X obj 167 70 inlet;
#X obj 232 68 inlet;
#X obj 97 38 f \$1;
#X obj 131 38 f \$2;
#X obj 96 9 loadbang;
#X connect 0 0 5 0;
#X connect 1 0 5 1;
#X connect 2 0 5 2;
#X connect 3 0 0 0;
#X connect 5 0 4 0;
#X connect 6 0 1 0;
#X connect 7 0 2 0;
#X connect 8 0 1 0;
#X connect 9 0 2 0;
#X connect 10 0 8 0;
#X connect 10 0 9 0;
#X coords 0 -1 1 1 220 30 1 100 100;
