#N canvas 425 419 643 257 10;
#X obj 20 133 nbx 5 14 0 1e+37 0 0 empty empty empty 0 -8 0 10 -262144
-1 -1 0 256;
#X obj 168 112 nbx 5 14 -1e+37 1e+37 0 1 empty empty Min 0 -8 0 10
-262144 -1 -1 0 256;
#X obj 226 112 nbx 5 14 -1e+37 1e+37 0 0 empty empty Max 0 -8 0 10
-262144 -1 -1 0 256;
#X obj 67 160 expr (pow($f4 \, $f1)-1)*($f3-$f2)/($f4-1)+$f2;
#X obj 284 112 nbx 5 14 -1e+37 1e+37 0 0 empty empty Slow 0 -8 0 10
-262144 -1 -1 0 256;
#X obj 17 95 inlet;
#X obj 67 193 outlet;
#X obj 169 72 inlet;
#X obj 225 72 inlet;
#X obj 285 71 inlet;
#X obj 107 48 f \$1;
#X obj 141 48 f \$2;
#X obj 106 19 loadbang;
#X obj 191 46 f 100;
#X connect 0 0 3 0;
#X connect 1 0 3 1;
#X connect 2 0 3 2;
#X connect 3 0 6 0;
#X connect 4 0 3 3;
#X connect 5 0 0 0;
#X connect 7 0 1 0;
#X connect 8 0 2 0;
#X connect 9 0 4 0;
#X connect 10 0 1 0;
#X connect 11 0 2 0;
#X connect 12 0 10 0;
#X connect 12 0 11 0;
#X connect 12 0 13 0;
#X connect 13 0 4 0;
#X coords 0 -1 1 1 250 30 1 100 100;
