#N canvas 543 270 490 456 10;
#X declare -lib sfruit;
#X obj 165 -174 nbx 5 14 0 1 0 0 empty empty empty 0 -8 0 10 -262144
-1 -1 1 256;
#X obj -144 73 *;
#X obj -144 -171 unpack f f f;
#X obj -90 73 *;
#X obj -41 -172 unpack f f f;
#X obj -41 73 *;
#X obj 11 73 *;
#X obj 52 -172 unpack f f f;
#X obj 52 73 *;
#X obj -144 160 sum;
#X obj 22 160 sum;
#X obj 165 -150 expr pow(1-$f1 \, 2) \; pow($f1 \, 2) \; 2*$f1*(1-$f1)
;
#X obj 97 -125 t b f;
#X obj 97 73 *;
#X obj 52 -127 t b f;
#X obj 11 -125 t b f;
#X obj -41 -125 t b f;
#X obj -90 -125 t b f;
#X obj -144 -125 t b f;
#X obj 240 -224 import sfruit;
#X obj 22 118 hotpack f f f;
#X obj -144 117 hotpack f f f;
#X obj -144 -200 inlet;
#X obj -41 -200 inlet;
#X obj 52 -201 inlet;
#X obj 165 -200 inlet;
#X obj -144 186 outlet;
#X obj 22 185 outlet;
#X text -147 -223 source;
#X text -42 -222 destination;
#X text 51 -223 parameter;
#X connect 0 0 11 0;
#X connect 1 0 21 0;
#X connect 2 0 18 0;
#X connect 2 1 17 0;
#X connect 3 0 20 0;
#X connect 4 0 16 0;
#X connect 4 1 15 0;
#X connect 5 0 21 1;
#X connect 6 0 20 1;
#X connect 7 0 14 0;
#X connect 7 1 12 0;
#X connect 8 0 21 2;
#X connect 9 0 26 0;
#X connect 10 0 27 0;
#X connect 11 0 1 0;
#X connect 11 0 3 0;
#X connect 11 1 6 0;
#X connect 11 1 5 0;
#X connect 11 2 13 0;
#X connect 11 2 8 0;
#X connect 12 0 13 0;
#X connect 12 1 13 1;
#X connect 13 0 20 2;
#X connect 14 0 8 0;
#X connect 14 1 8 1;
#X connect 15 0 6 0;
#X connect 15 1 6 1;
#X connect 16 0 5 0;
#X connect 16 1 5 1;
#X connect 17 0 3 0;
#X connect 17 1 3 1;
#X connect 18 0 1 0;
#X connect 18 1 1 1;
#X connect 20 0 10 0;
#X connect 21 0 9 0;
#X connect 22 0 2 0;
#X connect 23 0 4 0;
#X connect 24 0 7 0;
#X connect 25 0 0 0;
