#N canvas 136 124 800 552 10;
#X msg 2 -110 start 1 \, step 42 42 \, bang;
#X obj 2 -263 loadbang;
#X obj -424 -105 h_stack matrix_out;
#X obj -304 -106 h_stack matrix_in;
#X obj -424 -153 t b b;
#X obj -376 -3 * 42;
#X obj -256 -5 * 42;
#X obj -412 -194 r matrix_update;
#X obj -376 140 pack f f;
#X obj -376 69 expr if($f1>0 && $f2>0 \, $f1 \, 1) \; if($f1>0 && $f2>0
\, $f2 \, 1);
#X msg -424 -128 getsize;
#X msg -304 -130 getsize;
#X obj -376 -63 expr matrix_size - $f1;
#X obj -253 -37 expr matrix_size - $f1;
#X msg -376 163 donecanvasdialog 0 0 1 0 0 0 0 \$2 \$1 0 -26;
#X obj -376 22 + 24;
#X obj -257 18 - 2;
#X msg 170 -137 size \$1 \$1;
#X obj 65 -249 bng 15 250 50 0 empty empty empty 17 7 0 10 -262144
-1 -1;
#X obj 1 -62 namecanvas pd-\$0parent;
#X obj 2 -85 autoconstructor_mtx_ij 1 1 ode_ij_noname \$0child;
#N canvas 455 195 450 300 \$0child 1;
#X coords 0 0 1 1 124 108 2 0 -26;
#X restore 0 -26 pd \$0child;
#X obj 122 -184 h_stack matrix_in;
#X msg 122 -208 getsize;
#X obj 170 -159 expr matrix_size - $f1;
#X msg -284 195 donecanvasdialog 0 0 -1 0 0 0 0 \$2 \$1 0 -26;
#X obj -284 221 s pd-\$0child;
#X obj -376 189 s pd-\$0parent;
#X obj 92 -248 inlet;
#X msg 167 -110 clear;
#X obj 2 -234 t b b b b;
#X connect 0 0 20 0;
#X connect 1 0 30 0;
#X connect 2 1 12 0;
#X connect 3 1 13 0;
#X connect 4 0 10 0;
#X connect 4 1 11 0;
#X connect 5 0 15 0;
#X connect 6 0 16 0;
#X connect 8 0 14 0;
#X connect 8 0 25 0;
#X connect 9 0 8 0;
#X connect 9 1 8 1;
#X connect 10 0 2 0;
#X connect 11 0 3 0;
#X connect 12 0 5 0;
#X connect 13 0 6 0;
#X connect 14 0 27 0;
#X connect 15 0 9 0;
#X connect 16 0 9 1;
#X connect 17 0 20 0;
#X connect 18 0 30 0;
#X connect 22 1 24 0;
#X connect 23 0 22 0;
#X connect 24 0 17 0;
#X connect 25 0 26 0;
#X connect 28 0 30 0;
#X connect 29 0 20 0;
#X connect 30 0 0 0;
#X connect 30 1 4 0;
#X connect 30 2 23 0;
#X connect 30 3 29 0;
#X coords 0 0 1 1 124 108 1 0 -26;
