#N canvas 335 197 726 546 10;
#X obj -11 -224 loadbang;
#X obj -343 -138 h_stack matrix_in;
#X obj -343 -213 r matrix_update;
#X msg -343 -162 getsize;
#X obj -320 -96 expr matrix_size - $f1;
#X msg 51 -170 getsize;
#X obj 66 -225 bng 15 250 50 0 empty empty empty 17 7 0 10 -262144
-1 -1;
#X obj -320 -46 * 42;
#X obj -320 -23 - 2;
#X obj -12 -62 namecanvas \$0parent;
#X obj -11 -86 autoconstructor 10 ode_channel \$0child;
#N canvas 588 152 450 300 \$0child 0;
#X coords 0 -1 1 1 124 266 1 0 0;
#X restore 0 0 pd \$0child;
#X obj -291 69 s pd-\$0child;
#X msg 138 -118 clear;
#X msg 37 -119 step 42 0;
#X obj -9 -196 t b b b b b b;
#X obj 97 -224 inlet;
#X obj -320 12 t f f;
#X obj -320 -71 moses 0;
#X obj -347 -46 0;
#X obj -321 119 s \$0parent;
#X obj 51 -148 h_stack matrix_in;
#X obj 182 -130 expr matrix_size - $f1;
#X msg -321 94 donecanvasdialog 1 -1 1 0 -1 1 1 \$1 240 0 0;
#X msg -291 45 donecanvasdialog 1 -1 1 0 -1 1 1 \$1 240 0 0;
#X connect 0 0 15 0;
#X connect 1 1 4 0;
#X connect 3 0 1 0;
#X connect 4 0 18 0;
#X connect 5 0 21 0;
#X connect 6 0 15 0;
#X connect 7 0 8 0;
#X connect 8 0 17 0;
#X connect 13 0 10 0;
#X connect 14 0 10 0;
#X connect 14 0 10 0;
#X connect 15 0 3 0;
#X connect 15 2 10 0;
#X connect 15 3 14 0;
#X connect 15 4 5 0;
#X connect 15 5 13 0;
#X connect 16 0 6 0;
#X connect 17 0 24 0;
#X connect 17 1 23 0;
#X connect 18 0 19 0;
#X connect 18 1 7 0;
#X connect 19 0 17 0;
#X connect 21 1 22 0;
#X connect 22 0 10 0;
#X connect 23 0 20 0;
#X connect 24 0 12 0;
#X coords 0 -1 1 1 124 266 1 0 0;
