#N canvas 390 500 1173 555 10;
#X msg 2 -110 start 1 \, step 42 42 \, bang;
#X obj 1 -62 namecanvas pd-\$0canvas;
#X obj 2 -193 loadbang;
#X obj 824 -73 h_stack matrix_out;
#X msg 201 -185 set donecanvasdialog 1 -1 -1 0 -1 1 1 445 \$1 0 0;
#X obj 944 -74 h_stack matrix_in;
#X obj 824 -121 t b b;
#X obj 873 221 s pd-\$0canvas;
#X obj 872 29 * 42;
#X obj 992 27 * 42;
#X obj 824 -150 r matrix_update;
#X obj 872 172 pack f f;
#X obj 761 -153 bng 15 250 50 0 empty empty empty 17 7 0 10 -262144
-1 -1;
#X obj 872 101 expr if($f1>0 && $f2>0 \, $f1 \, 1) \; if($f1>0 && $f2>0
\, $f2 \, 1);
#X msg 824 -96 getsize;
#X msg 944 -98 getsize;
#X obj 872 -31 expr matrix_size - $f1;
#X obj 995 -5 expr matrix_size - $f1;
#X msg 872 195 donecanvasdialog 0 0 1 0 0 0 0 \$2 \$1 0 -26;
#X obj 872 54 + 24;
#X obj 991 50 - 2;
#X obj 19 -133 v matrix_size;
#X obj 2 -164 t b b b;
#X msg 113 -134 size \$1 \$1;
#X obj 65 -179 bng 15 250 50 0 empty empty empty 17 7 0 10 -262144
-1 -1;
#X obj 2 -85 autoconstructor_mtx_ij 1 1 ode_ij_noname \$0canvas;
#X obj 63 -20 bng 15 250 50 0 empty empty empty 17 7 0 10 -262144 -1
-1;
#X connect 0 0 25 0;
#X connect 2 0 22 0;
#X connect 3 1 16 0;
#X connect 5 1 17 0;
#X connect 6 0 14 0;
#X connect 6 1 15 0;
#X connect 8 0 19 0;
#X connect 9 0 20 0;
#X connect 10 0 6 0;
#X connect 11 0 18 0;
#X connect 12 0 6 0;
#X connect 13 0 11 0;
#X connect 13 1 11 1;
#X connect 14 0 3 0;
#X connect 15 0 5 0;
#X connect 16 0 8 0;
#X connect 17 0 9 0;
#X connect 18 0 7 0;
#X connect 19 0 13 0;
#X connect 20 0 13 1;
#X connect 21 0 23 0;
#X connect 22 0 0 0;
#X connect 22 1 6 0;
#X connect 22 2 21 0;
#X connect 23 0 25 0;
#X connect 24 0 22 0;
#X connect 26 0 6 0;
#X coords 0 555 1 554 1 1 0;
