#N canvas 567 408 996 626 10;
#X obj -12 -59 namecanvas pd-\$0canvas;
#X obj -11 -220 loadbang;
#X obj -313 64 h_stack matrix_in;
#X obj -291 248 s pd-\$0canvas;
#X obj -311 -11 r matrix_update;
#X msg -313 40 getsize;
#X obj -290 136 expr matrix_size - $f1;
#X obj -11 -82 autoconstructor 10 ode_channel \$0canvas;
#X obj 45 -145 h_map matrix_in;
#X msg 45 -166 getsize;
#X obj -63 -201 bng 15 250 50 0 empty empty empty 17 7 0 10 -262144
-1 -1;
#X obj -293 168 * 42;
#X obj -293 191 - 2;
#X msg -292 223 donecanvasdialog 0 0 1 0 0 0 0 \$1 266 0 -26;
#X obj -11 -191 t b b b b b;
#X msg -11 -110 step 42 0;
#X connect 1 0 14 0;
#X connect 2 1 6 0;
#X connect 4 0 5 0;
#X connect 5 0 2 0;
#X connect 6 0 11 0;
#X connect 8 1 7 0;
#X connect 9 0 8 0;
#X connect 10 0 14 0;
#X connect 11 0 12 0;
#X connect 12 0 13 0;
#X connect 13 0 3 0;
#X connect 14 0 5 0;
#X connect 14 2 7 0;
#X connect 14 3 15 0;
#X connect 14 4 9 0;
#X connect 15 0 7 0;
#X connect 15 0 7 0;
#X coords 0 626 1 625 82 266 0;
