#N canvas 230 430 1403 570 10;
#X declare -lib sfruit;
#X declare -lib pdcontainer;
#X declare -lib sfruit;
#X declare -lib pdcontainer;
#X msg 2 -113 start 1 \, step 42 42 \, bang;
#X obj 6 -293 loadbang;
#X obj -424 -95 h_stack matrix_out;
#X obj -304 -96 h_stack matrix_in;
#X obj -424 -143 t b b;
#X obj -376 7 * 42;
#X obj -253 5 * 42;
#X obj -423 -267 r matrix_update;
#X obj -376 150 pack f f;
#X obj -376 79 expr if($f1>0 && $f2>0 \, $f1 \, 1) \; if($f1>0 && $f2>0
\, $f2 \, 1);
#X msg -424 -118 getsize;
#X msg -304 -120 getsize;
#X obj -376 -53 expr matrix_size - $f1;
#X obj -253 -27 expr matrix_size - $f1;
#X msg -376 173 donecanvasdialog 0 0 1 0 0 0 0 \$2 \$1 0 -26;
#X obj -376 32 + 24;
#X obj -22 -294 bng 15 250 50 0 empty empty empty 17 7 0 10 -262144
-1 -1;
#X obj 1 -62 namecanvas pd-\$0parent;
#X obj 2 -85 autoconstructor_mtx_ij 1 1 ode_ij_noname \$0child;
#N canvas 236 260 450 300 \$0child 0;
#X obj 0 0 ode_ij_noname 1 1 ;
#X obj 0 0 ode_ij_noname 1 1 ;
#X coords 0 0 1 1 50 24 2 -52 -26;
#X restore 0 -26 pd \$0child;
#X obj 300 -198 h_stack matrix_in;
#X msg 300 -222 getsize;
#X obj 349 -173 expr matrix_size - $f1;
#X obj -347 250 s pd-\$0child;
#X obj -376 199 s pd-\$0parent;
#X obj 85 -287 inlet;
#X msg 65 -150 clear;
#X obj 193 -169 expr matrix_size - $f1;
#X obj 141 -194 h_stack matrix_out;
#X obj 179 -132 pack f f;
#X msg 142 -218 getsize;
#X obj 276 -105 print;
#X msg 179 -107 size \$1 \$2;
#X obj -254 28 + 50;
#X obj 356 -102 bng 15 250 50 0 empty empty empty 17 7 0 10 -262144
-1 -1;
#X obj 4 -264 t b b b b b b b;
#X msg -347 224 donecanvasdialog 0 0 -1 0 0 0 0 \$2 \$1 -52 -26;
#X msg 401 -94 step 0 42 \, offset -52 0;
#X obj 290 -25 autoconstructor_channels_out 10 ode_channel_name \$0child
;
#X connect 0 0 18 0;
#X connect 1 0 35 0;
#X connect 2 1 12 0;
#X connect 3 1 13 0;
#X connect 4 0 10 0;
#X connect 4 1 11 0;
#X connect 5 0 15 0;
#X connect 6 0 33 0;
#X connect 8 0 14 0;
#X connect 8 0 36 0;
#X connect 9 0 8 0;
#X connect 9 1 8 1;
#X connect 10 0 2 0;
#X connect 11 0 3 0;
#X connect 12 0 5 0;
#X connect 13 0 6 0;
#X connect 14 0 24 0;
#X connect 15 0 9 0;
#X connect 16 0 35 0;
#X connect 20 1 22 0;
#X connect 21 0 20 0;
#X connect 22 0 29 1;
#X connect 22 0 38 0;
#X connect 25 0 35 0;
#X connect 26 0 18 0;
#X connect 27 0 29 0;
#X connect 28 1 27 0;
#X connect 29 0 32 0;
#X connect 29 0 31 0;
#X connect 30 0 28 0;
#X connect 32 0 18 0;
#X connect 33 0 9 1;
#X connect 34 0 38 0;
#X connect 35 0 0 0;
#X connect 35 1 4 0;
#X connect 35 2 38 0;
#X connect 35 3 37 0;
#X connect 35 4 30 0;
#X connect 35 5 21 0;
#X connect 35 6 26 0;
#X connect 36 0 23 0;
#X connect 37 0 38 0;
#X coords 0 0 1 1 50 24 1 0 -26;
