#N canvas 730 445 392 320 10;
#X msg 19 199 push \$1;
#X obj 61 0 bng 15 250 50 0 empty empty empty 17 7 0 10 -262144 -1
-1;
#X msg 46 154 clear;
#X msg 215 118 print;
#X obj 61 -21 initbang;
#X msg 128 63 clear;
#X obj 19 222 h_stack matrix_in;
#X msg 92 174 push \$1;
#X obj 93 198 h_stack matrix_out;
#X msg 107 90 clear;
#X obj 92 151 for++ \$1 0;
#X obj 19 176 for++ \$1 0;
#X obj 62 21 t b b b b b b;
#X obj 182 59 f \$1;
#X obj 172 101 - 1;
#X obj 216 83 v matrix_size;
#X obj 165 166 h_map matrix_in;
#X obj 267 166 h_map matrix_out;
#X msg 270 118 print;
#X connect 0 0 6 0;
#X connect 1 0 12 0;
#X connect 2 0 6 0;
#X connect 3 0 16 0;
#X connect 4 0 1 0;
#X connect 5 0 16 0;
#X connect 5 0 17 0;
#X connect 7 0 8 0;
#X connect 9 0 8 0;
#X connect 10 0 7 0;
#X connect 11 0 0 0;
#X connect 12 0 11 0;
#X connect 12 1 2 0;
#X connect 12 2 10 0;
#X connect 12 3 9 0;
#X connect 12 4 5 0;
#X connect 12 5 13 0;
#X connect 13 0 14 0;
#X connect 13 0 15 0;
#X connect 14 0 11 0;
#X connect 14 0 10 0;
#X connect 18 0 17 0;
