#N canvas 512 343 1240 553 10;
#X declare -lib pdcontainer;
#X declare -lib pdcontainer;
#X declare -lib pdcontainer;
#X declare -lib pdcontainer;
#X declare -lib pdcontainer;
#X declare -lib pdcontainer;
#X declare -lib pdcontainer;
#X declare -path extras/state_manager;
#X declare -lib pdcontainer;
#X declare -lib pdcontainer;
#X obj 405 101 nbx 4 14 -1e+37 1e+37 0 1 \$0_slider_max \$0_slider_max_set
empty 0 -8 0 8 -204800 -1 -1 1 256;
#X obj 232 101 nbx 4 14 -1e+37 1e+37 0 1 \$0_slider_min \$0_slider_min_set
empty 0 -8 0 8 -204800 -1 -1 0 256;
#X obj 186 100 tgl 15 1 \$0_togg \$0_togg_set empty 17 7 0 10 -204800
-1 -1 1 1;
#X obj 202 100 hradio 15 1 1 2 \$0_radio \$0_radio_set empty 0 -8 0
10 -204786 -1 -1 0;
#X obj 100 100 cnv 15 85 15 empty \$0_label \$2 2 8 0 10 -204786 -66577
0;
#X obj 399 288 s \$0_slider_set;
#X obj 399 165 r \$0_slider;
#X obj 983 205 symbol;
#X obj 509 230 r \$0_label;
#X obj 983 232 s \$0_label;
#X obj 893 48 r \$0_label;
#X obj 788 48 r \$0_slider_max;
#X obj 788 99 s \$0_slider_max_set;
#X obj 711 49 r \$0_label;
#X obj 606 49 r \$0_slider_min;
#X obj 606 99 s \$0_slider_min_set;
#X obj 968 115 s \$0_slider_set;
#X obj 968 69 hotpack f f;
#X msg 968 92 range \$1 \$2;
#X obj 968 46 r /\$2/min;
#X obj 1031 47 r /\$2/max;
#X obj 361 311 outlet;
#X obj 983 353 list2symbol;
#X msg 983 376 label \$1;
#X obj 983 399 s \$0_slider_set;
#X obj 839 282 r \$0_radio;
#X obj 839 307 route 0 1;
#X msg 839 331 lin;
#X msg 870 331 log;
#X obj 839 356 s \$0_slider_set;
#X obj 442 235 r \$0_togg;
#X obj 399 235 spigot;
#X obj 1030 301 r \$0_togg;
#X obj 983 300 spigot;
#X obj 985 429 r \$0_togg;
#X obj 985 474 0;
#X obj 985 451 sel 0;
#X obj 983 327 round 5;
#X obj 274 100 hsl 128 15 0 1 0 1 \$0_slider \$0_slider_set 0 2 9 0
9 -204786 -1 -1 0 1;
#X obj 399 261 state_io_set /\$2/value;
#X obj 491 101 nbx 4 14 0 80000 0 1 \$0_line_time \$0_line_time_set
empty 0 -8 0 8 -204786 -1 -1 0 256;
#X obj 708 161 r \$0_label;
#X obj 603 161 r \$0_line_time;
#X obj 603 211 s \$0_line_time_set;
#X obj 708 239 r \$0_label;
#X obj 459 101 nbx 3 14 0 100 0 1 \$0_prob_random \$0_prob_random_set
empty 0 -8 0 8 -204800 -1 -1 100 256;
#X obj 603 239 r \$0_prob_random;
#X obj 603 289 s \$0_prob_random_set;
#X obj 444 100 tgl 15 1 \$0_togg_random \$0_togg_random_set empty 17
7 0 10 -204786 -1 -1 0 1;
#X obj 710 314 r \$0_label;
#X obj 605 394 s \$0_togg_random_set;
#X obj 605 314 r \$0_togg_random;
#X obj 100 231 metro;
#X obj 100 165 r /\$2/togg_random;
#X obj 127 187 r /\$2/line_time;
#X obj 100 346 random 10000;
#X obj 171 364 r /\$2/min;
#X obj 234 363 r /\$2/max;
#X obj 100 398 maxlib/scale 0 9999 0 1 0;
#X obj 100 450 s \$0_slider;
#X obj 462 190 r /\$2/line_time;
#X obj 399 190 pack f f;
#X obj 127 207 * 1000;
#X obj 462 212 * 1000;
#X obj 100 263 random 100;
#X obj 166 283 r /\$2/prob_random;
#X obj 100 305 moses;
#X obj 100 326 t b;
#X obj 399 211 line;
#X obj 983 179 r ode_slider[\$1].name;
#X obj 788 71 state_io_set /\$2/max;
#X obj 606 72 state_io_set /\$2/min;
#X obj 603 184 state_io_set /\$2/line_time;
#X obj 603 262 state_io_set /\$2/prob_random;
#X obj 605 337 state_io_set /\$2/togg_random;
#X obj 983 278 r /\$2/value;
#X obj 896 159 r \$0_label;
#X obj 791 159 r \$0_togg;
#X obj 791 209 s \$0_togg_set;
#X obj 791 182 state_io_set /\$2/togg;
#X obj 543 368 route bang;
#X obj 1028 450 r /\$2/value;
#X obj 1012 474 f;
#X obj 985 499 s /\$2/value;
#X obj 530 100 ode_osclearn /\$2;
#X connect 6 0 61 0;
#X connect 8 0 39 1;
#X connect 10 0 70 1;
#X connect 11 0 70 0;
#X connect 13 0 71 1;
#X connect 14 0 71 0;
#X connect 17 0 18 0;
#X connect 18 0 16 0;
#X connect 19 0 17 0;
#X connect 20 0 17 1;
#X connect 22 0 23 0;
#X connect 23 0 24 0;
#X connect 25 0 26 0;
#X connect 26 0 27 0;
#X connect 26 1 28 0;
#X connect 27 0 29 0;
#X connect 28 0 29 0;
#X connect 30 0 31 1;
#X connect 31 0 39 0;
#X connect 31 0 21 0;
#X connect 32 0 33 1;
#X connect 33 0 37 0;
#X connect 34 0 36 0;
#X connect 35 0 83 0;
#X connect 36 0 35 0;
#X connect 36 1 82 0;
#X connect 37 0 22 0;
#X connect 39 0 5 0;
#X connect 41 0 72 1;
#X connect 42 0 72 0;
#X connect 44 0 73 1;
#X connect 46 0 73 0;
#X connect 49 0 74 1;
#X connect 51 0 74 0;
#X connect 52 0 64 0;
#X connect 53 0 52 0;
#X connect 54 0 62 0;
#X connect 55 0 58 0;
#X connect 56 0 58 3;
#X connect 57 0 58 4;
#X connect 58 0 59 0;
#X connect 60 0 63 0;
#X connect 61 0 68 0;
#X connect 62 0 52 1;
#X connect 63 0 61 1;
#X connect 64 0 66 0;
#X connect 65 0 66 1;
#X connect 66 0 67 0;
#X connect 67 0 55 0;
#X connect 68 0 31 0;
#X connect 69 0 7 0;
#X connect 70 0 12 0;
#X connect 71 0 15 0;
#X connect 72 0 43 0;
#X connect 73 0 47 0;
#X connect 74 0 80 0;
#X connect 75 0 33 0;
#X connect 76 0 79 1;
#X connect 77 0 79 0;
#X connect 79 0 78 0;
#X connect 80 1 50 0;
#X connect 81 0 82 1;
#X connect 82 0 83 0;
#X coords 0 -1 1 1 445 15 2 100 100;
