#N canvas 923 380 820 604 10;
#X declare -lib pdcontainer;
#X declare -lib pdcontainer;
#X declare -lib pdcontainer;
#X obj 100 125 nbx 4 14 -1e+37 1e+37 0 1 \$0_slider_max \$0_slider_max_set
empty 0 -8 0 8 -262144 -1 -1 1 256;
#X obj 100 140 nbx 4 14 -1e+37 1e+37 0 1 \$0_slider_min \$0_slider_min_set
empty 0 -8 0 8 -262144 -1 -1 0 256;
#X obj 100 280 tgl 38 1 \$0_togg \$0_togg_set empty 17 7 0 10 -262144
-1 -1 1 1;
#X obj 101 321 hradio 18 1 1 2 \$0_radio \$0_radio_set empty 0 -8 0
10 -262144 -1 -1 0;
#X obj 619 132 symbol2list;
#X obj 619 109 symbol \$2;
#X obj 619 156 length;
#X obj 619 179 sel 1;
#X obj 619 206 symbol \$2;
#X obj 101 101 cnv 15 36 20 empty \$0_label \$2 0 12 0 10 -262144 -66577
0;
#X obj 195 161 s \$0_slider_set;
#X obj 195 56 r \$0_slider;
#X obj 395 110 symbol;
#X obj 304 92 r \$0_label;
#X obj 395 158 s \$0_label;
#X msg 395 135 /\$1/value;
#X obj 300 198 r \$0_label;
#X obj 195 198 r \$0_slider_max;
#X obj 195 268 s \$0_slider_max_set;
#X obj 301 302 r \$0_label;
#X obj 196 302 r \$0_slider_min;
#X obj 196 372 s \$0_slider_min_set;
#X obj 388 364 s \$0_slider_set;
#X obj 388 308 hotpack f f;
#X msg 388 331 range \$1 \$2;
#X obj 388 265 r /\$2/min;
#X obj 451 286 r /\$2/max;
#X obj 196 427 outlet;
#X obj 196 399 r \$0_slider;
#X obj 619 83 initbang;
#X obj 602 452 list2symbol;
#X msg 602 475 label \$1;
#X obj 602 498 s \$0_slider_set;
#X obj 385 408 r \$0_radio;
#X obj 385 433 route 0 1;
#X msg 385 457 lin;
#X msg 416 457 log;
#X obj 385 482 s \$0_slider_set;
#X obj 238 88 r \$0_togg;
#X obj 195 88 spigot;
#X obj 647 398 r \$0_togg;
#X obj 602 399 spigot;
#X obj 494 405 r \$0_togg;
#X obj 494 471 s \$0_slider_set;
#X obj 494 450 0;
#X obj 494 428 sel 0;
#X obj 395 84 r ol.slider[\$1].name;
#X obj 602 426 round 5;
#X obj 51 356 nbx 5 14 -1e+37 1e+37 0 0 empty empty empty 0 -8 0 10
-262144 -1 -1 0 256;
#X obj 50 485 s /a/value;
#X obj 52 460 nbx 5 14 -1e+37 1e+37 0 0 empty empty empty 0 -8 0 10
-262144 -1 -1 0 256;
#X obj 100 159 vsl 38 115 0 1 0 1 \$0_slider \$0_slider_set 0 1 4 0
9 -262144 -1 -1 0 1;
#X obj 195 221 state_io_set /\$2/max;
#X obj 195 114 state_io_set /\$2/value;
#X obj 196 325 state_io_set /\$2/min;
#X obj 602 378 r /\$2/value;
#X connect 4 0 6 0;
#X connect 5 0 4 0;
#X connect 6 0 7 0;
#X connect 7 0 8 0;
#X connect 11 0 39 0;
#X connect 12 0 15 0;
#X connect 13 0 53 1;
#X connect 15 0 14 0;
#X connect 16 0 52 1;
#X connect 17 0 52 0;
#X connect 19 0 54 1;
#X connect 20 0 54 0;
#X connect 23 0 24 0;
#X connect 24 0 22 0;
#X connect 25 0 23 0;
#X connect 26 0 23 1;
#X connect 28 0 27 0;
#X connect 30 0 31 0;
#X connect 31 0 32 0;
#X connect 33 0 34 0;
#X connect 34 0 35 0;
#X connect 34 1 36 0;
#X connect 35 0 37 0;
#X connect 36 0 37 0;
#X connect 38 0 39 1;
#X connect 39 0 53 0;
#X connect 40 0 41 1;
#X connect 41 0 47 0;
#X connect 42 0 45 0;
#X connect 44 0 43 0;
#X connect 45 0 44 0;
#X connect 46 0 12 0;
#X connect 47 0 30 0;
#X connect 50 0 49 0;
#X connect 51 0 48 0;
#X connect 52 0 18 0;
#X connect 53 0 10 0;
#X connect 54 0 21 0;
#X connect 55 0 41 0;
#X coords 0 -1 1 1 38 240 2 100 100;
