#N canvas 736 146 627 533 10;
#X obj 189 438 pack f 50;
#X obj 189 464 line;
#X obj 214 374 r \$1_min;
#X obj 279 374 r \$1_max;
#X obj 183 231 tgl 15 0 empty empty empty 17 7 0 10 -262144 -1 -1 0
1;
#X obj 150 252 spigot;
#X obj 183 210 r \$1_togg;
#X obj 150 289 demux 1;
#X obj 276 313 r \$1_min;
#X obj 363 313 r \$1_max;
#X obj 150 399 expr $f1*($f3-$f2)+$f2;
#X obj 189 340 expr (pow($f4 \, $f1)-1)*($f3-$f2)/($f4-1)+$f2;
#X obj 22 201 r fader_\$1;
#X obj 150 210 r \$1;
#X obj 189 488 s \$1_mapped;
#X obj 453 314 nbx 5 14 -1e+37 1e+37 0 1 empty empty empty 0 -8 0 10
-262144 -1 -1 100 256;
#X obj 206 251 route 0;
#X obj 241 275 b;
#X obj 241 296 f;
#X obj 102 447 nbx 5 14 -1e+37 1e+37 0 0 empty empty empty 0 -8 0 10
-262144 -1 -1 0 256;
#X msg 204 275 0;
#X obj 49 246 hradio 12 1 1 2 empty empty empty 0 -8 0 10 -262144 -1
-1 0;
#X connect 0 0 1 0;
#X connect 1 0 14 0;
#X connect 1 0 18 1;
#X connect 1 0 19 0;
#X connect 2 0 10 1;
#X connect 3 0 10 2;
#X connect 4 0 5 1;
#X connect 4 0 16 0;
#X connect 5 0 7 0;
#X connect 6 0 4 0;
#X connect 7 0 10 0;
#X connect 7 1 11 0;
#X connect 8 0 11 1;
#X connect 9 0 11 2;
#X connect 10 0 0 0;
#X connect 11 0 0 0;
#X connect 12 0 21 0;
#X connect 13 0 5 0;
#X connect 15 0 11 3;
#X connect 16 0 20 0;
#X connect 16 1 17 0;
#X connect 17 0 18 0;
#X connect 18 0 0 0;
#X connect 20 0 0 0;
#X connect 21 0 7 1;
#X coords 0 533 1 532 40 195 0;
