#N canvas 950 412 787 522 10;
#X declare -lib pdcontainer;
#X declare -lib pdcontainer;
#X declare -lib pdcontainer;
#X declare -lib pdcontainer;
#X obj 200 333 vsl 40 75 0 127 0 0 empty empty LVL 0 -6 0 8 -262144
-1 -1 5800 1;
#N canvas 1166 819 308 196 gain 1;
#X obj 72 63 inlet~;
#X obj 73 135 outlet~;
#X obj 73 93 *~;
#X obj 128 71 dbtorms;
#X msg 128 93 \$1 100;
#X obj 128 48 state_r_line /\$1/channel/level;
#X obj 128 115 line~;
#X connect 0 0 2 0;
#X connect 2 0 1 0;
#X connect 3 0 4 0;
#X connect 4 0 6 0;
#X connect 5 0 3 0;
#X connect 6 0 2 1;
#X restore 293 321 pd gain;
#N canvas 1333 699 308 196 lp 0;
#X obj 52 55 inlet~;
#X obj 53 125 outlet~;
#X obj 104 62 mtof;
#X obj 53 93 lp2~ 18000 0.7 50;
#X obj 104 41 state_r_line /\$1/channel/lp;
#X connect 0 0 3 0;
#X connect 2 0 3 1;
#X connect 3 0 1 0;
#X connect 4 0 2 0;
#X restore 293 269 pd lp;
#N canvas 1327 798 308 196 hp 0;
#X obj 72 55 inlet~;
#X obj 73 135 outlet~;
#X obj 129 45 mtof;
#X obj 172 95 nbx 5 14 -1e+37 1e+37 0 0 empty empty empty 0 -8 0 10
-262144 -1 -1 0 256;
#X obj 73 93 hip~ 10;
#X obj 129 87 line;
#X msg 129 66 \$1 100;
#X obj 129 21 state_r_line /\$1/channel/hp;
#X connect 0 0 4 0;
#X connect 2 0 6 0;
#X connect 4 0 1 0;
#X connect 5 0 4 1;
#X connect 5 0 3 0;
#X connect 6 0 5 0;
#X connect 7 0 2 0;
#X restore 293 295 pd hp;
#X obj 201 201 cnv 15 38 20 empty \$0-label rossler_out_2 0 12 0 8
-233017 -66577 0;
#X obj 478 234 s \$0-label;
#X obj 207 292 knob 25 25 0 140 0 0 empty empty HP 0 -8 0 8 -262144
-1 -1 0 1;
#X obj 207 250 knob 25 25 0 127 0 0 empty empty LP 0 -8 0 8 -262144
-1 -1 0 1;
#X msg 478 210 label \$1;
#X obj -22 394 state_io_set /\$1/channel/pan;
#X obj -22 343 state_io_set /\$1/channel/level;
#X obj -22 293 state_io_set /\$1/channel/hp;
#X obj -23 240 state_io_set /\$1/channel/lp;
#X obj 203 425 hsl 35 15 0 1 0 1 empty empty PAN -2 -6 0 8 -262144
-1 -1 1500 1;
#N canvas 1174 538 408 221 pan 0;
#X obj 101 29 inlet~;
#X obj 102 103 outlet~;
#X obj 172 103 outlet~;
#X obj 188 -10 r /\$1/channel/pan;
#X obj 188 35 line;
#X obj 210 60 expr 1-$f1;
#X msg 188 13 \$1 200;
#X obj 101 72 *~ 1;
#X obj 135 72 *~ 1;
#X connect 0 0 7 0;
#X connect 0 0 8 0;
#X connect 3 0 6 0;
#X connect 4 0 5 0;
#X connect 4 0 7 1;
#X connect 5 0 8 1;
#X connect 6 0 4 0;
#X connect 7 0 1 0;
#X connect 8 0 2 0;
#X restore 294 354 pd pan;
#X obj 294 398 throw~ ode_master_L;
#X obj 414 398 throw~ ode_master_R;
#X obj 340 271 peakenv~ 1000;
#X obj 202 223 nbx 4 12 -1e+37 1e+37 0 0 empty empty empty 0 -8 0 8
-262144 -1 -1 21.6567 256;
#X obj 478 60 h_map matrix_in;
#X obj 294 222 r~;
#X msg 538 27 getsize;
#X obj 478 93 list-undrip;
#X msg 478 27 keys;
#X obj 478 118 list-rev;
#X obj 393 191 prepend set;
#X obj 478 -52 loadbang;
#X obj 571 119 f \$1;
#X obj 478 -1 t b b b;
#X obj 445 -13 bng 15 250 50 0 empty empty empty 17 7 0 10 -262144
-1 -1;
#X obj 478 147 list-idx;
#X obj 571 88 loadbang;
#X obj 400 226 print;
#X obj 397 -46 r idiot_bang;
#X obj 341 294 snaps~;
#X connect 0 0 10 0;
#X connect 1 0 14 0;
#X connect 2 0 3 0;
#X connect 3 0 1 0;
#X connect 6 0 11 0;
#X connect 7 0 12 0;
#X connect 8 0 5 0;
#X connect 9 0 13 0;
#X connect 10 0 0 0;
#X connect 11 0 6 0;
#X connect 12 0 7 0;
#X connect 13 0 9 0;
#X connect 14 0 15 0;
#X connect 14 1 16 0;
#X connect 17 0 34 0;
#X connect 19 0 22 0;
#X connect 19 1 22 1;
#X connect 20 0 2 0;
#X connect 20 0 17 0;
#X connect 21 0 19 0;
#X connect 22 0 24 0;
#X connect 23 0 19 0;
#X connect 24 0 30 0;
#X connect 25 0 32 0;
#X connect 25 0 20 0;
#X connect 26 0 28 0;
#X connect 27 0 30 1;
#X connect 28 0 23 0;
#X connect 28 1 21 0;
#X connect 28 2 31 0;
#X connect 29 0 28 0;
#X connect 30 0 8 0;
#X connect 30 0 25 0;
#X connect 31 0 27 0;
#X connect 33 0 29 0;
#X connect 34 0 18 0;
#X coords 0 -1 1 1 40 240 2 200 200;
