#N canvas 1161 511 586 408 10;
#X obj 3 333 namecanvas \$0self;
#N canvas 836 133 706 713 builder 0;
#X obj 264 337 s \$0self;
#X obj 204 41 initbang;
#X obj 204 66 dollarg;
#X obj -101 251 s \$0self;
#X obj -158 194 loadbang;
#X obj 231 140 list-drip;
#X obj 231 164 t a b;
#X obj -100 140 list length;
#X obj 204 94 t a a;
#X obj 258 190 cup;
#X obj 241 215 * 40;
#X msg -101 218 donecanvasdialog 1 -1 -1 0 -1 1 1 78 240 0 0;
#X obj -100 165 expr ($f1-1)*40+38;
#X msg -100 194 set donecanvasdialog 1 -1 -1 0 -1 1 1 \$1 240 0 0;
#X msg 264 310 obj \$2 0 ode_vslider \$3 \$1;
#X obj 213 240 pack s f f;
#X obj 178 41 bng 15 250 50 0 empty empty empty 17 7 0 10 -262144 -1
-1;
#X msg 285 189 0;
#X obj 247 406 s \$0self;
#X obj 309 595 s \$0self;
#X obj 309 548 pack f f;
#X obj 213 438 unpack s f f;
#X msg 247 379 obj \$2 260 hotpack \$3 f;
#X obj 213 271 t a a a;
#X obj 282 468 t f f;
#X obj 190 596 s \$0self;
#X obj 309 496 expr $f1*2-1+4 \; $f1*2+4;
#X obj 190 497 expr $f1*2+4 \;;
#X msg 190 571 connect \$1 0 2 0;
#X msg 309 570 connect \$1 0 \$2 1;
#X connect 1 0 2 0;
#X connect 2 0 8 0;
#X connect 4 0 11 0;
#X connect 5 0 6 0;
#X connect 6 0 15 0;
#X connect 6 1 9 0;
#X connect 7 0 12 0;
#X connect 8 0 7 0;
#X connect 8 1 5 0;
#X connect 8 1 17 0;
#X connect 9 0 10 0;
#X connect 9 0 15 2;
#X connect 10 0 15 1;
#X connect 11 0 3 0;
#X connect 12 0 13 0;
#X connect 13 0 11 0;
#X connect 14 0 0 0;
#X connect 15 0 23 0;
#X connect 16 0 2 0;
#X connect 17 0 9 0;
#X connect 20 0 29 0;
#X connect 21 2 24 0;
#X connect 22 0 18 0;
#X connect 23 0 21 0;
#X connect 23 1 22 0;
#X connect 23 2 14 0;
#X connect 24 0 27 0;
#X connect 24 1 26 0;
#X connect 26 0 20 0;
#X connect 26 1 20 1;
#X connect 27 0 28 0;
#X connect 28 0 25 0;
#X connect 29 0 19 0;
#X restore 3 309 pd builder;
#X obj -47 277 outlet;
#X coords 0 -1 1 1 78 240 2 0 0;
