#N canvas 1136 447 662 309 10;
#X declare -lib sfruit;
#X declare -lib pdcontainer;
#X obj 71 259 unpack f f f;
#X obj 95 287 pack f f;
#X obj 95 310 s ode_mtx_ij;
#X obj 16 311 s ode_mtx_v;
#X obj 71 235 pack f \$1 \$2;
#X obj 103 103 knob 34 34 0 127 0 0 empty \$0-knob empty 0 -8 0 8 -262144
-1333 -262144 2390 1;
#X obj 214 381 s \$0-knob;
#X obj 82 27 import sfruit;
#X obj 214 310 color.hsl2rgb;
#X obj 214 332 color.rgb2pd24;
#X msg 214 357 color 0 \$1 0;
#X obj 71 211 dbtorms;
#X obj 214 222 nbx 5 14 -1e+37 1e+37 0 0 empty empty empty 0 -8 0 10
-262144 -1 -1 0.397137 256;
#X obj 214 244 moses 1;
#X msg 267 289 1 1 \$1;
#X msg 214 288 0.6 1 \$1;
#X obj 375 268 maxlib/scale 1 22.38 0.3 0.5;
#X obj 214 268 maxlib/scale 0 1 0.35 0.5;
#X obj 170 106 state_io_set /odematrix/\$1/\$2;
#X obj 71 186 state_r_line /odematrix/\$1/\$2;
#X connect 0 0 3 0;
#X connect 0 1 1 0;
#X connect 0 2 1 1;
#X connect 1 0 2 0;
#X connect 4 0 0 0;
#X connect 5 0 18 0;
#X connect 8 0 9 0;
#X connect 9 0 10 0;
#X connect 10 0 6 0;
#X connect 11 0 4 0;
#X connect 11 0 12 0;
#X connect 12 0 13 0;
#X connect 13 0 17 0;
#X connect 13 1 16 0;
#X connect 14 0 8 0;
#X connect 15 0 8 0;
#X connect 16 0 14 0;
#X connect 17 0 15 0;
#X connect 18 0 5 0;
#X connect 19 0 11 0;
#X coords 0 -1 1 1 40 40 2 100 100;
