#N canvas 146 122 1426 549 10;
#X obj 44 -64 nbx 5 14 0 1e+37 0 1 empty empty empty 0 -8 0 10 -262144
-1 -1 0 256;
#X text 24 -68 F2;
#X obj 44 -10 osc~;
#X obj 44 -45 sig~ 1000;
#X obj 43 328 *~;
#X obj 83 312 line~;
#X obj 83 289 pack f 100;
#X obj 320 192 noise~;
#X obj 320 262 *~;
#X obj 334 65 line~;
#X obj 334 5 nbx 8 14 0 1e+37 0 1 empty empty empty 0 -8 0 10 -262144
-1 -1 10.748 256;
#X obj 44 -110 pack f 50;
#X obj 44 -87 line;
#X obj 436 193 noise~;
#X obj 435 262 *~;
#X obj 334 43 pack f 50;
#X obj 80 -10 phasor~;
#X obj 69 26 *~;
#X obj 43 26 *~;
#X obj 171 25 tgl 15 0 empty empty empty 17 7 0 10 -262144 -1 -1 1
1;
#X obj 97 25 expr -$f1+1;
#X obj 697 -67 nbx 5 14 -1e+37 1e+37 0 1 empty empty empty 0 -8 0 10
-262144 -1 -1 0 256;
#X obj 697 -16 vd~ /\$1/del1;
#X obj 698 229 *~;
#X obj 713 199 line~;
#X obj 713 176 pack f 100;
#X obj 713 127 nbx 5 14 -1e+08 1e+37 0 1 empty empty empty 0 -8 0 10
-262144 -1 -1 0 256;
#X obj 902 -37 delwrite~ /\$1/del1 5000;
#X obj 697 -41 sig~;
#X obj 422 150 nbx 5 14 -1e+37 1e+37 0 0 empty empty empty 0 -8 0 10
-262144 -1 -1 3118.11 256;
#X obj 320 234 lp2~ 1000 0.5;
#X obj 167 111 tgl 15 0 empty empty empty 17 7 0 10 -262144 -1 -1 1
1;
#X obj 167 131 route 0;
#X obj 83 259 nbx 5 14 -1e+08 1e+12 0 0 empty empty empty 0 -8 0 10
-262144 -1 -1 0 256;
#X msg 626 22 100;
#X obj 334 -71 moses 0.002;
#X msg 334 -48 0;
#X obj 171 -12 r /\$1/osc/freq/togg;
#X obj 167 58 r /\$1/osc/amp/togg;
#X msg 167 156 0;
#X obj 424 -72 r /\$1/noise/amp/togg;
#X obj 424 -50 tgl 15 0 empty empty empty 17 7 0 10 -262144 -1 -1 1
1;
#X obj 424 -31 route 0;
#X obj 463 10 f;
#X obj 463 -10 b;
#X msg 424 -10 0;
#X obj 506 142 tgl 15 0 empty empty empty 17 7 0 10 -262144 -1 -1 1
1;
#X obj 506 161 route 0;
#X obj 545 202 f;
#X obj 545 182 b;
#X msg 506 182 0;
#X obj 506 120 r /\$1/noise/fc/togg;
#X obj 801 103 tgl 15 0 empty empty empty 17 7 0 10 -262144 -1 -1 1
1;
#X obj 801 122 route 0;
#X obj 840 163 f;
#X obj 840 143 b;
#X msg 801 143 0;
#X obj 781 -104 tgl 15 0 empty empty empty 17 7 0 10 -262144 -1 -1
1 1;
#X obj 781 -85 route 0;
#X obj 820 -44 f;
#X obj 820 -64 b;
#X msg 781 -63 0;
#X obj 781 -126 r /\$1/delay/time/togg;
#X obj 801 80 r /\$1/delay/amp/togg;
#X obj 626 -4 loadbang;
#X obj 713 90 demux 1;
#X obj 697 -112 demux 1;
#X obj 383 125 demux 1;
#X obj 334 -21 demux 1;
#X obj 206 175 f;
#X obj 206 153 b;
#X obj 83 120 demux 1;
#X obj 1065 213 *~;
#X obj 435 234 lp2~ 1000 0.5;
#X obj 902 -61 inlet~;
#X obj 1066 155 inlet~;
#X obj 43 357 throw~ \$0_out;
#X obj 319 287 throw~ \$0_out;
#X obj 698 257 throw~ \$0_out;
#X obj 1065 241 throw~ \$0_out;
#X obj 1254 7 catch~ \$0_out;
#X obj 1254 33 outlet~;
#X obj 1080 188 r /\$1/input/value;
#X obj 713 9 r /\$1/delay/amp/value;
#X obj 382 96 r /\$1/noise/fc/value;
#X obj 334 -114 r /\$1/noise/amp/value;
#X obj 44 -141 r /\$1/osc/freq/value;
#X obj 83 92 r /\$1/osc/amp/value;
#X obj 697 -149 r /\$1/delay/time/value;
#X obj 157 337 snaps~;
#X connect 0 0 3 0;
#X connect 2 0 18 0;
#X connect 3 0 2 0;
#X connect 3 0 16 0;
#X connect 4 0 76 0;
#X connect 4 0 89 0;
#X connect 5 0 4 1;
#X connect 6 0 5 0;
#X connect 7 0 30 0;
#X connect 8 0 77 0;
#X connect 9 0 8 1;
#X connect 9 0 14 1;
#X connect 10 0 15 0;
#X connect 10 0 43 1;
#X connect 11 0 12 0;
#X connect 12 0 0 0;
#X connect 13 0 73 0;
#X connect 15 0 9 0;
#X connect 16 0 17 0;
#X connect 17 0 4 0;
#X connect 18 0 4 0;
#X connect 19 0 18 1;
#X connect 19 0 20 0;
#X connect 20 0 17 1;
#X connect 21 0 28 0;
#X connect 21 0 59 1;
#X connect 22 0 23 0;
#X connect 23 0 78 0;
#X connect 24 0 23 1;
#X connect 25 0 24 0;
#X connect 26 0 25 0;
#X connect 26 0 54 1;
#X connect 28 0 22 0;
#X connect 29 0 30 1;
#X connect 29 0 48 1;
#X connect 29 0 73 1;
#X connect 30 0 8 0;
#X connect 31 0 32 0;
#X connect 31 0 71 1;
#X connect 32 0 39 0;
#X connect 32 1 70 0;
#X connect 33 0 6 0;
#X connect 33 0 69 1;
#X connect 35 0 36 0;
#X connect 35 1 68 0;
#X connect 36 0 68 0;
#X connect 37 0 19 0;
#X connect 38 0 31 0;
#X connect 39 0 6 0;
#X connect 40 0 41 0;
#X connect 41 0 42 0;
#X connect 41 0 68 1;
#X connect 42 0 45 0;
#X connect 42 1 44 0;
#X connect 43 0 10 0;
#X connect 44 0 43 0;
#X connect 45 0 15 0;
#X connect 46 0 47 0;
#X connect 46 0 67 1;
#X connect 47 0 50 0;
#X connect 47 1 49 0;
#X connect 48 0 29 0;
#X connect 49 0 48 0;
#X connect 50 0 30 1;
#X connect 50 0 73 1;
#X connect 51 0 46 0;
#X connect 52 0 53 0;
#X connect 52 0 65 1;
#X connect 53 0 56 0;
#X connect 53 1 55 0;
#X connect 54 0 26 0;
#X connect 55 0 54 0;
#X connect 56 0 25 0;
#X connect 57 0 58 0;
#X connect 57 0 66 1;
#X connect 58 0 61 0;
#X connect 58 1 60 0;
#X connect 59 0 21 0;
#X connect 60 0 59 0;
#X connect 61 0 28 0;
#X connect 62 0 57 0;
#X connect 63 0 52 0;
#X connect 64 0 34 0;
#X connect 65 1 26 0;
#X connect 66 1 21 0;
#X connect 67 1 29 0;
#X connect 68 1 10 0;
#X connect 69 0 33 0;
#X connect 70 0 69 0;
#X connect 71 1 33 0;
#X connect 72 0 79 0;
#X connect 73 0 14 0;
#X connect 74 0 27 0;
#X connect 75 0 72 0;
#X connect 80 0 81 0;
#X connect 82 0 72 1;
#X connect 83 0 65 0;
#X connect 84 0 67 0;
#X connect 85 0 35 0;
#X connect 86 0 11 0;
#X connect 87 0 71 0;
#X connect 88 0 66 0;
#X coords 0 549 1 548 360 250 0;
