#N canvas 172 82 1181 661 10;
#X declare -lib pdcontainer;
#X declare -lib pdcontainer;
#X declare -lib pdcontainer;
#X declare -lib pdcontainer;
#X declare -lib pdcontainer;
#X declare -lib pdcontainer;
#X declare -lib pdcontainer;
#X declare -lib pdcontainer;
#X declare -lib pdcontainer;
#X declare -lib pdcontainer;
#X declare -lib pdcontainer;
#X declare -lib pdcontainer;
#X obj 0 0 cnv 15 210 60 empty empty empty 20 12 0 9 -195568 -66577
0;
#X msg 10 119 width \$1;
#X obj 605 -138 nbx 5 14 -1e+37 1e+37 0 1 empty empty empty 0 -8 0
10 -262144 -1 -1 1 256;
#X obj 700 -141 nbx 5 14 -1e+37 1e+37 0 1 empty empty empty 0 -8 0
10 -262144 -1 -1 1 256;
#X obj 590 -119 *~;
#X obj 685 -121 *~;
#X obj 355 315 scaleXYZ 1 1 1;
#X obj 394 289 nbx 5 14 -1e+37 1e+37 0 0 empty empty empty 0 -8 0 10
-262144 -1 -1 1 256;
#X msg 228 306 draw point;
#X msg 126 306 draw linestrip;
#X obj 579 187 scopeXYZ~ 2048;
#X obj 5 25 nbx 4 14 -1e+37 1e+37 0 1 empty empty Scale 42 8 0 8 -262144
-1 -1 1 256;
#X obj 605 -156 nbx 4 14 -1e+37 1e+37 0 1 empty gem_scope_size_x_\$1
X.Size 0 -8 0 8 -262144 -1 -1 1 256;
#X obj 700 -157 nbx 4 14 -1e+37 1e+37 0 1 empty gem_scope_size_y_\$1
Y.Size 0 -8 0 8 -262144 -1 -1 1 256;
#X obj 10 94 nbx 3 14 1 1e+37 0 1 empty empty Width 0 -8 0 8 -262144
-1 -1 2 256;
#X msg 10 297 length \$1;
#X obj 10 275 nbx 5 14 1 1e+37 0 1 empty empty Length 0 -8 0 8 -262144
-1 -1 4096 256;
#X obj 7 6 tgl 15 1 empty empty empty 17 7 0 10 -262144 -1 -1 1 1;
#X obj 214 277 bng 15 250 50 0 empty gem_scope_draw_point_\$1 P 17
7 0 10 -262144 -1 -1;
#X obj 126 279 bng 15 250 50 0 empty empty L 17 7 0 10 -262144 -1 -1
;
#X obj 355 253 gemhead 10;
#X obj 10 240 expr pow(2 \, $f1);
#X obj 5 44 nbx 3 14 1 1e+37 0 1 empty empty 2pow 34 8 0 8 -262144
-1 -1 12 256;
#X obj 355 606 color;
#X obj 382 578 r gem_scope_color_\$1;
#X obj 158 0 grid xy 60 -8 8 60 -8 8 0 0.1 0.1 10 10 189 30;
#X msg 160 -37 color 255 255 255;
#X obj 160 -60 loadbang;
#X obj 392 -155 grid xy 60 0 360 60 0 180 0 2 2 10 10 220 186;
#X obj 151 276 loadbang;
#X obj 355 541 rotateXYZ;
#X obj 446 527 nbx 5 14 -1e+37 1e+37 0 0 empty empty empty 0 -8 0 10
-262144 -1 -1 180 256;
#X obj 389 508 nbx 5 14 -1e+37 1e+37 0 0 empty empty empty 0 -8 0 10
-262144 -1 -1 0 256;
#X obj 814 -143 nbx 5 14 -1e+37 1e+37 0 1 empty empty empty 0 -8 0
10 -262144 -1 -1 1 256;
#X obj 799 -123 *~;
#X obj 10 146 s \$0_scope;
#X obj 126 335 s \$0_scope;
#X obj 228 336 s \$0_scope;
#X obj 579 159 r \$0_scope;
#X obj 10 323 s \$0_scope;
#X obj 496 101 multiplex~;
#X obj 552 32 phasor~;
#X obj 77 24 nbx 4 14 0 1e+37 0 1 empty empty Freq.X 42 8 0 8 -262144
-1 -1 19 256;
#X obj 26 7 hradio 12 1 0 4 empty empty empty 0 -8 0 10 -262144 -1
-1 0;
#X obj -33 -35 state_io_set /\$1/gem/toggle;
#X obj 355 225 r /\$1/gem/toggle;
#X obj -175 22 state_io_set /\$1/gem/scale;
#X obj 431 264 state_r_line /\$1/gem/scale;
#X obj -176 43 state_io_set /\$1/gem/2pow;
#X obj 10 215 r /\$1/gem/2pow;
#X obj -134 -56 state_io_set /\$1/gem/radio;
#X obj 436 -13 r /\$1/gem/radio;
#X obj 834 -177 nbx 5 14 -1e+37 1e+37 0 0 empty empty empty 0 -8 0
10 -262144 -1 -1 0 256;
#X obj 234 99 state_io_set /\$1/gem/shift/y;
#X obj 95 143 state_io_set /\$1/gem/shift/x;
#X obj 128 77 nbx 4 14 -1e+37 1e+37 0 1 empty empty empty 0 -8 0 8
-262144 -1 -1 0.0903673 256;
#X obj 171 77 nbx 4 14 -1e+37 1e+37 0 1 empty empty empty 0 -8 0 8
-262144 -1 -1 -1.17908 256;
#X obj -178 70 state_io_set /\$1/gem/shift/z;
#X obj 77 42 nbx 4 14 -1e+37 1e+37 0 1 empty empty Z.shift 42 8 0 8
-262144 -1 -1 0 256;
#X obj 285 189 state_io_set /\$1/gem/rotate/z;
#X obj 252 167 state_io_set /\$1/gem/rotate/y;
#X obj 313 10 pack f f;
#X msg 313 34 xvalues \$1 \$2;
#X obj 389 483 state_r_line /\$1/gem/rotate/y;
#X obj 446 501 state_r_line /\$1/gem/rotate/z;
#X obj 436 13 sel 0;
#X msg 436 38 0;
#X msg 465 38 1;
#X obj -179 98 state_io_set /\$1/gem/freqx;
#X obj 552 8 r /\$1/gem/freqx;
#X obj 127 220 r /\$1/gem/radio;
#X obj 126 245 sel 0;
#X obj 554 77 -~ 4;
#X obj 553 55 *~ 16;
#X obj 621 41 nbx 5 14 -1e+37 1e+37 0 1 empty empty empty 0 -8 0 10
-262144 -1 -1 13 256;
#X obj 621 60 / 2;
#X obj 67 414 samplerate~;
#X obj 67 389 loadbang;
#X obj 67 439 nbx 5 14 -1e+37 1e+37 0 0 empty empty empty 0 -8 0 10
-262144 -1 -1 44100 256;
#X obj -2 461 expr $f2/$f1;
#X obj -2 355 r /\$1/gem/freqx;
#X obj -2 486 nbx 5 14 -1e+37 1e+37 0 0 empty empty empty 0 -8 0 10
-262144 -1 -1 2321.05 256;
#X msg -3 503 length \$1;
#X obj -3 529 s \$0_scope;
#X obj -94 229 r /\$1/gem/radio;
#X obj -94 250 sel 0;
#X obj 355 641 s \$0_scope;
#X obj 661 -47 multiplex~;
#X obj 787 -28 multiplex~;
#X obj 694 -81 multiplex~ 0 1 2;
#X obj 583 -71 r /\$1/gem/radio;
#X obj 583 -47 sel 0;
#X msg 583 -22 0;
#X msg 613 -22 1;
#X obj 848 -111 r /\$1/gem/radio;
#X obj 883 -57 - 1;
#X obj 886 -36 nbx 5 14 -1e+37 1e+37 0 0 empty empty empty 0 -8 0 10
-262144 -1 -1 0 256;
#X obj 815 15 r /\$1/gem/radio;
#X obj 815 39 sel 0;
#X msg 815 64 0;
#X msg 845 64 1;
#X obj 77 6 nbx 4 14 -1e+37 1e+37 0 1 empty empty X.size 42 8 0 8 -262144
-1 -1 13 256;
#X obj -6 -147 state_io_set /\$1/gem/xsize;
#X obj 750 185 r /\$1/gem/xsize;
#X obj -67 278 t b;
#X obj 589 -206 r~ \$1_out_0;
#X obj 686 -207 r~ \$1_out_1;
#X obj 800 -206 r~ \$1_out_2;
#X obj 848 -84 moses 1;
#X obj 674 10 nbx 5 14 -1e+37 1e+37 0 0 empty empty empty 0 -8 0 10
-262144 -1 -1 19 256;
#X obj 514 579 r gem_scope_color;
#X obj 220 2 vsl 20 55 0 360 0 0 empty empty empty 0 -9 0 10 -262144
-1 -1 0 1;
#X obj 242 2 vsl 20 55 0 360 0 0 empty empty empty 0 -9 0 10 -262144
-1 -1 0 1;
#X obj 264 2 vsl 20 55 0 180 0 0 empty empty empty 0 -9 0 10 -262144
-1 -1 5400 1;
#X obj 221 148 state_io_set /\$1/gem/rotate/x;
#X obj 381 -80 nbx 4 14 -1e+37 1e+37 0 1 empty empty empty 0 -8 0 8
-262144 -1 -1 0 256;
#X obj 424 -80 nbx 4 14 -1e+37 1e+37 0 1 empty empty empty 0 -8 0 8
-262144 -1 -1 0 256;
#X obj 372 467 nbx 5 14 -1e+37 1e+37 0 0 empty empty empty 0 -8 0 10
-262144 -1 -1 0 256;
#X obj 372 442 state_r_line /\$1/gem/rotate/x;
#X obj 355 380 translateXYZ;
#X obj 388 335 state_r_line /\$1/gem/shift/x;
#X obj 411 358 state_r_line /\$1/gem/shift/y;
#X obj 456 381 state_r_line /\$1/gem/shift/z;
#X obj 686 322 r /\$1/gem/radio;
#X obj 686 348 sel 0;
#X obj 456 406 nbx 5 14 -1e+37 1e+37 0 0 empty empty empty 0 -8 0 10
-262144 -1 -1 0 256;
#X msg 713 375 0;
#X obj 608 411 spigot;
#X msg 685 373 1;
#X obj 699 404 tgl 15 1 empty empty empty 17 7 0 10 -262144 -1 -1 1
1;
#X obj 95 119 line;
#X msg 95 96 \$1 100;
#X obj 171 127 line;
#X msg 171 104 \$1 100;
#X obj 211 -261 r unpacked_osc;
#X obj 211 -212 unpack f f;
#X obj 211 -236 routeOSC /gem/\$1/xy /gem/\$1/scale;
#X obj 308 -211 s /\$1/gem/scale;
#X connect 1 0 35 0;
#X connect 2 0 4 1;
#X connect 3 0 5 1;
#X connect 4 0 40 0;
#X connect 4 0 89 0;
#X connect 5 0 87 0;
#X connect 5 0 89 1;
#X connect 6 0 119 0;
#X connect 7 0 6 1;
#X connect 7 0 6 2;
#X connect 7 0 6 3;
#X connect 8 0 37 0;
#X connect 9 0 36 0;
#X connect 11 0 46 0;
#X connect 12 0 2 0;
#X connect 13 0 3 0;
#X connect 14 0 1 0;
#X connect 15 0 39 0;
#X connect 16 0 15 0;
#X connect 17 0 44 0;
#X connect 18 0 8 0;
#X connect 19 0 9 0;
#X connect 20 0 6 0;
#X connect 21 0 16 0;
#X connect 22 0 48 0;
#X connect 23 0 86 0;
#X connect 24 0 23 1;
#X connect 25 0 55 0;
#X connect 25 1 56 0;
#X connect 26 0 25 0;
#X connect 26 0 28 0;
#X connect 27 0 26 0;
#X connect 28 0 115 0;
#X connect 28 1 116 0;
#X connect 29 0 9 0;
#X connect 30 0 23 0;
#X connect 31 0 30 3;
#X connect 32 0 30 2;
#X connect 33 0 34 1;
#X connect 34 0 88 0;
#X connect 34 0 89 2;
#X connect 38 0 10 0;
#X connect 40 0 10 1;
#X connect 41 0 73 0;
#X connect 42 0 68 0;
#X connect 43 0 50 0;
#X connect 44 0 17 0;
#X connect 45 0 20 0;
#X connect 46 0 11 0;
#X connect 47 0 7 0;
#X connect 48 0 22 0;
#X connect 49 0 21 0;
#X connect 50 0 43 0;
#X connect 51 0 65 0;
#X connect 52 0 3 0;
#X connect 52 0 2 0;
#X connect 52 0 33 0;
#X connect 53 0 56 0;
#X connect 54 0 55 0;
#X connect 55 0 131 0;
#X connect 56 0 133 0;
#X connect 57 0 58 0;
#X connect 58 0 57 0;
#X connect 59 0 113 0;
#X connect 60 0 112 0;
#X connect 61 0 62 0;
#X connect 63 0 32 0;
#X connect 64 0 31 0;
#X connect 65 0 66 0;
#X connect 65 1 67 0;
#X connect 66 0 40 0;
#X connect 67 0 40 0;
#X connect 68 0 42 0;
#X connect 69 0 41 0;
#X connect 69 0 109 0;
#X connect 70 0 71 0;
#X connect 71 0 19 0;
#X connect 71 1 18 0;
#X connect 72 0 40 1;
#X connect 73 0 72 0;
#X connect 74 0 75 0;
#X connect 74 0 73 1;
#X connect 75 0 72 1;
#X connect 76 0 78 0;
#X connect 77 0 76 0;
#X connect 78 0 79 1;
#X connect 79 0 81 0;
#X connect 80 0 79 0;
#X connect 81 0 82 0;
#X connect 82 0 83 0;
#X connect 84 0 85 0;
#X connect 85 0 16 0;
#X connect 85 1 104 0;
#X connect 87 0 10 2;
#X connect 88 0 10 3;
#X connect 89 0 87 1;
#X connect 90 0 91 0;
#X connect 91 0 92 0;
#X connect 91 1 93 0;
#X connect 92 0 87 0;
#X connect 93 0 87 0;
#X connect 94 0 108 0;
#X connect 95 0 96 0;
#X connect 96 0 89 0;
#X connect 97 0 98 0;
#X connect 98 0 99 0;
#X connect 98 1 100 0;
#X connect 99 0 88 0;
#X connect 100 0 88 0;
#X connect 101 0 102 0;
#X connect 102 0 101 0;
#X connect 103 0 74 0;
#X connect 104 0 79 0;
#X connect 105 0 4 0;
#X connect 106 0 5 0;
#X connect 107 0 34 0;
#X connect 108 1 95 0;
#X connect 110 0 23 1;
#X connect 111 0 114 0;
#X connect 112 0 60 0;
#X connect 113 0 59 0;
#X connect 114 0 111 0;
#X connect 117 0 30 1;
#X connect 118 0 117 0;
#X connect 119 0 30 0;
#X connect 120 0 119 1;
#X connect 121 0 119 2;
#X connect 122 0 125 0;
#X connect 123 0 124 0;
#X connect 124 0 125 0;
#X connect 124 0 128 0;
#X connect 124 1 126 0;
#X connect 125 0 127 0;
#X connect 126 0 119 3;
#X connect 126 0 129 0;
#X connect 127 0 119 3;
#X connect 128 0 129 0;
#X connect 129 0 127 1;
#X connect 130 0 54 0;
#X connect 131 0 130 0;
#X connect 132 0 53 0;
#X connect 133 0 132 0;
#X connect 134 0 136 0;
#X connect 135 0 56 0;
#X connect 135 1 55 0;
#X connect 136 0 135 0;
#X connect 136 1 137 0;
#X coords 0 -1 1 1 284 60 1 0 0;
