#N canvas 482 216 1177 540 10;
#X obj 4 -73 nbx 5 14 0 1e+37 0 1 empty empty empty 0 -8 0 10 -262144
-1 -1 0 256;
#X text -16 -77 F2;
#X obj 4 -19 osc~;
#X obj 4 -54 sig~ 1000;
#X obj 3 319 *~;
#X obj 43 303 line~;
#X obj 43 280 pack f 100;
#X obj 320 183 noise~;
#X obj 320 253 *~;
#X obj 334 56 line~;
#X obj 334 -4 nbx 8 14 0 1e+37 0 1 empty empty empty 0 -8 0 10 -262144
-1 -1 23.622 256;
#X obj 4 -119 pack f 50;
#X obj 4 -96 line;
#X obj 436 184 noise~;
#X obj 435 253 *~;
#X obj 334 34 pack f 50;
#X obj 40 -19 phasor~;
#X obj 29 17 *~;
#X obj 3 17 *~;
#X obj 131 16 tgl 15 1 empty empty empty 17 7 0 10 -262144 -1 -1 1
1;
#X obj 57 16 expr -$f1+1;
#X obj 697 -76 nbx 5 14 -1e+37 1e+37 0 1 empty empty empty 0 -8 0 10
-262144 -1 -1 0 256;
#X obj 698 220 *~;
#X obj 713 190 line~;
#X obj 713 167 pack f 100;
#X obj 713 118 nbx 5 14 -1e+08 1e+37 0 1 empty empty empty 0 -8 0 10
-262144 -1 -1 0 256;
#X obj 697 -50 sig~;
#X obj 422 141 nbx 5 14 -1e+37 1e+37 0 0 empty empty empty 0 -8 0 10
-262144 -1 -1 0 256;
#X obj 320 225 lp2~ 1000 0.5;
#X obj 127 102 tgl 15 0 empty empty empty 17 7 0 10 -262144 -1 -1 1
1;
#X obj 127 122 route 0;
#X obj 43 250 nbx 5 14 -1e+08 1e+12 0 0 empty empty empty 0 -8 0 10
-262144 -1 -1 129.921 256;
#X obj 334 -80 moses 0.002;
#X msg 334 -57 0;
#X msg 127 147 0;
#X obj 424 -81 r /\$1/noise/amp/togg;
#X obj 424 -59 tgl 15 0 empty empty empty 17 7 0 10 -262144 -1 -1 0
1;
#X obj 424 -40 route 0;
#X obj 463 1 f;
#X obj 463 -19 b;
#X msg 424 -19 0;
#X obj 506 133 tgl 15 0 empty empty empty 17 7 0 10 -262144 -1 -1 0
1;
#X obj 506 152 route 0;
#X obj 545 193 f;
#X obj 545 173 b;
#X msg 506 173 0;
#X obj 801 94 tgl 15 0 empty empty empty 17 7 0 10 -262144 -1 -1 0
1;
#X obj 801 113 route 0;
#X obj 840 154 f;
#X obj 840 134 b;
#X msg 801 134 0;
#X obj 781 -113 tgl 15 0 empty empty empty 17 7 0 10 -262144 -1 -1
0 1;
#X obj 781 -94 route 0;
#X obj 820 -53 f;
#X obj 820 -73 b;
#X msg 781 -72 0;
#X obj 713 81 demux 1;
#X obj 697 -121 demux 1;
#X obj 383 116 demux 1;
#X obj 334 -30 demux 1;
#X obj 166 166 f;
#X obj 166 144 b;
#X obj 43 111 demux 1;
#X obj 907 214 *~;
#X obj 435 225 lp2~ 1000 0.5;
#X obj 616 -90 inlet~;
#X obj 908 156 inlet~;
#X obj 1058 258 outlet~;
#X obj 434 279 throw~ \$0_out2;
#X obj 1061 309 outlet~;
#X obj 1061 283 catch~ \$0_out2;
#X obj 1058 232 catch~ \$0_out1;
#X obj 907 242 throw~ \$0_out1;
#X obj 698 248 throw~ \$0_out1;
#X obj 319 278 throw~ \$0_out1;
#X obj 3 348 throw~ \$0_out1;
#N canvas 752 503 450 300 delwrite 0;
#X obj 49 69 inlet~;
#X obj 52 146 outlet~;
#X obj 48 101 delwrite~ /\$1/del1 5000;
#X connect 0 0 2 0;
#X restore 616 -54 pd delwrite;
#N canvas 750 508 450 300 deread 0;
#X obj 49 69 inlet~;
#X obj 52 146 outlet~;
#X obj 108 68 inlet~;
#X obj 52 124 vd~ /\$1/del1;
#X connect 2 0 3 0;
#X connect 3 0 1 0;
#X restore 616 -24 pd deread;
#X obj 4 -150 state_r_line /\$1/osc/freq/value;
#X obj 334 -123 state_r_line /\$1/noise/amp/value;
#X obj 697 -158 state_r_line /\$1/delay/time/value;
#X obj 781 -135 state_r_line /\$1/delay/time/togg;
#X obj 922 189 state_r_line /\$1/input/value;
#X obj 801 71 state_r_line /\$1/delay/amp/togg;
#X obj 715 0 state_r_line /\$1/delay/amp/value;
#X obj 381 87 state_r_line /\$1/noise/fc/value;
#X obj 506 111 state_r_line /\$1/noise/fc/togg;
#X obj 127 49 state_r_line /\$1/osc/amp/togg;
#X obj 43 83 state_r_line /\$1/osc/amp/value;
#X obj 131 -21 r /\$1/osc/type/togg;
#X obj 908 286 allpass~ 100 4 0.7 0;
#X obj 909 315 throw~ \$0_out2;
#X connect 0 0 3 0;
#X connect 2 0 18 0;
#X connect 3 0 2 0;
#X connect 3 0 16 0;
#X connect 4 0 75 0;
#X connect 5 0 4 1;
#X connect 6 0 5 0;
#X connect 7 0 28 0;
#X connect 8 0 74 0;
#X connect 9 0 8 1;
#X connect 9 0 14 1;
#X connect 10 0 15 0;
#X connect 10 0 38 1;
#X connect 11 0 12 0;
#X connect 12 0 0 0;
#X connect 13 0 64 0;
#X connect 14 0 68 0;
#X connect 15 0 9 0;
#X connect 16 0 17 0;
#X connect 17 0 4 0;
#X connect 18 0 4 0;
#X connect 19 0 18 1;
#X connect 19 0 20 0;
#X connect 20 0 17 1;
#X connect 21 0 26 0;
#X connect 21 0 53 1;
#X connect 22 0 73 0;
#X connect 23 0 22 1;
#X connect 24 0 23 0;
#X connect 25 0 24 0;
#X connect 25 0 48 1;
#X connect 26 0 77 1;
#X connect 27 0 28 1;
#X connect 27 0 43 1;
#X connect 27 0 64 1;
#X connect 28 0 8 0;
#X connect 29 0 30 0;
#X connect 29 0 62 1;
#X connect 30 0 34 0;
#X connect 30 1 61 0;
#X connect 31 0 6 0;
#X connect 31 0 60 1;
#X connect 32 0 33 0;
#X connect 32 1 59 0;
#X connect 33 0 59 0;
#X connect 34 0 6 0;
#X connect 35 0 36 0;
#X connect 36 0 37 0;
#X connect 36 0 59 1;
#X connect 37 0 40 0;
#X connect 37 1 39 0;
#X connect 38 0 10 0;
#X connect 39 0 38 0;
#X connect 40 0 15 0;
#X connect 41 0 42 0;
#X connect 41 0 58 1;
#X connect 42 0 45 0;
#X connect 42 1 44 0;
#X connect 43 0 27 0;
#X connect 44 0 43 0;
#X connect 45 0 28 1;
#X connect 45 0 64 1;
#X connect 46 0 47 0;
#X connect 46 0 56 1;
#X connect 47 0 50 0;
#X connect 47 1 49 0;
#X connect 48 0 25 0;
#X connect 49 0 48 0;
#X connect 50 0 24 0;
#X connect 51 0 52 0;
#X connect 51 0 57 1;
#X connect 52 0 55 0;
#X connect 52 1 54 0;
#X connect 53 0 21 0;
#X connect 54 0 53 0;
#X connect 55 0 26 0;
#X connect 56 1 25 0;
#X connect 57 1 21 0;
#X connect 58 1 27 0;
#X connect 59 1 10 0;
#X connect 60 0 31 0;
#X connect 61 0 60 0;
#X connect 62 1 31 0;
#X connect 63 0 72 0;
#X connect 63 0 90 0;
#X connect 64 0 14 0;
#X connect 65 0 76 0;
#X connect 66 0 63 0;
#X connect 70 0 69 0;
#X connect 71 0 67 0;
#X connect 76 0 77 0;
#X connect 77 0 22 0;
#X connect 78 0 11 0;
#X connect 79 0 32 0;
#X connect 80 0 57 0;
#X connect 81 0 51 0;
#X connect 82 0 63 1;
#X connect 83 0 46 0;
#X connect 84 0 56 0;
#X connect 85 0 58 0;
#X connect 86 0 41 0;
#X connect 87 0 29 0;
#X connect 88 0 62 0;
#X connect 89 0 19 0;
#X connect 90 0 91 0;
#X coords 0 540 1 539 360 250 0;
