#N canvas 493 253 856 395 10;
#N canvas 14 368 1351 375 builder 0;
#X obj 613 -49 dollarg;
#X obj -210 -141 initbang;
#X obj -210 -31 for++ 0 \$1;
#X obj -171 19 symbol \$3;
#X obj 223 20 symbol \$3;
#X obj 184 -30 for++ 0 \$2;
#X obj 613 -22 list split 3;
#X obj 611 14 list prepend obj 0 75;
#X obj 611 40 list trim;
#X obj -182 -77 f \$1;
#X obj 773 -29 for++ 0 \$1;
#X obj 817 -78 f \$1;
#X obj 773 -78 t b b;
#X msg 773 62 connect \$1 0 \$2 \$3;
#X obj 773 38 pack f f f;
#X obj 884 -154 f \$1;
#X obj 228 -77 f \$2;
#X obj 884 -181 initbang;
#X obj 884 -100 + \$2;
#X obj 773 -8 t f f;
#X obj 927 -153 bng 15 250 50 0 empty empty empty 17 7 0 10 -262144
-1 -1;
#X obj -182 -54 - 1;
#X obj 228 -54 - 1;
#X obj 184 -103 t b b;
#X obj -210 -104 t b b;
#X obj 612 -76 t b b;
#X obj 1152 -77 for++ 0 \$1;
#X obj 1152 -126 t b b;
#X obj 1152 41 pack f f f;
#X obj 1152 -56 t f f;
#X obj 1152 -4 + \$1;
#X msg 1152 65 connect \$2 \$3 \$1 0;
#X obj 1196 -126 f \$2;
#X obj 1196 -103 - 1;
#X obj 817 -55 - 1;
#X obj -210 44 pack f s f;
#X obj -210 -6 t f b f;
#X obj 184 45 pack f s f;
#X obj 184 -5 t f b f;
#X msg -210 74 obj \$1 0 matrix_output \$2_in_\$3;
#X obj -210 19 * 150;
#X obj 184 20 * 150;
#X obj 1152 91 s \$0_matrix_node;
#X obj 773 88 s \$0_matrix_node;
#X obj 611 70 s \$0_matrix_node;
#X obj 184 100 s \$0_matrix_node;
#X obj -210 101 s \$0_matrix_node;
#X obj 1296 77 s \$0_matrix_node;
#X obj 1296 25 f;
#X msg 1296 51 connect 2 0 \$1 0;
#X obj 1296 -20 t b b;
#X obj 1407 77 s \$0_matrix_node;
#X obj 1407 25 f;
#X msg 1407 50 connect \$1 0 3 0;
#X obj 884 -75 + 4;
#X obj 773 15 + 4;
#X obj 1152 -33 + 4;
#X obj -10 -31 for++ 0 \$1;
#X obj 18 -77 f \$1;
#X obj 18 -54 - 1;
#X obj -10 -104 t b b;
#X obj -10 19 * 150;
#X obj -10 101 s \$0_matrix_node;
#X obj -10 44 pack f f;
#X obj -10 -6 t f f;
#X obj 884 -128 * 2;
#X obj 989 -43 for++ 0 \$1;
#X obj 989 -92 t b b;
#X obj 989 44 pack f f f;
#X obj 989 -22 t f f;
#X obj 989 22 + \$1;
#X obj 1033 -92 f \$2;
#X obj 1033 -69 - 1;
#X obj 989 94 s \$0_matrix_node;
#X obj 989 1 + 4;
#X msg 989 68 connect \$1 0 \$2 \$3;
#X msg -10 74 obj \$1 -50 inlet~ i:\$2;
#X obj 1166 19 + \$1;
#X obj 483 20 symbol \$3;
#X obj 444 -30 for++ 0 \$2;
#X obj 488 -77 f \$2;
#X obj 488 -54 - 1;
#X obj 444 -103 t b b;
#X obj 444 45 pack f s f;
#X obj 444 -5 t f b f;
#X obj 444 20 * 150;
#X obj 444 100 s \$0_matrix_node;
#X msg 444 74 obj \$1 200 s~ \$2_out_\$3;
#X msg 184 74 obj \$1 150 ode_matrix_input \$2 _out_\$3;
#X connect 0 0 6 0;
#X connect 1 0 24 0;
#X connect 2 0 36 0;
#X connect 2 1 23 0;
#X connect 3 0 35 1;
#X connect 4 0 37 1;
#X connect 5 0 38 0;
#X connect 5 1 25 0;
#X connect 6 1 7 0;
#X connect 7 0 8 0;
#X connect 8 0 44 0;
#X connect 9 0 21 0;
#X connect 10 0 19 0;
#X connect 10 1 27 0;
#X connect 11 0 34 0;
#X connect 12 0 10 0;
#X connect 12 1 11 0;
#X connect 13 0 43 0;
#X connect 14 0 13 0;
#X connect 15 0 18 0;
#X connect 16 0 22 0;
#X connect 17 0 15 0;
#X connect 18 0 54 0;
#X connect 19 0 55 0;
#X connect 19 1 14 2;
#X connect 20 0 15 0;
#X connect 21 0 2 1;
#X connect 22 0 5 1;
#X connect 23 0 5 0;
#X connect 23 1 16 0;
#X connect 24 0 2 0;
#X connect 24 1 9 0;
#X connect 25 0 12 0;
#X connect 25 1 0 0;
#X connect 26 0 29 0;
#X connect 26 1 50 0;
#X connect 27 0 26 0;
#X connect 27 1 32 0;
#X connect 28 0 31 0;
#X connect 29 0 56 0;
#X connect 29 1 28 2;
#X connect 30 0 28 0;
#X connect 31 0 42 0;
#X connect 32 0 33 0;
#X connect 33 0 26 1;
#X connect 34 0 10 1;
#X connect 35 0 39 0;
#X connect 36 0 40 0;
#X connect 36 1 3 0;
#X connect 36 2 35 2;
#X connect 37 0 88 0;
#X connect 38 0 41 0;
#X connect 38 1 4 0;
#X connect 38 2 37 2;
#X connect 39 0 46 0;
#X connect 40 0 35 0;
#X connect 41 0 37 0;
#X connect 48 0 49 0;
#X connect 49 0 47 0;
#X connect 50 0 48 0;
#X connect 50 1 52 0;
#X connect 52 0 53 0;
#X connect 53 0 51 0;
#X connect 54 0 14 1;
#X connect 54 0 28 1;
#X connect 54 0 48 1;
#X connect 54 0 52 1;
#X connect 54 0 68 1;
#X connect 55 0 14 0;
#X connect 56 0 30 0;
#X connect 57 0 64 0;
#X connect 57 1 23 0;
#X connect 58 0 59 0;
#X connect 59 0 57 1;
#X connect 60 0 57 0;
#X connect 60 1 58 0;
#X connect 61 0 63 0;
#X connect 63 0 76 0;
#X connect 64 0 61 0;
#X connect 64 1 63 1;
#X connect 65 0 18 0;
#X connect 66 0 69 0;
#X connect 66 1 27 0;
#X connect 67 0 66 0;
#X connect 67 1 71 0;
#X connect 68 0 75 0;
#X connect 69 0 74 0;
#X connect 69 1 68 2;
#X connect 70 0 68 0;
#X connect 71 0 72 0;
#X connect 72 0 66 1;
#X connect 74 0 70 0;
#X connect 75 0 73 0;
#X connect 76 0 62 0;
#X connect 77 0 28 0;
#X connect 78 0 83 1;
#X connect 79 0 84 0;
#X connect 80 0 81 0;
#X connect 81 0 79 1;
#X connect 82 0 79 0;
#X connect 82 1 80 0;
#X connect 83 0 87 0;
#X connect 84 0 85 0;
#X connect 84 1 78 0;
#X connect 84 2 83 2;
#X connect 85 0 83 0;
#X connect 87 0 86 0;
#X connect 88 0 45 0;
#X restore 4 269 pd builder;
#X obj 3 242 namecanvas \$0_matrix_node;
#X obj -64 -27 r \$3;
#X obj -45 193 s~ \$3_delayed;
