#N canvas 427 150 934 540 10;
#X obj 57 62 initbang;
#X obj 57 89 t b b;
#X msg 91 115 top;
#X msg 57 115 pop;
#X obj 469 181 closebang;
#X obj 469 213 f;
#X msg 469 285 push \$1;
#X msg 690 242 MATRIX: input \$1 is free;
#X obj 57 170 s \$0-num;
#X obj 57 206 r \$0-num;
#X obj 503 212 r \$0-num;
#X obj 57 266 pack f s;
#X obj 57 236 t f b;
#X obj 459 -60 inlet~;
#X obj 452 103 throw~ matrix_in_0;
#X msg 517 36 set matrix_in_\$1;
#X obj 517 14 r \$0-num;
#X obj 57 146 h_stack matrix_in;
#X obj 469 313 h_stack matrix_in;
#X obj 214 30 r \$0-num;
#X obj 214 58 t b f;
#X msg 592 287 remove \$1;
#X obj 592 263 symbol \$1;
#X obj 469 252 t f b;
#X msg 214 129 add \$1;
#X msg 283 125 in_\$1;
#X msg 57 290 input \$1 is in use by \$2;
#X obj 57 315 print MATRIX INPUT:;
#X obj 691 265 print MATRIX INPUT:;
#X obj 214 220 s matrix_update;
#X obj 214 194 loadbang;
#X obj 271 193 closebang;
#X obj 214 152 h_map matrix_in;
#X obj 592 312 h_map matrix_in;
#X obj 599 105 s~ \$1\$2;
#X obj 460 37 *~;
#X obj 476 13 line~;
#X obj 116 267 symbol \$1\$2;
#X obj 214 105 symbol \$1\$2;
#X obj 476 -31 state_r_line /\$1/output/value;
#X msg 476 -9 \$1 100;
#X connect 0 0 1 0;
#X connect 1 0 3 0;
#X connect 1 1 2 0;
#X connect 2 0 17 0;
#X connect 3 0 17 0;
#X connect 4 0 5 0;
#X connect 5 0 7 0;
#X connect 5 0 23 0;
#X connect 6 0 18 0;
#X connect 7 0 28 0;
#X connect 9 0 12 0;
#X connect 10 0 5 1;
#X connect 11 0 26 0;
#X connect 12 0 11 0;
#X connect 12 1 37 0;
#X connect 13 0 35 0;
#X connect 15 0 14 0;
#X connect 16 0 15 0;
#X connect 17 0 8 0;
#X connect 19 0 20 0;
#X connect 20 0 38 0;
#X connect 20 1 25 0;
#X connect 21 0 33 0;
#X connect 22 0 21 0;
#X connect 23 0 6 0;
#X connect 23 1 22 0;
#X connect 24 0 32 0;
#X connect 25 0 32 1;
#X connect 26 0 27 0;
#X connect 30 0 29 0;
#X connect 31 0 29 0;
#X connect 35 0 34 0;
#X connect 35 0 14 0;
#X connect 36 0 35 1;
#X connect 37 0 11 1;
#X connect 38 0 24 0;
#X connect 39 0 40 0;
#X connect 40 0 36 0;
