#N canvas 1112 317 450 300 10;
#X obj 101 205 unpack f f f;
#X obj 125 233 pack f f;
#X obj 125 256 s ode_mtx_ij;
#X obj 46 257 s ode_mtx_v;
#X obj 101 181 pack f \$1 \$2;
#X obj 117 124 knob 32 32 0 1 0 0 empty empty empty 0 -8 0 8 -262144
-1 -1 0 1;
#X obj 203 168 nbx 5 14 -1e+37 1e+37 0 0 empty empty empty 0 -8 0 10
-262144 -1 -1 0 256;
#X msg 195 133 set \$1;
#X msg 45 135 set \$1;
#X connect 0 0 3 0;
#X connect 0 1 1 0;
#X connect 0 2 1 1;
#X connect 1 0 2 0;
#X connect 4 0 0 0;
#X connect 5 0 4 0;
#X connect 5 0 8 0;
#X connect 6 0 7 0;
#X connect 6 0 4 0;
#X connect 7 0 5 0;
#X connect 8 0 6 0;
#X coords 0 -1 1 1 60 60 1 100 100;
