#N canvas 419 82 627 533 10;
#X obj 101 101 nbx 4 14 -1e+37 1e+37 0 1 \$1_max empty empty 0 -8 0
8 -262144 -1 -1 0 256;
#X obj 101 116 nbx 4 14 -1e+37 1e+37 0 0 \$1_min empty empty 0 -8 0
8 -262144 -1 -1 0 256;
#X obj 101 134 vsl 38 115 0 1 0 1 \$1 ctl_\$1 empty 0 -9 0 10 -262144
-1 -1 0 1;
#X obj 101 256 tgl 38 1 \$1_togg ctl_\$1_togg empty 17 7 0 10 -262144
-1 -1 0 1;
#X obj 189 489 outlet;
#X obj 59 101 inlet;
#X obj 189 438 pack f 50;
#X obj 189 464 line;
#X obj 253 374 r \$1_min;
#X obj 318 374 r \$1_max;
#X obj 183 231 tgl 15 0 empty empty empty 17 7 0 10 -262144 -1 -1 0
1;
#X obj 150 252 spigot;
#X obj 183 210 r \$1_togg;
#X obj 150 289 demux 1;
#X obj 203 313 r \$1_min;
#X obj 290 313 r \$1_max;
#X obj 189 399 expr $f1*($f3-$f2)+$f2;
#X obj 116 340 expr (pow($f4 \, $f1)-1)*($f3-$f2)/($f4-1)+$f2;
#X obj 292 154 r fader_\$1;
#X msg 374 132 log;
#X msg 423 149 linear;
#X msg 292 235 0;
#X msg 338 235 1;
#X obj 292 206 route log linear;
#X obj 244 500 nbx 5 14 -1e+37 1e+37 0 0 empty empty empty 0 -8 0 10
-262144 -1 -1 0 256;
#X connect 2 0 11 0;
#X connect 5 0 2 0;
#X connect 6 0 7 0;
#X connect 7 0 4 0;
#X connect 7 0 24 0;
#X connect 8 0 16 1;
#X connect 9 0 16 2;
#X connect 10 0 11 1;
#X connect 11 0 13 0;
#X connect 12 0 10 0;
#X connect 13 0 17 0;
#X connect 13 1 16 0;
#X connect 14 0 17 1;
#X connect 15 0 17 2;
#X connect 16 0 6 0;
#X connect 17 0 6 0;
#X connect 18 0 23 0;
#X connect 19 0 23 0;
#X connect 20 0 23 0;
#X connect 21 0 13 1;
#X connect 22 0 13 1;
#X connect 23 0 21 0;
#X connect 23 1 22 0;
#X coords 0 -1 1 1 40 195 2 100 100;
