#N canvas 67 136 1292 607 10;
#X declare -lib pdcontainer;
#X declare -lib pdcontainer;
#X declare -lib pdcontainer;
#X declare -lib pdcontainer;
#X declare -lib pdcontainer;
#X declare -lib pdcontainer;
#X declare -lib pdcontainer;
#X declare -path extras;
#X declare -lib mrpeach;
#X obj 405 101 nbx 4 14 -1e+37 1e+37 0 1 \$0_slider_max \$0_slider_max_set
empty 0 -8 0 8 -204800 -1 -1 1 256;
#X obj 232 101 nbx 4 14 -1e+37 1e+37 0 1 \$0_slider_min \$0_slider_min_set
empty 0 -8 0 8 -204800 -1 -1 0 256;
#X obj 186 100 tgl 15 1 \$0_togg \$0_togg_set empty 17 7 0 10 -204800
-1 -1 1 1;
#X obj 202 100 hradio 15 1 1 2 \$0_radio \$0_radio_set empty 0 -8 0
10 -204786 -1 -1 0;
#X obj 100 100 cnv 15 85 15 empty \$0_label \$2 2 8 0 10 -204786 -66577
0;
#X obj 399 339 s \$0_slider_set;
#X obj 399 165 r \$0_slider;
#X obj 983 205 symbol;
#X obj 528 238 r \$0_label;
#X obj 983 232 s \$0_label;
#X obj 893 48 r \$0_label;
#X obj 788 48 r \$0_slider_max;
#X obj 788 99 s \$0_slider_max_set;
#X obj 711 49 r \$0_label;
#X obj 606 49 r \$0_slider_min;
#X obj 606 99 s \$0_slider_min_set;
#X obj 968 115 s \$0_slider_set;
#X obj 968 69 hotpack f f;
#X msg 968 92 range \$1 \$2;
#X obj 968 46 r /\$2/min;
#X obj 1031 47 r /\$2/max;
#X obj 353 289 outlet;
#X obj 839 282 r \$0_radio;
#X obj 839 307 route 0 1;
#X msg 839 331 lin;
#X msg 870 331 log;
#X obj 839 356 s \$0_slider_set;
#X obj 985 451 sel 0;
#X obj 274 100 hsl 128 15 0 1 0 1 \$0_slider \$0_slider_set 0 2 9 0
9 -204786 -1 -1 0 1;
#X obj 399 262 state_io_set /\$2/value;
#X obj 491 101 nbx 4 14 0 80000 0 1 \$0_line_time \$0_line_time_set
empty 0 -8 0 8 -204786 -1 -1 0.01 256;
#X obj 708 161 r \$0_label;
#X obj 603 161 r \$0_line_time;
#X obj 603 211 s \$0_line_time_set;
#X obj 708 239 r \$0_label;
#X obj 459 101 nbx 3 14 0 1000 0 1 \$0_prob_random \$0_prob_random_set
empty 0 -8 0 8 -204800 -1 -1 0 256;
#X obj 603 239 r \$0_prob_random;
#X obj 603 289 s \$0_prob_random_set;
#X obj 444 100 tgl 15 1 \$0_togg_random \$0_togg_random_set empty 17
7 0 10 -204786 -1 -1 0 1;
#X obj 710 314 r \$0_label;
#X obj 605 396 s \$0_togg_random_set;
#X obj 605 314 r \$0_togg_random;
#X obj 100 231 metro;
#X obj 100 165 r /\$2/togg_random;
#X obj 127 187 r /\$2/line_time;
#X obj 100 363 random 10000;
#X obj 128 474 r /\$2/min;
#X obj 191 474 r /\$2/max;
#X obj 100 569 s \$0_slider;
#X obj 472 190 r /\$2/line_time;
#X obj 127 207 * 1000;
#X obj 472 212 * 1000;
#X obj 191 329 r /\$2/prob_random;
#X obj 983 179 r ode_slider[\$1].name;
#X obj 788 71 state_io_set /\$2/max;
#X obj 606 72 state_io_set /\$2/min;
#X obj 603 184 state_io_set /\$2/line_time;
#X obj 603 262 state_io_set /\$2/prob_random;
#X obj 605 337 state_io_set /\$2/togg_random;
#X obj 914 155 r \$0_label;
#X obj 791 153 r \$0_togg;
#X obj 791 182 state_io_set /\$2/togg;
#X obj 548 368 route bang;
#X obj 985 528 s /\$2/value;
#X obj 530 100 ode_osclearn /\$2;
#X obj 791 209 s \$0_togg_set;
#X obj 983 353 list2symbol;
#X msg 983 376 label \$1;
#X obj 983 399 s \$0_slider_set;
#X obj 983 327 round 5;
#X obj 983 301 r /\$2/value;
#X obj 906 447 r /\$2/value;
#X obj 431 238 r /\$2/togg;
#X obj 399 239 *;
#X obj 956 485 f;
#X obj 956 511 f;
#X obj 1012 485 b;
#X obj 985 482 0;
#X obj 985 426 r /\$2/togg;
#X obj 115 420 r /\$2/value;
#X obj 100 498 clip;
#X obj 100 448 +;
#X obj 134 449 nbx 5 14 -1e+37 1e+37 0 0 empty empty empty 0 -8 0 10
-262144 -1 -1 0 256;
#X obj 409 190 pack f f;
#X obj 409 211 line;
#X obj 258 357 random 2;
#X obj 100 338 t b b;
#X obj 100 544 line;
#X obj 100 523 pack f 50;
#X obj 486 419 r /\$2/prob_random;
#X obj 486 441 sel 0;
#X obj 486 486 change;
#X msg 515 464 1;
#X msg 486 464 0;
#X obj 357 389 r /\$2/min;
#X obj 420 389 r /\$2/max;
#X obj 357 415 hotpack f f;
#X obj 357 438 expr $f2-$f1;
#X obj 100 391 expr -log(1-$f1/10000)*$f2/$f4*($f3*2-1);
#X obj 191 368 / 20;
#X connect 6 0 73 0;
#X connect 8 0 29 1;
#X connect 10 0 54 1;
#X connect 11 0 54 0;
#X connect 13 0 55 1;
#X connect 14 0 55 0;
#X connect 17 0 18 0;
#X connect 18 0 16 0;
#X connect 19 0 17 0;
#X connect 20 0 17 1;
#X connect 22 0 23 0;
#X connect 23 0 24 0;
#X connect 23 1 25 0;
#X connect 24 0 26 0;
#X connect 25 0 26 0;
#X connect 27 0 74 0;
#X connect 27 0 77 0;
#X connect 27 1 76 0;
#X connect 29 0 5 0;
#X connect 31 0 56 1;
#X connect 32 0 56 0;
#X connect 34 0 57 1;
#X connect 36 0 57 0;
#X connect 39 0 58 1;
#X connect 41 0 58 0;
#X connect 42 0 86 0;
#X connect 43 0 42 0;
#X connect 44 0 50 0;
#X connect 45 0 98 0;
#X connect 46 0 80 1;
#X connect 47 0 80 2;
#X connect 49 0 51 0;
#X connect 50 0 42 1;
#X connect 51 0 83 1;
#X connect 52 0 99 0;
#X connect 53 0 7 0;
#X connect 54 0 12 0;
#X connect 55 0 15 0;
#X connect 56 0 33 0;
#X connect 57 0 37 0;
#X connect 58 0 62 0;
#X connect 59 0 61 1;
#X connect 60 0 61 0;
#X connect 61 0 65 0;
#X connect 62 1 40 0;
#X connect 66 0 67 0;
#X connect 67 0 68 0;
#X connect 69 0 66 0;
#X connect 70 0 69 0;
#X connect 71 0 74 1;
#X connect 72 0 73 1;
#X connect 73 0 29 0;
#X connect 73 0 21 0;
#X connect 74 0 75 1;
#X connect 76 0 75 0;
#X connect 77 0 63 0;
#X connect 78 0 27 0;
#X connect 79 0 81 1;
#X connect 79 0 82 0;
#X connect 80 0 88 0;
#X connect 81 0 80 0;
#X connect 83 0 84 0;
#X connect 84 0 73 0;
#X connect 85 0 98 2;
#X connect 86 0 45 0;
#X connect 86 1 85 0;
#X connect 87 0 48 0;
#X connect 88 0 87 0;
#X connect 89 0 90 0;
#X connect 90 0 93 0;
#X connect 90 1 92 0;
#X connect 91 0 58 0;
#X connect 92 0 91 0;
#X connect 93 0 91 0;
#X connect 94 0 96 0;
#X connect 95 0 96 1;
#X connect 96 0 97 0;
#X connect 97 0 98 3;
#X connect 98 0 81 0;
#X connect 99 0 98 1;
#X coords 0 -1 1 1 445 15 2 100 100;
