#N canvas 238 123 1027 568 10;
#X declare -path extras;
#X declare -lib mrpeach;
#X obj 100 100 bng 15 250 50 0 empty empty empty 17 7 0 10 -262130
-204800 -1;
#X obj -143 154 nbx 5 14 -1e+37 1e+37 0 0 empty empty empty 0 -8 0
10 -262144 -1 -1 0 256;
#X obj -49 199 nbx 5 14 -1e+37 1e+37 0 0 empty empty empty 0 -8 0 10
-262144 -1 -1 0 256;
#X obj -143 262 s \$1/value;
#X obj -143 221 maxlib/scale 0 1 0 1;
#X obj 76 199 nbx 5 14 -1e+37 1e+37 0 0 empty empty empty 0 -8 0 10
-262144 -1 -1 0 256;
#X obj -49 176 r \$1/min;
#X obj 76 177 r \$1/max;
#X obj 175 87 r unpacked_osc;
#X obj -132 14 path extras;
#X obj -132 37 import mrpeach;
#X obj -143 128 osclearn;
#X obj 185 206 s \$1/togg;
#X obj 175 114 routeOSC \$1/value \$1/togg \$1/minmax;
#X obj 302 212 s2l /;
#X obj 301 187 symbol;
#X obj 301 238 unpack f f;
#X obj 299 260 - 1;
#X obj 226 287 demultiplex;
#X obj 312 360 s \$1/min;
#X obj 224 382 s \$1/max;
#X obj 323 308 r \$1/min;
#X obj 236 309 r \$1/max;
#X obj 219 337 *;
#X obj 310 334 *;
#X obj 137 261 maxlib/scale 0 1 0.9 1.1;
#X obj 676 196 symbol \$1;
#X obj 676 171 loadbang;
#X obj 676 222 s2l /;
#X obj 211 456 s;
#X obj 676 149 bng 15 250 50 0 empty empty empty 17 7 0 10 -262144
-1 -1;
#X obj 230 430 makesymbol /%s/display_value;
#X obj 676 246 unpack s s;
#X obj 410 327 s \$0_encoder;
#X obj 137 235 r \$0_encoder;
#X obj 592 376 r \$0_encoder;
#X obj 592 475 s;
#X obj 592 422 symbol;
#X obj 592 399 b;
#X obj 628 469 makesymbol /%s/display_name;
#X obj 410 298 spigot;
#X obj 457 298 tgl 15 1 empty empty empty 17 7 0 10 -262144 -1 -1 0
1;
#X obj 500 171 t b b;
#X obj 526 235 s encoder_spigot;
#X msg 543 203 0;
#X msg 500 197 1;
#X obj 516 260 r encoder_spigot;
#X obj 676 303 s \$0_ode_name;
#X obj 231 408 r \$0_ode_name;
#X obj 629 446 r \$0_ode_name;
#X obj 733 274 s \$0_ode_parameter;
#X obj 649 416 r \$0_ode_parameter;
#X obj -61 321 makesymbol /%s/display_value;
#X obj -61 299 r \$0_ode_name;
#X obj -76 346 s;
#X obj 410 267 iem_receive;
#X obj 410 212 r \$0_ode_name;
#X obj 379 169 bng 15 250 50 0 empty empty empty 17 7 0 10 -262144
-1 -1;
#X msg 410 238 set /\$1/encoder;
#X obj 169 147 s \$0_value;
#X obj 520 378 r \$0_value;
#X connect 0 0 11 1;
#X connect 1 0 4 0;
#X connect 2 0 4 3;
#X connect 4 0 3 0;
#X connect 4 0 54 0;
#X connect 5 0 4 4;
#X connect 6 0 2 0;
#X connect 7 0 5 0;
#X connect 8 0 13 0;
#X connect 11 0 1 0;
#X connect 13 0 4 0;
#X connect 13 0 59 0;
#X connect 13 1 12 0;
#X connect 13 2 15 0;
#X connect 13 2 42 0;
#X connect 13 2 57 0;
#X connect 14 0 16 0;
#X connect 15 0 14 0;
#X connect 16 0 17 0;
#X connect 17 0 18 1;
#X connect 18 0 23 0;
#X connect 18 1 24 0;
#X connect 21 0 24 1;
#X connect 22 0 23 1;
#X connect 23 0 20 0;
#X connect 23 0 29 0;
#X connect 24 0 19 0;
#X connect 25 0 18 0;
#X connect 26 0 28 0;
#X connect 27 0 26 0;
#X connect 28 0 32 0;
#X connect 30 0 27 0;
#X connect 31 0 29 1;
#X connect 32 0 47 0;
#X connect 32 1 50 0;
#X connect 34 0 25 0;
#X connect 35 0 38 0;
#X connect 37 0 36 0;
#X connect 38 0 37 0;
#X connect 39 0 36 1;
#X connect 40 0 33 0;
#X connect 41 0 40 1;
#X connect 42 0 45 0;
#X connect 42 1 44 0;
#X connect 44 0 43 0;
#X connect 45 0 41 0;
#X connect 46 0 41 0;
#X connect 48 0 31 0;
#X connect 49 0 39 0;
#X connect 51 0 37 1;
#X connect 52 0 54 1;
#X connect 53 0 52 0;
#X connect 55 0 40 0;
#X connect 56 0 58 0;
#X connect 58 0 55 0;
#X connect 60 0 38 0;
#X coords 0 -1 1 1 15 15 2 100 100;
