#N canvas 43 272 699 236 10;
#X obj 106 57 r unpacked_osc;
#X obj 106 85 routeOSC /\$1/encoder;
#X obj 106 116 s osc_encoder;
#X obj 260 124 pack s f;
#X obj 260 71 t b f;
#X obj 260 151 list trim;
#X obj 260 97 symbol /\$1/display_value;
#X obj 260 48 r /\$1/display_value;
#X obj 447 148 list trim;
#X obj 260 177 s osc_touch;
#X obj 448 173 s osc_touch;
#X obj 447 94 symbol /\$1/display_name;
#X obj 447 45 r /\$1/display_name;
#X obj 447 68 t b s;
#X obj 447 122 pack s s;
#X obj 267 14 print;
#X connect 0 0 1 0;
#X connect 1 0 2 0;
#X connect 3 0 5 0;
#X connect 4 0 6 0;
#X connect 4 1 3 1;
#X connect 5 0 9 0;
#X connect 6 0 3 0;
#X connect 7 0 4 0;
#X connect 7 0 15 0;
#X connect 8 0 10 0;
#X connect 11 0 14 0;
#X connect 12 0 13 0;
#X connect 13 0 11 0;
#X connect 13 1 14 1;
#X connect 14 0 8 0;
