#N canvas 244 338 615 352 10;
#X obj 43 100 inlet;
#X msg 43 172 label \$1;
#X obj 100 100 cnv 15 300 16 empty \$0-text empty 2 8 0 14 -191407
-66577 0;
#X obj 43 202 s \$0-text;
#X obj 43 137 l2s;
#X connect 0 0 4 0;
#X connect 1 0 3 0;
#X connect 4 0 1 0;
#X coords 0 -1 1 1 301 17 2 100 100;
