#N canvas 479 151 950 426 10;
#X obj 100 105 cnv 15 150 40 empty empty empty 20 12 0 9 -195568 -66577
0;
#X msg 289 201 width \$1;
#X obj 536 82 nbx 5 14 -1e+37 1e+37 0 1 empty empty empty 0 -8 0 10
-262144 -1 -1 1 256;
#X obj 611 82 nbx 5 14 -1e+37 1e+37 0 1 empty empty empty 0 -8 0 10
-262144 -1 -1 1 256;
#X obj 521 101 *~;
#X obj 596 102 *~;
#X obj 387 94 scaleXYZ 1 1 1;
#X obj 437 57 nbx 5 14 -1e+37 1e+37 0 0 empty empty empty 0 -8 0 10
-262144 -1 -1 0.01 256;
#X msg 288 101 draw point;
#X msg 289 135 draw linestrip;
#X obj 387 362 scopeXYZ~ 2048;
#X obj 387 167 translateXYZ;
#X obj 410 123 nbx 5 14 -1e+37 1e+37 0 0 empty empty empty 0 -8 0 10
-262144 -1 -1 0 256;
#X obj 104 160 nbx 5 14 -1e+37 1e+37 0 1 empty gem_scope_scale_\$1
Scale 0 -8 0 8 -262144 -1 -1 0.01 256;
#X obj 107 220 nbx 4 14 -1e+37 1e+37 0 1 empty gem_scope_size_x_\$1
X.Size 0 -8 0 8 -262144 -1 -1 1 256;
#X obj 156 220 nbx 4 14 -1e+37 1e+37 0 1 empty gem_scope_size_y_\$1
Y.Size 0 -8 0 8 -262144 -1 -1 1 256;
#X obj 104 190 nbx 5 14 -1e+37 1e+37 0 1 empty gem_scope_shift_x_\$1
Shift.X 0 -8 0 8 -262144 -1 -1 0 256;
#X obj 153 190 nbx 5 14 -1e+37 1e+37 0 1 empty gem_scope_shift_y_\$1
Shift.Y 0 -8 0 8 -262144 -1 -1 0 256;
#X obj 433 144 nbx 5 14 -1e+37 1e+37 0 0 empty empty empty 0 -8 0 10
-262144 -1 -1 0 256;
#X obj 107 252 nbx 3 14 1 1e+37 0 1 empty empty Width 0 -8 0 8 -262144
-1 -1 1 256;
#X msg 289 167 length \$1;
#X obj 150 282 nbx 5 14 1 1e+37 0 1 empty empty Length 0 -8 0 8 -262144
-1 -1 8192 256;
#X obj 105 109 tgl 15 1 empty empty On.Off 17 7 0 10 -262144 -1 -1
1 1;
#X obj 100 300 cnv 10 150 10 empty empty empty 3 12 0 9 -195568 -66577
0;
#X obj 105 128 bng 15 250 50 0 empty gem_scope_draw_point_\$1 P 17
7 0 10 -262144 -1 -1;
#X obj 133 129 bng 15 250 50 0 empty empty L 17 7 0 10 -262144 -1 -1
;
#X obj 387 32 gemhead 10;
#X obj 543 36 inlet~;
#X obj 609 39 inlet~;
#X obj 101 373 nbx 8 14 -1e+37 1e+37 0 1 empty empty empty 0 -8 0 10
-262144 -1 -1 8192 256;
#X obj 101 349 expr pow(2 \, $f1);
#X obj 107 282 nbx 3 14 1 1e+37 0 1 empty gem_scope_length_\$1 2pow
0 -8 0 8 -262144 -1 -1 13 256;
#X obj 387 305 color;
#X obj 414 277 r gem_scope_color_\$1;
#X obj 688 83 nbx 5 14 -1e+37 1e+37 0 1 empty empty empty 0 -8 0 10
-262144 -1 -1 1 256;
#X obj 673 103 *~;
#X obj 686 40 inlet~;
#X obj 206 220 nbx 4 14 -1e+37 1e+37 0 1 empty gem_scope_size_z_\$1
Z.Size 0 -8 0 8 -262144 -1 -1 1 256;
#X obj 203 190 nbx 5 14 -1e+37 1e+37 0 1 empty gem_scope_shift_z_\$1
Shift.Z 0 -8 0 8 -262144 -1 -1 0 256;
#X obj 477 160 nbx 5 14 -1e+37 1e+37 0 0 empty empty empty 0 -8 0 10
-262144 -1 -1 0 256;
#X obj 387 236 rotateXYZ;
#X connect 1 0 10 0;
#X connect 2 0 4 1;
#X connect 3 0 5 1;
#X connect 4 0 10 1;
#X connect 5 0 10 2;
#X connect 6 0 11 0;
#X connect 7 0 6 1;
#X connect 7 0 6 2;
#X connect 7 0 6 3;
#X connect 8 0 10 0;
#X connect 9 0 10 0;
#X connect 11 0 40 0;
#X connect 12 0 11 1;
#X connect 13 0 7 0;
#X connect 14 0 2 0;
#X connect 15 0 3 0;
#X connect 16 0 12 0;
#X connect 17 0 18 0;
#X connect 18 0 11 2;
#X connect 19 0 1 0;
#X connect 20 0 10 0;
#X connect 21 0 20 0;
#X connect 22 0 26 0;
#X connect 24 0 8 0;
#X connect 25 0 9 0;
#X connect 26 0 6 0;
#X connect 27 0 4 0;
#X connect 28 0 5 0;
#X connect 30 0 29 0;
#X connect 30 0 21 0;
#X connect 31 0 30 0;
#X connect 32 0 10 0;
#X connect 33 0 32 1;
#X connect 34 0 35 1;
#X connect 35 0 10 3;
#X connect 36 0 35 0;
#X connect 37 0 34 0;
#X connect 38 0 39 0;
#X connect 39 0 11 3;
#X connect 40 0 32 0;
#X coords 0 -1 1 1 150 210 1 100 100;
